<svg xmlns="http://www.w3.org/2000/svg" xmlns:xlink="http://www.w3.org/1999/xlink" width="240" height="336" class="card" preserveAspectRatio="none" viewBox="-120 -168 240 336"><defs><symbol id="h" preserveAspectRatio="xMinYMid" viewBox="-500 -500 1000 1000"><path fill="none" stroke="red" stroke-linecap="square" stroke-miterlimit="1.5" stroke-width="80" d="M50-460h200m-100 0v710a100 100 0 0 1-400 0v-30"/></symbol><symbol id="a" preserveAspectRatio="xMinYMid" viewBox="-600 -600 1200 1200"><path fill="red" d="M0-300c0-100 100-200 200-200s200 100 200 250C400 0 0 400 0 500 0 400-400 0-400-250c0-150 100-250 200-250S0-400 0-300Z"/></symbol><symbol id="g" preserveAspectRatio="none" viewBox="0 0 1300 2000"><path fill="none" stroke="#44F" stroke-linecap="round" stroke-linejoin="round" stroke-width="3" d="M115 211.8V336m10-134.8v140.3m10-152.9v160.7M145 172v189.6M155 90v292.2m10-288.8V455m10-352v343.3m10-332.8v318.7m10-307.4v292.4m10-280V401m10-249.7v232m10-215.4v195.7M1202 680c9.8 8.8 7.6 26.8 4 27m-12-58c9.8 8.8 7.6 26.8 4 27m17-73c-9 5-4 36-4 36m10 9a29 29 0 0 1 4 16m6 18a29 29 0 0 1 4 16M804 254c-3-2.6-26 5.4-27 11m26-51c-12 3-23-10-37-10-4.1 0-22 8-22 8m41.4 6c3.6 2.8 5.5 8.3 5.6 14.5 0 10.2-6.5 18.5-14.5 18.5s-14.5-8.3-14.5-18.5c0-1.5.1-3 .4-4.5M594.2 400h-19.5m33.5 15h-50.5m70.2 15H548m91.8 15H526.3M670 460H510m135 15H474.8"/><use xlink:href="#a" width="100" height="100" transform="translate(496 951.4)"/><use xlink:href="#a" width="100" height="100" transform="rotate(180 332.5 524.3)"/><use xlink:href="#a" width="75" height="75" transform="rotate(30 -931.7 2045.8)"/><use xlink:href="#a" width="75" height="75" transform="rotate(30 -790.5 2072.8)"/><use xlink:href="#a" width="75" height="75" transform="rotate(30 -645.6 2113)"/><use xlink:href="#a" width="75" height="75" transform="rotate(60 -391 509.6)"/><use xlink:href="#a" width="75" height="75" transform="rotate(60 -508.2 502.1)"/><use xlink:href="#a" width="75" height="75" transform="rotate(60 -562 411.7)"/><use xlink:href="#a" width="75" height="75" transform="rotate(60 -624.2 500.9)"/></symbol><symbol id="f" preserveAspectRatio="none" viewBox="0 0 1300 2000"><path fill="none" stroke="#44F" stroke-linecap="round" stroke-linejoin="round" stroke-width="6" d="M497.5 1097.5v-195h305m-305 17.5h304.6m-304.4 20h304.8m-305-37.5L220.3 544.1m307.2 358.4L239.9 530.7m397.6 371.8L332 507.6m335.5 394.9L360 505m483.5 2.4C742.3 619.6 702.3 760 667.5 902.5m194.1-381.4C769 631 730.9 765.6 697.5 902.5m230.3-333.2c-78.5 99.1-125.4 210.4-155.3 333.2m174.6-319.4c-72.1 95.6-116 202.2-144.6 319.4m217-265.3A774.8 774.8 0 0 0 899.8 850m138.9-199a790.8 790.8 0 0 0-117.3 222.5m-88.8-72a296.7 296.7 0 0 1 157.4 261 293 293 0 0 1-68.8 188.8m-111.7-376a221.4 221.4 0 0 1 104.1 187.2 219 219 0 0 1-40.3 126.7M802.6 907c48.8 35 80.4 91.7 80.4 155.5a189 189 0 0 1-29 101M410.3 570H795m-423.4-50h459.6M380 490h440l480 352.7m-1034-330L0 696.2m235.5-132.4L0 726.2m950.5 136.4a321.7 321.7 0 0 1 12.2 383.3m337.3-149.6c-152.7-25.3-270-177.4-270-361.3a425 425 0 0 1 8.3-83.7M1300 984.7C1200 960.6 1125 858 1125 735c0-6.7.2-13.4.6-20m174.3 239c-85.5-23.6-149-112.7-149-219v-2m149 158.6c-46-17.8-81.6-62.2-93.3-117.4m5.6 292.2c-49.4 119.3-123.4 231.2-195.9 307m171.8-321.7c-45.7 115.8-115.5 225.9-185.6 304.3m162.3-321.7a1073 1073 0 0 1-153.5 275m-49-63.2 48.8 63.4m20-605.2a793 793 0 0 0-80.8 157.5M422.6 585H785m515 492.8c-143.4-19.1-254.9-163.6-254.9-339 0-26.9 2.6-53 7.6-78.1m6.8 80.4v-2.3a384 384 0 0 1 6.1-68.7m12.4 186.3a372 372 0 0 1-16.6-79m79 191.7a328 328 0 0 1-50.3-81m151.5 156.4c-31-13-59.5-32.5-84.2-57m142.7 73.1c-8.1-1-16-2.7-24-4.6m-199.5-337.7c.7-12.6 2-25 4-37m13.2 169a349.7 349.7 0 0 1-16.2-77.8m72.5 180.3a308.4 308.4 0 0 1-44.3-71.6m147 147a246 246 0 0 1-78.2-49.5m-81.2-262.9c.5-7.8 1.3-15.6 2.3-23.2M1103 822a327.9 327.9 0 0 1-6.9-34.3m54.8 137.2c-7.8-10.8-15-22.3-21.5-34.4m112.2 112A229 229 0 0 1 1202 978m-93-246.5c.2-9.4.9-18.7 1.9-27.9m-2 30.7.1-2.8m.3 21.7a319.8 319.8 0 0 1-.3-18.9m11.7 89.8a309.5 309.5 0 0 1-8.9-42.4m19.1 72-3-7.7m39 70.9a267 267 0 0 1-23.7-36.9m46.6 63-3.5-3.5m113.6 61.7a202 202 0 0 1-88-39m-87-109.8c24.8-40-53.6-42.7-29-2.3-45.3 1-12.4 62.7 13.3 26.9 16.6 40.7 66-19.6 15.7-24.6v0m-23.8-102.8c32.7-33.8-43.3-53.2-28-8.5-44.4-8.7-25.5 58.7 7.4 29.1 7.5 43.3 68.5-5 20.6-20.6v0m84.7 193.6c12-45.4-63.7-25.2-28.5 6.3-43 14.1 6.5 63.6 20.6 21.8 27.8 34.1 57.4-38 8-28v0M1300 1010c-5-2.3-12.2-1.9-21.9 3.4-2.2-47-68.4-5-25.3 14.5-36.8 26.4 25.2 58.8 26.2 14.6 8.8 5.8 15.9 5.8 21 2.7m-497.8-4c12.3-6.1 37.2-17.9 52.7-21.3 31.9-7 33.7 38.6 5 40a2128 2128 0 0 0-57.1 4.3m-.6-11.1 32.7-8.2m-32-27.8c8.4-9.3 23.8-25.8 34.8-33.3 23.7-16.2 40.2 20.5 17.2 31.1-16 7.4-51.5 25.5-51.5 25.5m-.9-10 27-19.5m-26.8-42.4c3.9-7 8-13.7 11.7-18.4 18.1-22.4 44.4 8 25.5 24.8a1854 1854 0 0 0-37.1 34.6m-.3-15.4 12-15.8m-12-62.2c12.5 1 23.6 16.5 13.4 30.2-3.5 4.6-8.3 11.3-13.2 18.1m.4 103.3c13.2-1.7 41.6-4.7 57.8-2.8 32.4 3.9 19 47.5-8.6 39.4a1908 1908 0 0 0-49.6-13.3m.3-12 30.7 2.9m-31 9.4c13.1 3.4 40 11 54.2 18.6 25.8 14 5.3 44.2-15.5 37.3m-30.3-38.8 14.3 7.3M820.8 883l19.2-23c20.8-25 50 12 35 30l-19.5 23.4m10.6 12.8 25.9-16.7c27.4-17.6 44.1 26.4 24.4 39.1l-25.6 16.5m6.6 14.3 29-7.2c31.6-7.9 33.3 39.2 10.6 44.9l-26.7 6.6m2.5 18.7 26.8.8c32.5 1 21.4 46.7-2 46l-25.5-.7m-3.7 21.2 25.3 6.2c31.7 7.7 11.3 50.2-11.5 44.6l-28.3-6.9m-5.5 11.4 23.1 17.7c19.3 14.7 4.4 35.4-12.1 39.2m-68.8-416c8.3 11.2 11.7 25.6 5 37.8 34-40.8 81.5 19.6 57 49 44.7-28.8 72 43 39.8 63.7 51.5-12.8 54.3 64 17.2 73.2 53 1.6 35 76.2-3.2 75.1 51.6 12.6 18.4 81.9-18.8 72.8 29.4 22.5 10 53.7-14.8 62.6M0 27.1 105 155v468.2M0 102l60 73v479.4m45.5-433.5C172 161 153.1 122.5 150 80c151.2 128.8 109.8 254.8 15 380-.7-59.3-8.2-112.8-60.5-127.8M153.1 104c22.3 29 47.5 56.3 1.9 126 20.2 7.9 40.5 13.7 60 35-15.9 24.3-37.6 33.2-60 40 17.3 36.9 52.2 61.3 10 140m921 240.6c1.8-14.8 5.2-42.1 9-45.6 5.2-4.8 44.3-54.3 50-60 5-5 35-10 40-10s26.7 9.5 30 25c9.6 45.3-10.2 75.4-35 10-10 10-15 10-30 10 42.7 33.9 28.9 60.2-15 80m54.8-125.2A85 85 0 0 1 1205 555c30.7-24 77-7.6 30 30-6.9 5.5-13.3 9.6-19 12.4m15-9.2c37.4-11.4 66.8 9.2 8.4 42.2-55.6 31.5-78.1 13.1-54.4-13m53 13.5c34.4-2.6 54.8 18.5-2.5 38.3-60 20.7-77-1.9-43.8-22.4m45.8 21.8c34.1-2 55.9 22.6.3 36.4-57.1 14.2-68.3-12.3-31.5-28.4m-28.5 76.7c22.3-6.9 50.6-32 53.3-46.6m-62.5-34.1c4.9 19.3-16 43.7-18.6 42.4m-135-250c-5 40 35 55 75 25 53.8-40.4 157-42 105 65-10-35-72.8-22.1-115 5-70 45-135-65-65-95v0m0 0c-45.5 52.7 14.2 102 90 50 74.3-51 112.5 23.7 90 40l-5 15m-16.2-104.7c8.7 16 15.2 32 16.3 48.4m-39.7-48.4c9.9 11.2 17.9 23 22.3 35.9m-62.8-23.2a145 145 0 0 1 24.7 22.4m-58.2-1.8c13 2.5 25 6.2 35.6 12.1m-63-4.7a114 114 0 0 1 25.1 25m-54.3-39.7a139.4 139.4 0 0 1 14.7 45.3M1165 534c5.6-10 4.3-21.8 0-35.1m-23 36.6c4.6-10.1 3.3-22.6 0-37.1m-40.9 50c4.7-8.8 5.3-20.2 4.5-33.4m-53.3 55.5c7.1-8.5 10.1-21 12.3-36.1m-60 18.1a69 69 0 0 0 18.6-18.8m-216-386.6c5.7 18.2 12.8 42 12.8 47.9 0 11.2-5 13.1-5 20 0 5 40 70 40 90s-20 20-25 20 0 20 0 25-5 15-5 15 5 8 5 15c0 15-30 15-30 15s5 15 5 20 20 0 20 25c0 10-30 35-40 35s-20-10-30-10-25 10-35 10-61-20.5-80-30c-10-5-8.6-20-25.6-26.6-10.4-4-21.7-19.2-30.5-36M800 295c-39 3.5-15.8 40.3 20 15 8.2-5.8 0 5 0 5-9 0-18 4.7-25 4m-47 47c20-2.6 42.8-23.9 48-29 4-4 15 4.3 14 10-19.8 10.3-48 21.6-62 19m36 8c14.1-2.2 28.1-.8 41-10M687 224c2 3.5 65.7-38.8 77-43 13.9-5.1 26.6 6.7 26 6l2 11s-16.4-11.9-25-9c-9 3-79 40.1-80 35v0m28 21c33.3-2.2 60.2-31.5 87-30m-57 21.8c-12.5 28.4 40.7 7.8 58 17.2m17 236-24.9-18.7M366.4 156.1C314.6 278.5 384 375 320 480c-9.5 15.7-50 25-55 0-8.8-44.1 50.2-27.9 35-10m88.8-319.8C331 274.7 395.8 368.4 340 480c-20 40-91.2 51-95 5-6.7-79.7 95-60 75-5m91.7-335.8C349 271.7 416.7 366.6 360 480a68.4 68.4 0 0 1-67.6 34.3m141.7-375c-67.4 130-1.7 225.9-59.1 340.7a45.7 45.7 0 0 1-38.5 26m119.8-371c-71 131.6-3.3 219-61.3 335-12.3 24.7-36.5 39-60 35m143.3-373.6C404 264.7 473.6 348 415 465c-11.9 23.7-30 33.2-52.3 30.4M500.3 128C422.8 263.3 494 346.9 435 465c-12.3 24.7-26.5 29-50 25m136.7-364.4C442 262.3 514.4 346.2 455 465c-12.3 24.7-31.5 29-55 25m143-366.7c-81.8 137.9-8.3 212.2-68 331.7-12.3 24.7-26.5 34-50 30m139-363.3C480.6 260.6 555 330 495 450c-12.3 24.7-26.5 34-50 30m139.6-359.3C500.2 260.2 575 324.7 515 445c-10.4 20.7-18.5 27-34.7 26.2M605 120c-85 140-9.8 189.6-70 310-9.2 18.4-16.7 28.3-29.6 30.4M625 120c-85 140-9.8 179.6-70 300a36.8 36.8 0 0 1-25.7 20.7m115.3-320C560.2 260 640.1 269.6 580 390c-7.4 14.9-13.7 22.4-22.7 25M335.6 138.3C473.6 99.8 648 69.1 842 121.8M199.6 0l156.1 158.9C484.2 122 658.6 97.9 815 150L960.5 0"/></symbol><symbol id="e" preserveAspectRatio="none" viewBox="0 0 1300 2000"><path d="M632.9 93.8c-110.6-.6-211 20.5-297.3 44.5l20.1 20.6C484.2 122 658.6 97.9 815 150l27-28a805.1 805.1 0 0 0-209.1-28.2Zm-367 418.8-3.7 2.4-6.8 22 11.1 12.9 48.8-7.5-14.8 44.4 10.3 13.2 46.4-3.9-12 51.7 11.4 12 45.5-7.5-11.9 55.6 11.4 12 44-7.4-15.2 49.6 11.1 12.8 49.2-7.6-15.3 49.8L485 830h50.7l-15.1 41.6L530 885h49.5l-7.8 17.2 21.7.4 10.7-23.5L595 865h-50.7l15.1-41.6L550 810h-51.5l16-52-11-12.9-49.2 7.6 15.3-49.8-11.2-12.8-45.5 7.6 11.9-55.6-11.4-12-45.3 7.6 11.6-50.5-10.5-12.2-45 3.8 15.3-45.6-11-13-49.2 7.5 3.7-12.3zm627.3 30.6-44.7 7-8.2 12 12.7 55.3-55.2 12.8-7 13.5 21.1 50.8-50.7 21.2-5.4 13 21.6 52-42.5 25.6-3.6 13.5 20.9 37.6-43.4 34.7a10 10 0 0 0-3.8 9.9l22.8.4 43.4-34.7 2.5-12.7-20.3-36.5 41.7-25 4.1-12.4-21.1-50.8 50.7-21.2 5.4-13-20.4-49.1 53.4-12.4 7.5-12-12.5-54.5 52.5-8zM350 550a7.5 7.5 0 0 0-7.5 7.5 7.5 7.5 0 0 0 7.5 7.5 7.5 7.5 0 0 0 7.5-7.5 7.5 7.5 0 0 0-7.5-7.5zm-62.5 7.5a7.5 7.5 0 0 0-7.5 7.5 7.5 7.5 0 0 0 7.5 7.5 7.5 7.5 0 0 0 7.5-7.5 7.5 7.5 0 0 0-7.5-7.5zm605 20a7.5 7.5 0 0 0-7.5 7.5 7.5 7.5 0 0 0 7.5 7.5 7.5 7.5 0 0 0 7.5-7.5 7.5 7.5 0 0 0-7.5-7.5zM440 585l220 285c24.4-101 56.9-199.9 105-285Zm387.5 7.5a7.5 7.5 0 0 0-7.5 7.5 7.5 7.5 0 0 0 7.5 7.5 7.5 7.5 0 0 0 7.5-7.5 7.5 7.5 0 0 0-7.5-7.5zM470 600h270a879 879 0 0 0-85 240zm-137.5 7.5a7.5 7.5 0 0 0-7.5 7.5 7.5 7.5 0 0 0 7.5 7.5 7.5 7.5 0 0 0 7.5-7.5 7.5 7.5 0 0 0-7.5-7.5zm60 0a7.5 7.5 0 0 0-7.5 7.5 7.5 7.5 0 0 0 7.5 7.5 7.5 7.5 0 0 0 7.5-7.5 7.5 7.5 0 0 0-7.5-7.5zm646 43.6a798.8 798.8 0 0 0-117.3 222.4 294 294 0 0 1 .1 377.8l81 104.4c70.3-78.1 140-188.2 185.9-304.2a308 308 0 0 1-23.5-17.2 1071 1071 0 0 1-153.5 275l-48.7-63.3a320.7 320.7 0 0 0 57.2-198h30.3a3 3 0 1 0 0-6h-30.7c-.5-8-1.3-16-2.4-24h45.6a3 3 0 1 0 0-6H1016a275 275 0 0 0-4.7-24h53.7a3 3 0 1 0 0-6h-55.2c-1.8-7-3.9-14.1-6.2-21h76.4a6 6 0 0 0 4.4-1.8 380 380 0 0 1-6.3-10.2h-78.7c-2.3-6-4.8-12-7.4-18h73a6 6 0 0 0 2.6-.5l-5.9-11.5h-75.4c-3-6.1-6.2-12.1-9.7-18h76.9l-5-12h-79.1c-4-6.1-8-12.1-12.3-18h85l-3.9-12h-86.6l7.1-18h74.5l-2.9-12h-66.5c2.5-6 5.2-12 8-18h54.9l-2-12h-47.4c2.9-6 5.8-12 8.9-18h36.2c-.4-4-.8-8-1-12h-29c11.8-22 24.6-43.7 38.7-64.7 1.3-18 3.7-35.7 7.4-53.2zm-196 1.4a7.5 7.5 0 0 0-7.5 7.5 7.5 7.5 0 0 0 7.5 7.5 7.5 7.5 0 0 0 7.5-7.5 7.5 7.5 0 0 0-7.5-7.5zm-465 15a7.5 7.5 0 0 0-7.5 7.5 7.5 7.5 0 0 0 7.5 7.5 7.5 7.5 0 0 0 7.5-7.5 7.5 7.5 0 0 0-7.5-7.5zm60 0a7.5 7.5 0 0 0-7.5 7.5 7.5 7.5 0 0 0 7.5 7.5 7.5 7.5 0 0 0 7.5-7.5 7.5 7.5 0 0 0-7.5-7.5zm345 10a7.5 7.5 0 0 0-7.5 7.5 7.5 7.5 0 0 0 7.5 7.5 7.5 7.5 0 0 0 7.5-7.5 7.5 7.5 0 0 0-7.5-7.5zm-300 45a7.5 7.5 0 0 0-7.5 7.5 7.5 7.5 0 0 0 7.5 7.5 7.5 7.5 0 0 0 7.5-7.5 7.5 7.5 0 0 0-7.5-7.5zm-65 5a7.5 7.5 0 0 0-7.5 7.5 7.5 7.5 0 0 0 7.5 7.5 7.5 7.5 0 0 0 7.5-7.5 7.5 7.5 0 0 0-7.5-7.5zM805 735a7.5 7.5 0 0 0-7.5 7.5 7.5 7.5 0 0 0 7.5 7.5 7.5 7.5 0 0 0 7.5-7.5 7.5 7.5 0 0 0-7.5-7.5zm-55 30a7.5 7.5 0 0 0-7.5 7.5 7.5 7.5 0 0 0 7.5 7.5 7.5 7.5 0 0 0 7.5-7.5 7.5 7.5 0 0 0-7.5-7.5zm456.8 9.3c11.5 55.1 47 99.5 93.2 117.3v-49l-93.2-68.3zm-744.3 8.2a7.5 7.5 0 0 0-7.5 7.5 7.5 7.5 0 0 0 7.5 7.5 7.5 7.5 0 0 0 7.5-7.5 7.5 7.5 0 0 0-7.5-7.5zm65 0a7.5 7.5 0 0 0-7.5 7.5 7.5 7.5 0 0 0 7.5 7.5 7.5 7.5 0 0 0 7.5-7.5 7.5 7.5 0 0 0-7.5-7.5zm250 35a7.5 7.5 0 0 0-7.5 7.5 7.5 7.5 0 0 0 7.5 7.5 7.5 7.5 0 0 0 7.5-7.5 7.5 7.5 0 0 0-7.5-7.5zm-270 25a7.5 7.5 0 0 0-7.5 7.5 7.5 7.5 0 0 0 7.5 7.5 7.5 7.5 0 0 0 7.5-7.5 7.5 7.5 0 0 0-7.5-7.5zm65 0a7.5 7.5 0 0 0-7.5 7.5 7.5 7.5 0 0 0 7.5 7.5 7.5 7.5 0 0 0 7.5-7.5 7.5 7.5 0 0 0-7.5-7.5zM725 845a7.5 7.5 0 0 0-7.5 7.5 7.5 7.5 0 0 0 7.5 7.5 7.5 7.5 0 0 0 7.5-7.5 7.5 7.5 0 0 0-7.5-7.5z"/></symbol><symbol id="d" preserveAspectRatio="none" viewBox="0 0 1300 2000"><path fill="#44F" d="m1011.2 1309.3-48.7-63.3a323 323 0 0 0-12.2-383.8 782.2 782.2 0 0 1 80.8-158c-.7 10-1.1 20.4-1.1 30.8 0 123.5 53 232.7 134.4 299-37 100.9-93.3 198-153.2 275.3zM748 366c20-2.6 42.8-23.9 48-29 4-4 15 4.3 14 10-19.8 10.3-48 21.6-62 19m-61-142c2 3.5 65.7-38.8 77-43 13.9-5.1 26.6 6.7 26 6l2 11s-16.4-11.9-25-9c-9 3-79 40.1-80 35zm101 9.5a8.5 15.5 0 0 1-8.5 15.5 8.5 15.5 0 0 1-8.5-15.5 8.5 15.5 0 0 1 8.5-15.5 8.5 15.5 0 0 1 8.5 15.5z"/></symbol><symbol id="c" preserveAspectRatio="none" viewBox="0 0 1300 2000"><path fill="red" d="m199.6 0 156.1 158.9C484.2 122 658.6 97.9 815 150L960.5 0h-86.3l-72.3 88.4-3-.6A896.6 896.6 0 0 0 695.7 73l-5-.4L697.5 0H630l-.1 71h-5c-38.9 0-76.4 2.7-112.5 7.1l-4.6.6-15-78.7h-77.5l32.9 88.3-5.8 1c-29 5.5-56.4 11.9-82.6 18.6l-3.4.9L284 0ZM296 0l64.8 97.4c23.5-6 48.2-11.7 74-16.7L404.5 0Zm207 0 12.9 67.7c33.4-4 68.1-6.5 104-6.6V0Zm204.6 0-6 63.5c31.4 3 63.6 7.4 96.4 14L861.3 0ZM0 102v594.5l60-42.1V175Zm434.9 426.8c-6.2 0-12.3 3.6-5.3 10.9a7.5 7.5 0 0 1 5.3-2.2 7.5 7.5 0 0 1 5.3 2.2c7-7.3.9-11-5.3-11zm5.3 10.9-.3.3.3-.3zm0 0a7.5 7.5 0 0 1 2.2 5.3 7.5 7.5 0 0 1-2.2 5.3c14.6 14 14.6-24.6 0-10.6zm0 10.6-.3-.3.3.3zm0 0a7.5 7.5 0 0 1-5.3 2.2 7.5 7.5 0 0 1-5.3-2.2c-14 14.6 24.6 14.6 10.6 0zm-10.6 0 .3-.3-.3.3zm0 0a7.5 7.5 0 0 1-2.2-5.3 7.5 7.5 0 0 1 2.2-5.3c-14.6-14-14.6 24.6 0 10.6zm0-10.6.3.3-.3-.3zm71.8-11c-6.2 0-12.3 3.7-5.3 11a7.5 7.5 0 0 1 5.3-2.2 7.5 7.5 0 0 1 5.3 2.2c7-7.3.9-11-5.3-11zm5.3 11-.3.3.3-.3zm0 0a7.5 7.5 0 0 1 2.2 5.3 7.5 7.5 0 0 1-2.2 5.3c14.6 14 14.6-24.6 0-10.6zm0 10.6-.3-.3.3.3zm0 0a7.5 7.5 0 0 1-5.3 2.2 7.5 7.5 0 0 1-5.3-2.2c-14 14.6 24.6 14.6 10.6 0zm-10.6 0 .3-.3-.3.3zm0 0a7.5 7.5 0 0 1-2.2-5.3 7.5 7.5 0 0 1 2.2-5.3c-14.6-14-14.6 24.6 0 10.6zm0-10.6.3.3-.3-.3zm71.8-11c-6.2 0-12.3 3.7-5.3 11a7.5 7.5 0 0 1 5.3-2.2 7.5 7.5 0 0 1 5.3 2.2c7-7.3.9-11-5.3-11zm5.3 11-.3.3.3-.3zm0 0a7.5 7.5 0 0 1 2.2 5.3 7.5 7.5 0 0 1-2.2 5.3c14.6 14 14.6-24.6 0-10.6zm0 10.6-.3-.3.3.3zm0 0a7.5 7.5 0 0 1-5.3 2.2 7.5 7.5 0 0 1-5.3-2.2c-14 14.6 24.6 14.6 10.6 0zm-10.6 0 .3-.3-.3.3zm0 0a7.5 7.5 0 0 1-2.2-5.3 7.5 7.5 0 0 1 2.2-5.3c-14.6-14-14.6 24.6 0 10.6zm0-10.6.3.3-.3-.3zm71.8-11c-6.2 0-12.3 3.7-5.3 11a7.5 7.5 0 0 1 5.3-2.2 7.5 7.5 0 0 1 5.3 2.2c7-7.3.9-11-5.3-11zm5.3 11-.3.3.3-.3zm0 0a7.5 7.5 0 0 1 2.2 5.3 7.5 7.5 0 0 1-2.2 5.3c14.6 14 14.6-24.6 0-10.6zm0 10.6-.3-.3.3.3zm0 0a7.5 7.5 0 0 1-5.3 2.2 7.5 7.5 0 0 1-5.3-2.2c-14 14.6 24.6 14.6 10.6 0zm-10.6 0 .3-.3-.3.3zm0 0a7.5 7.5 0 0 1-2.2-5.3 7.5 7.5 0 0 1 2.2-5.3c-14.6-14-14.6 24.6 0 10.6zm0-10.6.3.3-.3-.3zm71.8-11c-6.1 0-12.3 3.7-5.3 11a7.5 7.5 0 0 1 5.3-2.2 7.5 7.5 0 0 1 5.3 2.2c7-7.3.9-11-5.3-11zm5.3 11-.3.3.3-.3zm0 0a7.5 7.5 0 0 1 2.2 5.3 7.5 7.5 0 0 1-2.2 5.3c14.6 14 14.6-24.6 0-10.6zm0 10.6-.3-.3.3.3zm0 0a7.5 7.5 0 0 1-5.3 2.2 7.5 7.5 0 0 1-5.3-2.2c-14 14.6 24.6 14.6 10.6 0zm-10.6 0 .3-.3-.3.3zm0 0a7.5 7.5 0 0 1-2.2-5.3 7.5 7.5 0 0 1 2.2-5.3c-14.6-14-14.6 24.6 0 10.6zm0-10.6.3.3-.3-.3zm71.8-11c-6.1 0-12.3 3.7-5.3 11a7.5 7.5 0 0 1 5.3-2.2 7.5 7.5 0 0 1 5.3 2.2c7-7.3.9-11-5.3-11zm5.3 11-.3.3.3-.3zm0 0a7.5 7.5 0 0 1 2.2 5.3 7.5 7.5 0 0 1-2.2 5.3c14.6 14 14.6-24.6 0-10.6zm0 10.6-.3-.3.3.3zm0 0a7.5 7.5 0 0 1-5.3 2.2 7.5 7.5 0 0 1-5.3-2.2c-14 14.6 24.6 14.6 10.6 0zm-10.6 0 .3-.3-.3.3zm0 0a7.5 7.5 0 0 1-2.2-5.3 7.5 7.5 0 0 1 2.2-5.3c-14.6-14-14.6 24.6 0 10.6zm0-10.6.3.3-.3-.3zM470 600l185 240a879 879 0 0 1 85-240zm680.8 133v2c0 106.3 63.7 195.4 149.2 219v-62.4c-46.1-17.8-81.7-62.2-93.4-117.4zM855.3 851.6c-5 0-10.4 2.5-15.3 8.4l-19.2 23 34.7 30.4L875 890c11.5-13.8-3-38.7-19.7-38.4zm48.7 53.8a24 24 0 0 0-12 4.1l-25.9 16.7 24.7 38.9 25.6-16.5C933 938 923.7 905 904 905.4zM802.6 907v11.3a3 3 0 0 0-2.6-1.3 3 3 0 0 0-3 3v20a3 3 0 0 0 5.3 2l-.3 44c42.3 39.7 28.6 85 15.5 130l36.4 47.3a189 189 0 0 0 29.1-100.9c0-63.8-31.6-120.4-80.4-155.5zM500 917a3 3 0 0 0-3 3v20a3 3 0 1 0 6 0v-20a3 3 0 0 0-3-3zm15 0a3 3 0 0 0-3 3v20a3 3 0 1 0 6 0v-20a3 3 0 0 0-3-3zm15 0a3 3 0 0 0-3 3v20a3 3 0 1 0 6 0v-20a3 3 0 0 0-3-3zm15 0a3 3 0 0 0-3 3v20a3 3 0 1 0 6 0v-20a3 3 0 0 0-3-3zm15 0a3 3 0 0 0-3 3v20a3 3 0 1 0 6 0v-20a3 3 0 0 0-3-3zm15 0a3 3 0 0 0-3 3v20a3 3 0 1 0 6 0v-20a3 3 0 0 0-3-3zm15 0a3 3 0 0 0-3 3v20a3 3 0 1 0 6 0v-20a3 3 0 0 0-3-3zm15 0a3 3 0 0 0-3 3v20a3 3 0 1 0 6 0v-20a3 3 0 0 0-3-3zm15 0a3 3 0 0 0-3 3v20a3 3 0 1 0 6 0v-20a3 3 0 0 0-3-3zm15 0a3 3 0 0 0-3 3v20a3 3 0 1 0 6 0v-20a3 3 0 0 0-3-3zm15 0a3 3 0 0 0-3 3v20a3 3 0 1 0 6 0v-20a3 3 0 0 0-3-3zm15 0a3 3 0 0 0-3 3v20a3 3 0 1 0 6 0v-20a3 3 0 0 0-3-3zm15 0a3 3 0 0 0-3 3v20a3 3 0 1 0 6 0v-20a3 3 0 0 0-3-3zm15 0a3 3 0 0 0-3 3v20a3 3 0 1 0 6 0v-20a3 3 0 0 0-3-3zm15 0a3 3 0 0 0-3 3v20a3 3 0 1 0 6 0v-20a3 3 0 0 0-3-3zm15 0a3 3 0 0 0-3 3v20a3 3 0 1 0 6 0v-20a3 3 0 0 0-3-3zm15 0a3 3 0 0 0-3 3v20a3 3 0 1 0 6 0v-20a3 3 0 0 0-3-3zm15 0a3 3 0 0 0-3 3v20a3 3 0 1 0 6 0v-20a3 3 0 0 0-3-3zm15 0a3 3 0 0 0-3 3v20a3 3 0 1 0 6 0v-20a3 3 0 0 0-3-3zm15 0a3 3 0 0 0-3 3v20a3 3 0 1 0 6 0v-20a3 3 0 0 0-3-3zm148.3 54.3c-2.1 0-4.4.3-6.9.9l-29 7.2 12.9 44.3 26.7-6.6c21-5.3 21.1-45.7-3.7-45.8zm-20.5 71.1-.7 46.1 25.5.7c23.4.7 34.5-45 2-46zm-4.4 67.3-14.5 44 28.3 6.8c22.8 5.6 43.2-36.9 11.5-44.6zm-20 55.3-15 24 26 33c16.5-3.9 31.4-24.6 12.1-39.3z"/></symbol><symbol id="b" preserveAspectRatio="none" viewBox="0 0 1300 2000"><path fill="#FC4" d="M0 27.2V102l60 73v479.4l45-31.2V332.3c47.5 14 57.7 60 59.8 112.9 42.4-78.9 7.5-103.3-9.8-140.2 22.4-6.8 44.1-15.7 60-40-19.5-21.3-39.8-27.1-60-35 45.6-69.7 20.4-97-2-126 4.2 33.8 6.3 68.4-47.5 116.9l-.5 59.8V155ZM616.3 120a953 953 0 0 0-250.1 36c-51.6 122.5 17.7 219-46.2 324 20-55-81.7-74.7-75 5 1.6 19.4 15.2 28.7 32 29.9a49 49 0 0 1-11.6-1.7l-45 31L0 696.2v30l235.5-162.4-14.7-19 276.7 357.7V920h305v-17.5c28.5-117.2 72.5-223.8 145-319l-104-76.1a550 550 0 0 0-50.7 65.8l2-3.2H410.4L360 505h-21.8c7-2 14.3-4.4 21.8-6.8l11.5-1.8L360 505l11.7 15h459.6l12.2-12.6L820 490H412.9c34.9-6 68.5-14.1 95.9-32.4 7.3-5 12.8-12.5 20.6-17.2 11.3-6.8 22.2-13.5 28.3-25.4l-25.6 9.6 25.2-9.5c9-2.7 15.3-10.2 22.7-25.1 60.1-120.2-19.8-130 64.4-269.4-9.4-.4-18.7-.6-28-.6zm547.2 344.6c-24-.2-52.5 9.6-73.5 25.4-40 30-80 15-75-25-70 30-5 140 65 95 42.2-27.1 105-40 115-5 31.7-65.2 5.8-90.1-31.5-90.4zm-868.4 48.7-2.7 1-8.1.6c3.5-.2 7.2-.7 10.8-1.6zm497.5 60.2c-65.2 98.9-96.9 213.1-125.2 329L413.4 574l9.2 10.9H785Zm226.8 63.7A774.8 774.8 0 0 0 900 850l21.5 23.4a791 791 0 0 1 116.9-222 421.7 421.7 0 0 0-8.3 83.5c0 136.6 64.8 255.7 160.7 318.3l-2.6-1.6c-45.7 115.8-115.5 225.9-185.6 304.3l13.8 17.5c72.5-76 146.5-187.8 195.9-307l-6.3-4a282.6 282.6 0 0 0 94.1 33.8v-18.5c-143.5-19.1-255-163.6-255-339 0-26.6 2.6-52.4 7.4-77.2l-14-10.2.3-.4zm88.4 64.6 17.8 13.2c-.4 6.6-.7 13.3-.7 20 0 123 75.1 225.6 175.1 249.7v-30.8c-85.5-23.5-149.2-112.6-149.2-218.9v-2zm-20.2 13.2c-11-.2-20.8 7.2-14.3 26.1-44.5-8.7-25.6 58.7 7.3 29.1 7.5 43.4 68.5-5 20.6-20.6 18.9-19.5 1.5-34.3-13.6-34.6zm-255 86.6-30 105.4c48.8 35 80.4 91.7 80.4 155.5a189 189 0 0 1-29 101l67.2 87.7a293 293 0 0 0 68.8-188.7 296.7 296.7 0 0 0-157.4-261Zm276.7 19.5c-13 0-25.2 9.4-13.3 29-45.3 1-12.4 62.7 13.3 26.9 16.6 40.7 66-19.6 15.7-24.6 12.8-20.6-1.8-31.3-15.7-31.3zm59.9 95.6c-15.4.1-32.2 14.6-11.8 32.8-43 14.1 6.5 63.6 20.6 21.8 27.8 34.1 57.4-38 8-28 5-19.3-5.6-26.7-16.8-26.6zm92.3 75.4c-17.2-.4-37.6 22.8-8.6 36-36.8 26.3 25.2 58.7 26.2 14.5 8.8 5.8 15.8 5.8 20.9 2.7V1010c-5-2.2-12.2-1.8-21.8 3.5-.7-15.4-8.3-21.3-16.7-21.4z"/></symbol><path id="i" d="M-82.4-130.4H82.4v260.8H-82.4z"/></defs><rect width="239" height="335" x="-119.5" y="-167.5" fill="#fff" stroke="#000" rx="12" ry="12"/><use xlink:href="#b" width="164.8" height="260.8" x="-82.4" y="-130.4"/><use xlink:href="#b" width="164.8" height="260.8" x="-82.4" y="-130.4" transform="rotate(180)"/><use xlink:href="#c" width="164.8" height="260.8" x="-82.4" y="-130.4"/><use xlink:href="#c" width="164.8" height="260.8" x="-82.4" y="-130.4" transform="rotate(180)"/><use xlink:href="#d" width="164.8" height="260.8" x="-82.4" y="-130.4"/><use xlink:href="#d" width="164.8" height="260.8" x="-82.4" y="-130.4" transform="rotate(180)"/><use xlink:href="#e" width="164.8" height="260.8" x="-82.4" y="-130.4"/><use xlink:href="#e" width="164.8" height="260.8" x="-82.4" y="-130.4" transform="rotate(180)"/><use xlink:href="#f" width="164.8" height="260.8" x="-82.4" y="-130.4"/><use xlink:href="#f" width="164.8" height="260.8" x="-82.4" y="-130.4" transform="rotate(180)"/><use xlink:href="#g" width="164.8" height="260.8" x="-82.4" y="-130.4"/><use xlink:href="#g" width="164.8" height="260.8" x="-82.4" y="-130.4" transform="rotate(180)"/><use xlink:href="#h" width="32" height="32" x="-114.4" y="-156"/><use xlink:href="#a" width="26.8" height="26.8" x="-111.8" y="-119"/><use xlink:href="#a" width="55.7" height="55.7" x="34" y="-132.2"/><g transform="rotate(180)"><use xlink:href="#h" width="32" height="32" x="-114.4" y="-156"/><use xlink:href="#a" width="26.8" height="26.8" x="-111.8" y="-119"/><use xlink:href="#a" width="55.7" height="55.7" x="34" y="-132.2"/></g><use xlink:href="#i" fill="none" stroke="#44F"/></svg>