<svg xmlns="http://www.w3.org/2000/svg" xmlns:xlink="http://www.w3.org/1999/xlink" width="240" height="336" class="card" preserveAspectRatio="none" viewBox="-120 -168 240 336"><defs><symbol id="h" preserveAspectRatio="xMinYMid" viewBox="-500 -500 1000 1000"><path fill="none" stroke="#000" stroke-linecap="square" stroke-miterlimit="1.5" stroke-width="80" d="M-285-460h200m-100 0v920m-100 0h200M85-460h200m-100 20-355 595M85 460h200m-100-20L-10-70"/></symbol><symbol id="a" preserveAspectRatio="xMinYMid" viewBox="-600 -600 1200 1200"><path d="M0-500c100 250 355 400 355 685a150 150 0 0 1-300 0 10 10 0 0 0-20 0c0 200 50 215 95 315h-260c45-100 95-115 95-315a10 10 0 0 0-20 0 150 150 0 0 1-300 0c0-285 255-435 355-685Z"/></symbol><symbol id="g" preserveAspectRatio="none" viewBox="0 0 1300 2000"><path fill="none" stroke="#44F" stroke-linecap="round" stroke-linejoin="round" stroke-width="3" d="M1212.6 936.7c.4 7.1 3 10.2 6.5 11.4m-4.1 25.2c3.6 8.6 9.2 17.5 0 25m-5 9.5c3.6 8.7 9.2 17.6 0 25m.5 12.5c3.6 8.7 9.2 17.6 0 25m34.5-92c2.8 6.4 1.2 10.6 0 15m7.4-50.4c2.8 6.3 1.2 10.5 0 15m-10.2 54.5c2.8 6.4 1.2 10.6 0 15m-1.6 20.9c2.8 6.4 1.2 10.6 0 15m-13.5-119c3.5 8.7 9.2 17.6 0 25m12.9-452.7v-5.3m0 139.9V516.6m0 154.2v-19.6m0 120.3V670.8m0 186.9v-25m10 48.7v-75.5m-10 75v-23.2m10-65.7V153.3m-10 358v-368m30 737.8V173.3m-10 708.4V163.3m-30 160.4V133.3m0 330v-69.4m0 222.8V559m0 175.4V616.7m0 130.5v-12.8m-10-515.2v-33M725 325c6.6 1 35-45 60-45s35 10 40 20m-79.5 32.8c10.7 8.5 21 17 34.8 16.9 18.4-.2 36.8-7.7 45.6-18m65.5-15c10 0 30-30 45-30s30 10 35 15m0 30c-15.3 12.2-33.9 13-55 5M814.6 302c.5 2.2.8 4.5.8 7 0 12.3-7.8 22.4-17.5 22.4s-17.5-10-17.5-22.5c0-4 .8-7.9 2.3-11.1m172 4.4c1.1 3 1.7 6.2 1.7 9.7 0 12.4-7.8 22.5-17.5 22.5-9.6 0-17.5-10.1-17.5-22.5 0-3.2.5-6.2 1.5-8.9"/><use xlink:href="#a" width="90" height="90" transform="rotate(-10 3622.5 -2297.8)"/><use xlink:href="#a" width="90" height="90" transform="translate(479.2 711.2)"/><use xlink:href="#a" width="90" height="90" transform="rotate(20 -1271.5 2673.5)"/><use xlink:href="#a" width="90" height="90" transform="rotate(20 -1612.2 2603)"/></symbol><symbol id="f" preserveAspectRatio="none" viewBox="0 0 1300 2000"><path fill="none" stroke="#44F" stroke-linecap="round" stroke-linejoin="round" stroke-width="6" d="M1111.8 709.4c-15.1 28.5-58-21-94.1-10m41-68.3c7.2 37 71.1 51.5 53.1 78.3-33.8 4-57.3-19-79.2-46.3 35.4 3.6 67 12.3 79.2 46.3m-53.2-78.3c-5.8 12.3-11.9 24.7-.7 34.8m-40.2 33.6c5.5-18 16.5-20.1 30.5-17.8m106.8-46.5c-16.3 27.9-57.1-23.4-93.7-13.7m43.7-66.7c5.7 37.3 69 54.3 50 80.4-33.9 2.7-56.5-21.3-77.3-49.5 35.3 5.1 66.5 15 77.3 49.5m-50-80.4c-6.3 12-13 24.2-2 34.8m-41.7 31.9c6.2-17.8 17.7-19.4 31.6-16.5m-14.3 172.5c-10.1 30.6-60.7-11.2-94.4 5.8m29-74.2c13.3 35.3 78.8 39 65.4 68.4-32.6 9.6-59.6-9.3-85.7-32.5 35.5-2.3 68.1 1 85.7 32.5m-65.4-68.4c-3.7 13.1-7.7 26.3 5.1 34.5m-34.1 39.7c2.4-18.7 13.3-22.5 27.4-22.5m36.6 94.3c-8.8 31.1-61.2-8.4-94.1 10m25.7-75.4c14.8 34.7 80.4 35.4 68.4 65.4-32.2 11-60-6.6-87.2-28.6 35.5-3.9 68.2-2 87.2 28.6m-68.4-65.4c-3.1 13.3-6.5 26.7 6.6 34.3m-32.3 41.2c1.6-18.8 12.6-22.3 26.8-22.9M1110.4 706l4.3-7.4m-6.4 11 2-3.6m-6 10.9 4-7.3m-28.7 56.3a686.5 686.5 0 0 1 24.6-49m-28 56.7a639 639 0 0 1 3.4-7.7m-5.6 12.7 2.1-5m-5.7 13.6 3.6-8.6m-24.6 68.9a577 577 0 0 1 21-60.3m-23 67 2-6.7m-2.3 8 .4-1.3m-1.7 6.2 1.3-5m-13.3 61.6c3-18.8 7-37.7 12-56.6m-61.3.2a672 672 0 0 0-6.1 28.3m31.3-109.5a685 685 0 0 0-11 31.2m46.8-110.2c-5.3 10-10.2 20-15 30m60.3-106.2c-6.7 10-13 20-19.1 30m65.2-94-7.7 10.2-8.8 11.6m-14.3 102a877.2 877.2 0 0 1 26.7-41.8M1069 753.6a706 706 0 0 1 18.5-37m-49 115.7c4.6-14.5 9.7-29.1 15.6-43.9m-34.2 122c2.4-14.2 5.4-28.6 9-42.9m-66.5-39.9c-4.2 15-8 30-11.1 44.9m11.5-46.2-.4 1.3M1079.3 588c-57.7 82.5-94.4 161.3-116.5 238.4m117.6-240-1.1 1.6m28.8-39.3-2.8 3.6c-8.7 11.4-17 22.8-24.9 34m62.3 16.2c3.4-4.6 6.8-9.2 10.4-13.8l12.3-16.2M1094.6 674a887.5 887.5 0 0 1 24-37.5m-62.4 109.3a692 692 0 0 1 17.2-34.5m-48 113.6c4-13.1 8.7-26.3 14-39.6m-33.5 118.3c2.3-12.7 5-25.4 8-38m-44.6-5c-1.7 6.7-3.2 13.5-4.5 20.3m10.4-43.6-1.6 5.8m7-24.3a685 685 0 0 0-2 6.4m15-45c-2.5 6.7-4.9 13.3-7 20m17.1-46-3.1 7.8m10.8-25.6-3.5 8m22-46.5c-3.7 7.2-7.2 14.4-10.7 21.6m23.2-44.7-3.5 6.2m13.4-23.5-4.5 7.6m27.5-44.6a691 691 0 0 0-13 20.5m26.7-40.9-2.7 4m13.2-18.8-2.9 4m26-35-5.3 7-6.5 8.6m20.6 22.6 9.7-13 10-13.2m-68.3 98.3c7-11.4 14.3-23 22.1-34.6m-61.7 108.5c5.1-11 10.6-22 16.5-33m-47.8 112.7c3.8-12 8.1-24.2 12.8-36.4m-32.6 114.7a655 655 0 0 1 7.2-33.7m-541-674.9c209.7-32.2 382-32.3 551.3-14M493 258.6a1955.7 1955.7 0 0 1 491-12M480 230c194.3-28.7 354.6-29 512.8-12.7M332.7.4c88.1 119.5 127.8 183 160.4 258.3M1112.6.7c-91.9 132.4-110.8 184.1-128.8 246m-181.7-84.9c-19-17.3-31-41.6-32.1-76.8-40.2-7-49.1-42-55-80-5.9 38-14.8 73-55 80-1.2 40.2-16.7 66.2-40.6 83.8m44.4-3.2a136 136 0 0 0 24-58.5 89.8 89.8 0 0 0 27.2-20 90 90 0 0 0 27.1 20c3.5 20.9 11 39.3 21.5 54.7m-235.2 16.4c-43.1-18-43.3-52-58.4-83.2-40.6 3.4-92.3-51.6-135.2-95.2M407 105.2a118 118 0 0 0 42 18.3c4 11.5 8.5 25 17.4 39.8a95.8 95.8 0 0 0 17.3 21m438-18c31-13.6 48.2-41.1 43.3-91.3 97.2-16.9 106.5-48.6 146.9-75m-144 170c1.3-1.2 2.5-2.6 3.7-4a110.8 110.8 0 0 0 24-66.7c29.4-7 51.5-16 68.7-25.8M875 .2c-9.7 74.5-79.3 70.2-82.7 120-3.1 44.9 67 49.3 69.8 4.4 2-30.4-38-32.5-39.9-2.5-1 15 24 16.5 25 1.5M875 .2c.3 75.1 69.8 79.6 67 129.4-2.6 45-72.7 40.5-69.9-4.4 2-30.3 41.8-27.4 40 2.5-1 15-26 13.4-25-1.5M559.8 13.3c3.9 75-57.4 81.9-52.2 131.6a31 31 0 0 0 61.5-6.8c-3.3-30.3-38.4-26-35.1 3.9 1.6 14.9 23.6 12.4 22-2.5m3.8-126.2c12.6 74.1 73.9 67.4 79.6 117a31 31 0 0 1-61.5 6.8c-3.3-30.2 31.9-33.7 35.2-3.9 1.6 15-20.3 17.4-22 2.5M828 809.8c-150 52.7-227 59.7-340.3-11.4m11 108a352.7 352.7 0 0 0 129.8 33.7c59.6 3.1 116.4-8.8 179.4-28.6m-315.2-75.3c47.6 27 92 41.5 139 44 57 3 115.2-11 188-35.7m-80.1 116.2c21.3-4.4 42.7-10 64.6-16.6M500 939.8a408 408 0 0 0 61 20.4m84.2-110c-10.7-116.5-36.3-227.4-66-333.4m148.6 74.9a1077.3 1077.3 0 0 0-69.3 199m93.8-204.5a1046 1046 0 0 0-85.9 263.5m140.3-283.3c-49 93.2-80.8 186.2-98.7 277.8m121-277.5a989 989 0 0 0-99.9 273m-70.6-49.2A2003.5 2003.5 0 0 0 599.6 516m5 330.7c-11-112.4-36.3-220.5-65.6-324.6m45 320.2c-11.3-109.7-36.2-215.6-65.2-318.2m478.9 944C951.4 1311 916 1159.7 920 1013.2c4-153 46.2-303.1 173.4-470m-125.5 930c-46.1-157-82-310.1-78-460.8 4.2-156.2 47.8-311.4 174.2-480.2m-141.4 50.7c-177.3 304.5-133 592.5-53.4 873.3m29.7-5.3c-41.4-146-73-292.3-69-440.1 3.7-137.3 37.1-276.2 122.8-420.3m-14.6 273.2c40.7 29 103.6 60.2 192.8 93.7m-16.3-258.8c17.4-29.6 38-60 62.2-91.9l3.1-4m-26.6 10.5 11.6-15.5 14.4-19m-103.2 357c11.5-83.2 40-163.5 103.7-256.7m-132 244.5c14.5-94.8 51-187.4 132-296m-160.4-111.1a1734 1734 0 0 1 160.6 62.5M-.3 645.2c78.2-52.8 250-114.1 377.2-123.9m549 620.1c55.9 31.7 94.1 95.3 94.1 168.6 0 42.7-13 82-34.8 113.7m10 35.7A228.3 228.3 0 0 0 1050 1310c0-91-52.3-170.7-127.5-203.7m209.3 326c15-38.2 23.2-79.6 23.2-122.3 0-147-97.2-279-234.2-315.2m173 449.6c20-40.8 31.2-86.6 31.2-134.4 0-131.7-85-249.2-205.1-284.3m156.3-90c4.3 166.3 90.3 322.1 168.8 449.9m-7.1-244.1c14.7 31.9 43.3 80.8 64 116M675 1000a25 20 0 0 0-25-20 25 20 0 0 0-25 20 25 20 0 0 0 25 20 25 20 0 0 0 25-20v0m20 30c75 75 75-135 0-60m30 60s5-5 5-10-5-10-5-20 5-15 5-20-5-10-5-10m-120 60c-75 75-75-135 0-60m-30 60s-5-5-5-10 5-10 5-20-5-15-5-20 5-10 5-10m45 20c-65-65 125-65 60 0m-60-30s5-5 10-5 10 5 20 5 15-5 20-5 10 5 10 5m-60 50c-65 65 125 65 60 0m-60 30s5 5 10 5 10-5 20-5 15 5 20 5 10-5 10-5m-87-80h14.1m-14.1 80h14.1m-106.8-80H561m-61 20h51m-51.6 20h49.3m-50.2 20H551m-54 20h64m579-106.7c-5-5-12.3-28.7 15-30 29.5-1.4 55.5 25 85 25 17.4 0 45-15 45-15-.2-10.8 7.9-19.7 0-35-25 10-93-5-135-5-25 0-40 28.6-40 50 0 45 60.6 39.4 63.5 16.9 1.5-12-18.5-37-18.5-37m-23.2 52c-18.8 76.5 5.3 118.4 70.5 127.2m8.1-109.4c-29.6-1.4-25.4-9.7-25.4-9.7 2.2 29.6-8.8 47.2-25 60m6-104.3c26.4 3.5 36.8 19.3 59 19.3 2.4 0 4.7.5 6.8 1.3m-5.6 29c-20-4-13.6-24.2 16.7-33.4v0c60-18.3 71.6 11.6 22.1 28-3 1-5.8 2-8.5 2.6m-26 2c70.7-10.3 79.4 20.8 20.8 30.6-71 12-71.4-23.3-20.8-30.7v0m-4 36.5c71.1-6.7 78.2 24.8 19.3 31.7-71.5 8.4-70.1-27-19.2-31.7v0m1 35c63.3-6.7 69.6 24.8 17 31.7-63.6 8.4-62.4-27-17-31.7v0m37.4 69a37.5 35 0 0 1-37.5 35 37.5 35 0 0 1-37.5-35 37.5 35 0 0 1 37.5-35 37.5 35 0 0 1 37.5 35v0M1180 875V183.3l50-50 50 50v696.5M1000 1085a35 35 0 0 1-35 35 35 35 0 0 1-35-35 35 35 0 0 1 35-35 35 35 0 0 1 35 35v0m66.5 59.4a35 35 0 0 1-35 35 35 35 0 0 1-35-35 35 35 0 0 1 35-35 35 35 0 0 1 35 35v0m40 75.4a35 35 0 0 1-35 35 35 35 0 0 1-35-35 35 35 0 0 1 35-35 35 35 0 0 1 35 35v0m16.6 87.8a35 35 0 0 1-35 35 35 35 0 0 1-35-35 35 35 0 0 1 35-35 35 35 0 0 1 35 35v0m-10.9 82a35 35 0 0 1-35 35 35 35 0 0 1-35-35 35 35 0 0 1 35-35 35 35 0 0 1 35 35v0m-105.5 76.9a35 35 0 0 1 0-1.4 35 35 0 0 1 35-35 35 35 0 0 1 31.7 20.2m171-569.7a240 240 0 0 1-6-37c-.6-15 13.6-35.7 13.2-45.7-.4-10-21.6-39.1-22.2-54.1-.6-15 12.2-70.6 11.6-85.6-.6-15-17.2-54.3-17.8-69.3-.6-15 17.8-55.8 17-75.7-.8-20-18-74.3-18.6-89.3-.6-15 18.2-45.8 17.4-65.8-.8-20-17-49.3-17.6-64.3-.6-15 3.6-35.2 3.2-45.2-.4-10-6.4-34.8-6.8-44.7-.4-10 12.2-70.6 12.2-70.6m9.4 747.1c-1.5-6.8-5.4-25.1-5.8-37.1-.5-15 13.9-35.5 13.5-45.5-.3-10-21.3-39.3-21.8-54.3s12.7-70.5 12.2-85.5-16.8-54.4-17.3-69.4c-.5-15 18.1-55.6 17.5-75.6-.7-20-17.5-74.5-18-89.5s18.5-45.6 17.8-65.6c-.7-20-16.7-49.5-17.2-64.5s3.9-35.1 3.5-45.1c-.3-10-6.1-34.8-6.5-44.8-.3-10 12.7-70.5 12.7-70.5m50 502a783 783 0 0 1 20 12.8m-86 230.3c-1.4-8.1-4-24-4-34.8 0-15 15-35 15-45s-20-40-20-55 15-70 15-85-15-55-15-70 20-55 20-75-15-75-15-90 20-45 20-65-15-50-15-65 5-35 5-45-5-35-5-45 15-70 15-70m4.4 747.2a255 255 0 0 1-5.5-37.2c-.4-15 14-35.3 13.8-45.3-.2-10-21-39.5-21.4-54.5-.4-15 13.1-70.4 12.7-85.4-.4-15-16.5-54.5-16.9-69.5-.4-15 18.6-55.5 18-75.5-.5-20-17-74.6-17.4-89.6-.4-15 18.8-45.5 18.3-65.5s-16.3-49.6-16.7-64.6c-.4-15 4-35.1 3.8-45.1-.3-10-6-34.9-6.2-44.9-.3-10 13.1-70.3 13.1-70.3m-77.7 1134.8a2790 2790 0 0 0 75 127M1076 1094.4c-16.7-54.3-25.1-108.7-19.7-160.7l1.2-5.8m-558.2-670C416.7 411 472.8 422.9 440 500c-15 35-50 20-41.1-4.2 12.8-35.2 36.1-20.8 31.1-.8-2 8.2-14.8 13-20 10m105.5-249.2C431 410.9 485.2 421.5 455 500c-25 65-64.9 20-56-4.2m132.6-242.1C445.5 410.8 500.3 421 470 500c-25 65-111 67.5-90 0 25-80 72-58.5 67-23.5m100.6-224.7c-87.6 159-32.1 169-62.6 248.2-10.7 28-32.1 41.4-51.4 42.4m130-292.5c-89 160.8-33 170.6-63.6 250.1-10.6 27.7-31.9 39.5-51.2 38.8m130.8-290.6c-90.4 162.4-34 172-64.6 251.8-9.3 24.1-27.7 33.9-46.2 33.2m126.7-286.7C503.8 410.5 560.8 420 530 500c-8.3 21.6-23.3 30-38.7 29m120-283.9C518.6 410.5 576 419.7 545 500c-8.3 21.6-22.5 28.5-36.9 25.5m119-281.8C533.2 410.4 591 419.5 560 500c-7.4 19.3-20 25.7-33.3 23.5m116.1-281C547.8 410.4 606 419.3 575 500c-7 18.2-18.5 23.7-31.1 20.7m114.6-279.4c-96 169-37.4 177.8-68.5 258.7-6.6 17-17.7 21.4-30 17.2m114-276.9c-96.6 170-37.8 178.6-69 259.7-5.6 14.6-14.9 18.9-25.6 16m110.2-276.6C592.2 410.3 651.2 418.8 620 500c-5.6 14.7-15 18.2-25.8 14M705 239c-98 171.3-38.7 179.7-70 261-4.6 12-12.3 15.2-21.8 12.1M720 510s-5 85-40 85-35-55-5-55 20 35 0 35c-10 0-6.5-14.5 5-15m53.1-44.4c-5 45-12.3 97.5-41.1 76.2m54.3-70.5c-3 41.7-5.4 80.2-28.8 67.9m41.9-62.3c-5 35-1.2 70.5-22.8 58.6m35.9-53c-5 35 1.7 59.5-19.9 47.7m33-42c-3.5 26.8 3.7 51.4-17.8 39.6m31-34C795 565 800 580 783.1 573.5m28.7-24.1c-8.2 22.6-1.9 17.8-16 18.5M825 555c-4.6 5.9-2.7 12.5-18.7 11.5M660 467.2c1.2 18.1-5.7 54-38.1 46m50.1-37.5c6 22.6-1.3 65.5-50.1 37.5m62.1-28.9c4.1 23.5-6.5 69-46.6 35.8m58.6-27.2c-1 12.1-4 57.9-28.9 38.2m40.9-29.7c0 17.9-12.2 72-24 71.4M825 555c9.6 47.3 67 11.2 57.6-15m67.4-22.8c2.9 77.8 85.4 111.8 70 5.6-10.7-73.9-63.3-43.7-52.4 6.3 6 27.7 42.2 50 37.9 6.2-4.8-48.2-22-35.4-21.3-21.4.8 16.1 4.8 20 12 25.2m-59.7-17.3C946 572.2 959.3 602 995 590m-72-63.7c8.6 56.1 20 69 46.2 64.5M909.6 531c5.1 36.5.4 58.3 34 56.1m-47.5-51.6c3.4 26 6 42.7 23.9 44.6m-37.4-40c5 23.2 8.7 50 26.4 36m71-331s10 30 10 40-5 23-5 27.8c0 4.7 3.6 62.2 2.7 72.2-2.3 25-18.9 100.3-21.3 125.3M985 245c0 20 60.3 42.8 61.6 80 2.2 64.6-42.2 37.8-60.2 18.4m.9-73.4s41.2 35 42.7 55c2.5 33.3-30.6 17.9-44.3 9.3M990 293s23.4 11.4 25 27.1c2.6 24.5-19 15-29.4 8.8m2-26C995 305 1000 320 1000 320c1 10.7-7.6 4.8-14.6 1.6m1.1 22C987.8 380 1055 405 1055 450c0 65.5-46.1 41.9-47.6 37.5m-19.6-107.4C990 392.9 1040 425 1040 455c0 39.9-32.4 35.8-35 30m-19.2-84.2c0 10 39.2 34.2 39.2 54.2 0 27.3-27.5 24.3-32.4 23.5m-9.7-58.3c2.1 9.8 27.1 19.8 27.1 37.3 0 27.6-35 8.7-35 7.5m5-30c4.3 6.7 12.9 10 12.8 20 0 19.3-16 5.5-17 1.1M715 295s45-35 65-35 55 10 60 10c10 0 10-10 10-10l5 5s-8 10-15 10-45-10-60-10c-12.8 0-65 30-65 30v0m265-20s-25-15-35-15-30 12.8-35 12.4c-6-.5-10-2.4-15-12.4l-5 5s10 10 20 10 30-10 35-10 35 10 35 10v0m-90-10v20c0 5.3-5 10-5 15s30 100 30 105-15 20-20 20c-10 0-15.5-13.8-23.5-13.8S850 420 845 420c-16.5.3-16-24.7 0-25 5 0 10 5 10 5m5 35c-55 2.5-60.5 25-100 32.2-25.6 4.6-26.8-35.2-10-37.2 10-1.2 10 17.3 10 17.3.3 0 10-24.6-10-24-25 .8-25 52.4 6 51.3 27.4-1 59-29.6 104-29.6v-10 0m30 0v10c20 0 35.7 19.8 50 20 23.4.3 41.8-42.5 14.6-41.8-10 .3-14.6 11.8-14.6 11.8s7.2-7.7 15-8c16-.4-1.4 32.8-15 33-9.9.1-30-25-50-25v0m-80 50v7.2l5-4.3-5-2.9v0m110-5v7.7l-5-2.7 5-5v0m-105 7.9c10 2.1 22.1-13.2 34.6-13.2S859 480 869 480s10-8 20-8 15.9 13 25.9 13m-75 30c30.4 15.8 50-10 50-20M725 325c25 0 41.6-28.4 67-28.4 30 0 38 23.4 48 23.4-10 0-36.9 12-50.4 11.7-15-.3-49.6-6.7-64.6-6.7v0m166.4-8.2c25 0 21.8-17.3 47.3-17.5 25.7-.3 32.7 17.5 42.7 17.5-10 0-28.8 15.8-42.4 15.5-15-.4-32.6-15.5-47.6-15.5v0M697 586.7a1130.5 1130.5 0 0 0-30.6 74.6m.1-.1c-10.3-49-22.4-97-35.2-143.5"/></symbol><symbol id="e" preserveAspectRatio="none" viewBox="0 0 1300 2000"><path d="M781.4 206.5c-93.5.3-192 7.5-301.3 23.6l12.8 28.5a1955.7 1955.7 0 0 1 491-12l9-29.2a1998 1998 0 0 0-211.5-10.9ZM1019 516c.1 2 .5 4.3.9 6.8 6.9 47.3-5.7 66.8-22 67l-45.2.7c-85.7 144-119.1 283-122.8 420.3-4 147.8 27.6 294 69.3 440 13.4 2.3 23 11.4 24.3 27.6 14.6-1 29.4-2.7 44.4-5-46.2-157.2-82-310.3-78-461 4.1-156.2 47.8-311.4 174-480.4-14.8-5.4-29.6-10.6-44.8-16zm161 111.6c-81 108.5-117.5 201.1-132 295.9l28.3 12.2c11.5-83.2 40-163.5 103.7-256.7zM487.6 798.4l5 37.8c47.6 27 92 41.5 139 44 57 3 115.2-11 188-35.7l8.3-34.7c-150 52.7-227 59.7-340.3-11.4zm569.9 129.5-1.2 5.8c-5.4 52 3 106.4 19.7 160.7l50.6 75.8c10.4 33.1 21.6 66.6 25.7 97.7 24.4 44.7 50.3 87 73.8 125.2.8 1.3 19.5-6.5 19.5-6.5-39.2-63.6-84.8-139.1-119-216.7-35-79.3-58-160.8-50.4-234.1zM1000 992a3 3 0 1 0 0 6h46.1l-.4-6zm-5 12a6 6 0 0 0-6 7l9.2 5h50l-1.5-12zm11.6 17c9 5.6 17.6 11.6 26 18h19.3c-1.2-6-2.2-12-3-18zm33.6 24c5.4 4.4 10.7 9 15.8 13.7l-3-13.7zm234.8 64c0 4.2-.8 8.2-2 12h27v-12zm-8.6 25a47 47 0 0 1-13.2 12h46.8v-12zm-8.6 25c2 3.9 4 7.9 6.3 12h35.9v-12zm13.4 25 6.7 12h22.1v-12zm14 25 7 12h7.8v-12z"/></symbol><symbol id="d" preserveAspectRatio="none" viewBox="0 0 1300 2000"><path fill="#44F" d="M799.3 293.7a11.5 19 0 0 0-11.4 19 11.5 19 0 0 0 11.4 19 11.5 19 0 0 0 11.5-19 11.5 19 0 0 0-11.5-19zm141.4 3.9a11.5 19 0 0 0-11.4 19 11.5 19 0 0 0 11.4 19 11.5 19 0 0 0 11.5-19 11.5 19 0 0 0-11.5-19zm15.1 125.6h-1.2c-10 .3-14.6 11.8-14.6 11.8s7.2-7.7 15-8c16-.4-1.4 32.8-15 33-9.9.1-30-25-50-25v10c20 0 35.7 19.8 50 20 23 .3 41.2-41.2 15.8-41.8zm-205.8 0c-25 .9-25 52.5 6 51.4 27.4-1 59-29.6 104-29.6v-10c-55 2.5-60.5 25-100 32.2-25.6 4.6-26.8-35.2-10-37.2 10-1.2 10 17.3 10 17.3.3 0 10-24.6-10-24zm-171.4 92-39.8 6.3 5.3 18.8 19.2-5.3a15 15 0 1 1 7.9 29l-19.3 5.2 1 3.7 19.3-5a15 15 0 1 1 7.4 29l-19.3 5 1 3.8 19.5-4.7a15 15 0 1 1 7 29.2l-19.5 4.7.8 3.4 19.4-4.4a15 15 0 1 1 6.7 29.3l-19.5 4.4.8 3.5 19.7-4a15 15 0 1 1 6 29.3l-19.6 4 .7 3.7 19.7-3.7a15 15 0 1 1 5.6 29.5l-19.8 3.7 1 5.9 19.9-3.3a15 15 0 1 1 4.8 29.6l-19.8 3.3.8 5 19.9-2.8a15 15 0 1 1 4.1 29.7l-19.8 2.8.5 4 20-2.3a15 15 0 1 1 3.4 29.8l-20 2.3 1 9.1 40.5 3.6c-10.7-117.1-36.6-228.7-66.5-335ZM807 566c-2.6 1.1-6.2.5-9.4 2.4-5.5 3.3-10.8 8.8-12.8 5-5.8 10.4-13.5 8.3-17 5.8-6.4 5-7.1 5.1-13.3 2.4a1048 1048 0 0 0-88 268l27.8-3.6-6.6-1.4a15 15 0 1 1 6-29.3l19.5 4 .4-1.7-19.3-4.6a15 15 0 1 1 7-29.2l19.3 4.7.9-3.4-19.1-5.3a15 15 0 1 1 8-28.9l19 5.3 1.1-3.5-18.9-6a15 15 0 1 1 9-28.6l18.9 6 1-3-18.7-6.6a15 15 0 1 1 10-28.3l18.6 6.5 1.4-3.7-18.5-7.1a15 15 0 1 1 10.9-28l18.5 7.2 1.4-3.5-18.2-7.8a15 15 0 1 1 11.7-27.5l18.3 7.7 1.2-2.6-18-8.4a15 15 0 1 1 12.6-27.2l18 8.4c5.5-11.4 11.3-22.8 17.3-34.2zm473.1 69-.4 244.9 5.4-1.6c7.9 15.3-.2 24.2 0 35 0 0-16.4 8.8-31.9 13-4.6 1.1-9.1 2-13.1 2-29.5 0-55.5-26.4-85-25 0 0 5.7 7 10.8 15.6 26.6 3.6 37 19.4 59.2 19.4 2.4 0 4.7.5 6.8 1.3l20-7.5-.2.7c52.3-12.9 60.4 14.8 13.4 30.5l-8 2.5c45.3.3 44.3 24.2-5.7 32.6-4.8.9-9.4 1.5-13.6 1.9l.1 3.1c60.4-2.4 63.7 26 8 32.5l-2.8 2.4c48.5-.4 49.6 26.3 1.7 32.6l-3.4 4.8a35.1 35.1 0 0 1 23.7 32.6 35 35 0 0 1-26.6 33.2c14 31.1 41 77.9 61.6 112.9V647.8l-20-12.8Zm-100 43.8c-63.7 93.4-92.3 173.7-104.3 256.7 16.8 7 35.4 14.4 53.8 20a34.4 34.4 0 0 1-19.5-32.2c0-21.4 15-50 40-50 8.7 0 18.6.6 29.4 1.6zm-676.2 177-9.6 19.1 13.6 6.1-3.7 8-5-2.6c-3.5-2-6.4 3.5-2.7 5.3l10.6 5.6 8.8-19.3-13.4-6 4-8.1A377.2 377.2 0 0 0 529 874l-4.4 11-6.8 16.7 2.7 1.1a369.2 369.2 0 0 0 37 12.9l2.9.8 5.8-20.2-2.9-.8c-5-1.4-10-3-15-4.8l3-8.3a275.3 275.3 0 0 0 28.4 8.2l-2.6 11.6-4 17.6 3 .7a288 288 0 0 0 40 6.5l3 .3 2-21-3-.2a257 257 0 0 1-16.3-2.1l1.4-8.9a249.6 249.6 0 0 0 27.4 3h2.8l-.4 12-.6 18h3c6 .4 12.2.4 18.2.3 6.5.2 14.5-.8 20.2-1h3.2l-1.6-21-3 .1c-5.2.4-10.5.6-15.7.7v-9a334.1 334.1 0 0 0 32.2-2.5l1.5 12.1 2.3 17.9 3-.4a412 412 0 0 0 38.6-6.6l2.9-.6-4.4-20.6-2.9.7-15 2.9-1.7-9a379.5 379.5 0 0 0 29.2-6.2l3 11.8 4.2 17.5 2.9-.7a563.7 563.7 0 0 0 36-9.8l2.9-.9-6-20-3 .8c-4.7 1.5-9.4 2.8-14 4l-2.5-8.7a610.2 610.2 0 0 0 28.8-8.5l9.6 30.2 5.7-1.7-1.8-5.9-9.6-30.1-2.8.9a963.2 963.2 0 0 1-34.3 10l-3 .8 5.7 20.4 2.8-.8a515 515 0 0 0 14.3-4l2.6 8.6a689.1 689.1 0 0 1-30 8.1l-2.8-11.6-4.3-17.6-2.9.8a511.4 511.4 0 0 1-34.6 7.2l-3 .5 3.7 20.9 3-.5 15.2-3 1.9 8.8a464 464 0 0 1-32.2 5.5l-1.5-11.9-2.4-18-3 .4a304 304 0 0 1-37.4 3h-3v21h3.1c5.4 0 10.8-.4 16.2-.8l.6 9c-5.7.3-12 1-16.7.8h-.2c-5 .1-10 0-15-.2l.4-12 .6-18h-3.1c-1.8 0-3.7 0-5.6-.2a279.5 279.5 0 0 1-29.7-3.2l-3-.5L595 909l3 .5c5.5 1 11 1.6 16.6 2.2l-.8 9a285.6 285.6 0 0 1-33.4-5.5l2.6-11.6 4-17.5-3-.7a242.3 242.3 0 0 1-33.4-9.6l-2.9-1-6.9 19.7 2.8 1c5.1 1.8 10.2 3.4 15.3 4.9l-2.5 8.6a316.7 316.7 0 0 1-30.7-10.7l4.5-11 5.3-13a3 3 0 0 0 .5-2.4 3 3 0 0 0-2.7-2.6 372.7 372.7 0 0 1-26.7-12.2zm311 4.5-8.6 2.8 4.3 13zm105 165.3c-.4 26.8.6 53.9 2.7 80.9C997.7 1139.3 1050 1219 1050 1310c0 57.2-20.7 110-54.7 149.4l2.1 9a894 894 0 0 0 51-11.4c15.4-4 30.9-8 45.7-12.7A308.8 308.8 0 0 0 1125 1310c0-131.7-85-249.2-205.2-284.4zM965 1050a35 35 0 0 1 35 35 35 35 0 0 1-35 35 35 35 0 0 1-35-35 35 35 0 0 1 35-35zm66.5 59.4a35 35 0 0 1 35 35 35 35 0 0 1-35 35 35 35 0 0 1-35-35 35 35 0 0 1 35-35zm-82.5 66.8c-5.4 0-10.7 2.1-14.8 5.8l-2.9 2.5 3.5 16.9 9.4-8.2a7.5 7.5 0 0 0 0-.1c1.5-1.3 3.4-2 5.4-2a7 7 0 0 1 6.8 5.1 7 7 0 0 1-2.2 8.2 7.5 7.5 0 0 0-.1 0l-15.8 13.9 6.2 29.5 29-12.2a7.5 7.5 0 1 1 6 13.7 7.5 7.5 0 0 0-.2 0l-31.7 13.5 5 23.8 35.4-4a7.5 7.5 0 0 1 1.3 0c4 .1 7.1 3.2 7.2 7.2.1 4-2.8 7.3-6.7 7.7a7.5 7.5 0 0 0-.2 0l-34 3.8 5.9 28.2 26.9 4.9c4.3.7 7 4.5 6.2 8.7a7.4 7.4 0 0 1-8.8 6 7.5 7.5 0 0 0-.1 0l-21-3.8 3.4 15.9 14.8 2.7a22.6 22.6 0 0 0 26.5-18 22.6 22.6 0 0 0-18.4-26.3l-24.2-4.4 24.4-2.8a22.6 22.6 0 0 0 20.3-23 22.6 22.6 0 0 0-21.5-21.8l-3.8.1-16 1.8 14.9-6.3a22.6 22.6 0 0 0 13.5-25.6 22.6 22.6 0 0 0-31-15.8l-20.3 8.6 16.7-14.7a22.6 22.6 0 0 0 6.6-24.4 22.6 22.6 0 0 0-21.6-15.1zm15.8 169.1-3.3-15.8-1.3-.3 3.8 16zm-9.2-44-3-14.7-2.3.3 3.3 14.7zm-8-38.5-3.1-15-2.1 1 3 15zm-9.3-44.5-3.5-16.9-.8.7 3 17.4zm133.1-33.5a35 35 0 0 1 35 35 35 35 0 0 1-35 35 35 35 0 0 1-35-35 35 35 0 0 1 35-35zm16.7 87.8a35 35 0 0 1 35 35 35 35 0 0 1-35 35 35 35 0 0 1-35-35 35 35 0 0 1 35-35zm-10.9 82a35 35 0 0 1 35 35 35 35 0 0 1-35 35 35 35 0 0 1-35-35 35 35 0 0 1 35-35zm-35.5 75.5a35 35 0 0 1 31.7 20.2l-66.7 16.2a35 35 0 0 1 0-1.4 35 35 0 0 1 35-35z"/></symbol><symbol id="c" preserveAspectRatio="none" viewBox="0 0 1300 2000"><path fill="red" d="M1063.9 74.1a272.3 272.3 0 0 1-68.4 25.2 110.8 110.8 0 0 1-23.9 66.6c-1.2 1.5-2.4 2.9-2.5 4.1-66.5-6.1-134.8-9.2-205.9-8.2a142.8 142.8 0 0 1-21-54.7 89.8 89.8 0 0 1-27.2-20 90 90 0 0 1-27.1 20 138 138 0 0 1-24 58.4c-57.3 3.5-117.2 9.6-180.3 18.7a97.4 97.4 0 0 1-17.2-21c-8.9-14.7-13.4-28.2-17.4-39.7-15.1-3-29-9.8-41.6-17.9a903.6 903.6 0 0 1 85.6 153c185.6-26.8 339-27.2 490.8-12 14.2-48.7 29-91.1 80-172.5zM631.2 517.7c13 46.6 25 94.4 35.3 143.5a1013 1013 0 0 1 30.5-74.4 22.6 22.6 0 0 1-17 8.2c-35 0-35-55-5-55l3.2.1V536c-3.1 0-6.8-1.5-10.8-5-7 2.4-17-.1-30-11l-6.1-2.3zM519 524.9a17.3 17.3 0 0 1-10.4.6 29.4 29.4 0 0 1-17.3 3.2 55 55 0 0 1-21.4 5 36 36 0 0 1-20.6 5.1c-5 2.2-10.4 3.3-15.6 3.6l-3 .7a1994 1994 0 0 1 57 255.1 339.3 339.3 0 0 0 96.3 44.2c-11.2-109.8-36.1-215.7-65-317.5zM882.6 540l1 4.7c-.1-1.6-.5-3.2-1-4.7zm1 4.7c1.6 22.9-39.6 48.9-54.6 21.9a991.3 991.3 0 0 0-100 273.2c29.7-6.9 62-17 98.9-29.9a903.4 903.4 0 0 1 94.8-227L920 580a22 22 0 0 1-10.9-4c-16.6 13-21-9.4-25.5-31.3zM937.9 863a758.5 758.5 0 0 0-17.2 131.4 309.6 309.6 0 0 1 155 99.5c-16.4-53.8-24.8-108.2-19.4-160.2l1.2-5.9c-51.7-22.5-91.1-44-119.6-64.8zm-438 77.2c1 38.6-.2 77.1-4.2 115.9a926.5 926.5 0 0 1 64.5-17.2c-15.5-18.3-15-62 .7-78.7-20.6-5-41-12-61-20zm619.4 12.7c.5 11.8 1.5 23.8 2.8 35.8-20.3 17.4-35 41.3-17.1 93a73.4 73.4 0 0 0 25.4-42.5c1.9 8.8 4 17.7 6.2 26.5-18 21.3-29.7 47.7-1.6 96.9a73.6 73.6 0 0 0 17.1-45c3.6 10.5 7.5 21 11.6 31.5-15 21.5-22.6 48 6.3 93a74.2 74.2 0 0 0 14.7-43.6c4.4 9.5 9 19 13.7 28.4-12.8 23.3-17.9 50.8 16.6 92.7a74.4 74.4 0 0 0 9.7-44c4.6 8.2 9.4 16.2 14.2 24.2-10.2 21.6-13.1 46.4 14.2 81.3l12.7-6.5c3-10.4 3.6-20 2.4-29.2a1141 1141 0 0 0 13.8 20l10.8-5.5a1114.2 1114.2 0 0 1-31.3-46.6 64.6 64.6 0 0 0 38.5 15.4v-31.2a71.5 71.5 0 0 0-55-11c-8.5-14.2-16.6-28.6-24.4-43.1 25.4 24 48.7 22.7 70.7 16.6-21.2-25.5-44.8-46.8-83.3-41-8-16-15.5-32.3-22.5-48.6 27.2 29.3 52 28.1 75.5 21.8-21.2-25.7-44.8-47-83.5-41.2a755.8 755.8 0 0 1-23.3-67 79.3 79.3 0 0 0 35 24.3l4.9-15.3 8.2-10.6a104.6 104.6 0 0 1-48-17.2 86 86 0 0 0-5.2.5l-1.5-6c-22.2-21-27.7-55.2-16-103.3l-12.3-3.5zM650 980a25 20 0 0 0-25 20 25 20 0 0 0 25 20 25 20 0 0 0 25-20 25 20 0 0 0-25-20zm315 75c-3.4 0-6.9.6-10.2 2-15.4 6-22.6 24.6-16 41.2a10 10 0 1 0 18.6-7.4c-3-7.8.3-13.5 4.7-15.3 4.5-1.7 10.8.2 14 8a10 10 0 0 0 19.1-1.8 10 10 0 0 0-.6-5.6 32.6 32.6 0 0 0-29.5-21.1zm253 25.9a10 10 0 0 0-5.5 1.4c-15.5 9-21.4 28-13.1 42.2 8.2 14.3 27.6 18.7 43.1 9.7a10 10 0 1 0-10-17.3c-7.3 4.2-13.4 1.8-15.8-2.4-2.4-4.1-1.5-10.7 5.8-14.9a10 10 0 0 0-4.6-18.7zm-186.5 33.3c-3.5 0-7 .6-10.3 2-15.4 6-22.6 24.5-16 41.2a10 10 0 1 0 18.6-7.4c-3-7.8.3-13.5 4.7-15.3 4.5-1.7 10.8.2 13.9 8a10 10 0 0 0 19.2-1.8 10 10 0 0 0-.6-5.6 32.6 32.6 0 0 0-29.5-21.1zM925.7 1141c10 91.3 31.7 185 59 281.7A192.1 192.1 0 0 0 1020 1310c0-73.3-38.2-136.9-94.3-168.9zm144.9 49c-3.5 0-7 .6-10.3 2-15.4 6-22.5 24.5-16 41.2a10 10 0 1 0 18.6-7.4c-3-7.8.3-13.5 4.7-15.3 4.5-1.8 10.8.1 14 8a10 10 0 0 0 19.1-1.8 10 10 0 0 0-.6-5.6 32.6 32.6 0 0 0-29.5-21.1zm81.7 77.7a332.5 332.5 0 0 1-20.6 164.5c34.3-11.6 67.2-24.6 96.6-36.6a2364 2364 0 0 1-76-127.9zm-64.6 10c-3.5 0-7 .6-10.3 1.9-15.4 6-22.5 24.6-16 41.2a10 10 0 1 0 18.6-7.3c-3-7.8.3-13.6 4.7-15.3 4.5-1.8 10.8.1 14 8a10 10 0 0 0 19.1-1.8 10 10 0 0 0-.6-5.6 32.6 32.6 0 0 0-29.5-21.2zm-11 82.3c-3.4 0-6.9.6-10.2 2-15.4 6-22.6 24.5-16 41.2a10 10 0 1 0 18.6-7.4c-3-7.8.3-13.5 4.7-15.3 4.5-1.8 10.8.1 13.9 8a10 10 0 0 0 19.2-1.8 10 10 0 0 0-.6-5.6 32.6 32.6 0 0 0-29.6-21.1zm-35.7 75.3c-3.5 0-7 .6-10.4 1.9a30 30 0 0 0-18.4 27.4l55.5-13.7a32.1 32.1 0 0 0-26.7-15.6z"/></symbol><symbol id="b" preserveAspectRatio="none" viewBox="0 0 1300 2000"><path fill="#FC4" d="M332.4 0c88.2 119.6 128 183.4 160.6 258.6 185.6-26.8 339-27.2 490.8-12 18-61.9 37-113.7 129.2-246.6Zm267.2 516-80.8 8.1c29 102.6 54 208.5 65.2 318.3 45.7 12.1 90.8 10.2 145.2-2.7a984.1 984.1 0 0 1 99.8-273l-4-11.7-5 10c-6.3 3.1-13 3.4-20.1 5.7-9.1 2.9-19 7.5-28.4 10-12.2 3.2-24.5 9-34.3 5.3-3-1.1-6.4 5-9.5 5.7a1076.2 1076.2 0 0 0-69.2 198.9C645.8 695 624 603.6 599.6 516zm464.5 16.2C937.7 701 894 856.2 890 1012.4c-4 150.7 31.8 303.8 78 460.9l29.7-5.2C951.4 1311 916 1159.7 920 1013.2c4-153 46.2-303.1 173.4-470Zm41 22.6c-6.4 12-13 24.2-2.2 34.8l-.6 1a223 223 0 0 0-24.6-4.9c5 6.7 10 13 15.1 19l.2.1-.1.2c-13.9-3-25.4-1.3-31.6 16.5 36.6-9.7 77.4 41.6 93.7 13.7 19-26.1-44.3-43-50-80.4zm-182.4 28A891.7 891.7 0 0 0 818.9 848l.6-3.5c-72.7 24.7-130.9 38.7-188 35.6-47-2.4-91.3-17-139-43.9l6.1 70.3A352.7 352.7 0 0 0 628.4 940c59.6 3.1 116.4-8.8 179.4-28.6l.4-2.1c-25.8 186.8 10.5 368.2 61 546.8l29.8-5.3c-41.4-146-73-292.3-69-440.1 3.7-137.3 37.1-276.2 122.8-420.3zm136 48.3c-5.9 12.3-12 24.7-.8 34.8l.8 1.3c-8.3-2-17-3.2-26.1-4.1 5.1 6.4 10.4 12.5 15.7 18.4-14.1-2.1-25.1 0-30.6 18 36-11.2 79 38.4 94.1 9.9 18-26.8-46-41.3-53.2-78.3zm-45.5 78c-3.7 13.1-7.7 26.3 5.1 34.5l-1.5 1c-7.7-.4-15.8-.2-24 .4 6.3 5.5 12.6 10.8 18.9 15.6-14.2.2-25.1 4-27.5 22.7 33.7-17 84.3 24.8 94.5-5.8 13.3-29.5-52.2-33-65.5-68.4zm-33.4 80.6c-3.1 13.3-6.5 26.7 6.6 34.3l-1.6 1c-7.7 0-15.7.6-23.8 1.5 6.8 5.5 13.7 10.7 20.6 15.3l-.7.5c-14.2.6-25.2 4.1-26.8 22.9 33-18.5 85.3 21 94-10 12.1-30-53.5-30.8-68.3-65.5zm170.2 83.6c-25 0-40 28.6-40 50 0 45 60.6 39.4 63.5 16.9 1.5-12-18.5-37-18.5-37 29.5-1.3 55.5 25.1 85 25 17.4 0 45-15 45-15-.2-10.7 7.9-19.6 0-35-25 10-93-5-135-5zm-74.2 62.3c-14.9 145.4 90.7 322.3 170 450.6 20.8-10.6 39.2-21 54.2-31.2v-100.6a1755.3 1755.3 0 0 1-62-111.6c2.6-.9 5-2 7.5-3.3a16 16 0 0 0 6-22 16 16 0 0 0-22-5.7c-5.1 2.9-7 .9-7.6-.3-.7-1.2-1.5-3.7 3.6-6.7a16.1 16.1 0 0 0 7.7-17.7c-1.6-6.3-7.4-12-15-12.2-3.1-.1-6.1.7-8.7 2.2a39.7 39.7 0 0 0-19 25.9 34 34 0 0 1 11.5-20.4c-65-9-89-50.9-70.6-126.3a645.9 645.9 0 0 1-55.6-20.7zm-426.5 5.7c-23.7.1-47.2 9.7-42.4 28.6l-1.9.1c-75-75-75 135 0 60l2-.2c-10.2 38.5 95.5 38.6 86.2.4l1.8-.2c75 75 75-135 0-60l-1.6-1.2c3.6-18.5-20.4-27.7-44-27.5zM965 1049c-4.1 0-8.3.8-12.4 2.4-18.6 7.3-27 29.5-19.4 49a16 16 0 0 0 20.9 9.1 16.1 16.1 0 0 0 8.9-21v.1c-2.2-5.5 0-7 1.3-7.5s4-.9 6.1 4.6c2.7 7.1 10 10.8 16.4 10.2a16 16 0 0 0 13.3-22 38.8 38.8 0 0 0-35-24.9zm.1 12h1.2c9.4.6 18.6 7 22.7 17.3a6 6 0 0 0 0 .1c.4.7.5 1.5.3 2.3-.4 2.4-1.8 3-3.6 3.2-1.7.2-3.2-.3-4-2.5a6 6 0 0 0 0-.1c-4-10.1-14.1-14.4-21.8-11.3-7.6 3-12 13-8 23a6 6 0 0 0 0 .1 4 4 0 0 1-2.2 5.3 4 4 0 0 1-5.3-2.3 6 6 0 0 0 0-.1c-5.5-13.8.5-28.7 12.6-33.5 2.6-1 5.4-1.5 8.1-1.5zm252.6 25.9c2.5 0 3.4 1.3 3.8 3 .4 1.8.2 3.3-2 4.5-9.4 5.4-12.1 16-8 23.1 4 7.1 14.6 10 24 4.6a4 4 0 0 1 5.6 1.4 4 4 0 0 1-1.5 5.5 6 6 0 0 0-.1 0c-12.9 7.5-28.5 3.7-35-7.5-6.4-11.2-1.9-26.6 11-34a4 4 0 0 1 2.2-.6zm-186.3 21.3c-4.2 0-8.4.7-12.4 2.4-18.7 7.3-27 29.5-19.4 49a16 16 0 0 0 20.8 9.1 16.1 16.1 0 0 0 9-21v.1c-2.2-5.5 0-7 1.3-7.5s4-1 6.1 4.6c2.7 7.1 10 10.8 16.4 10.2a16 16 0 0 0 13.3-22 38.8 38.8 0 0 0-35.1-25zm.1 12h1.2c9.4.6 18.6 7 22.7 17.3a6 6 0 0 0 0 .1c.3.7.4 1.5.3 2.3-.4 2.4-1.8 3-3.6 3.2-1.8.2-3.2-.3-4-2.5a6 6 0 0 0-.1-.1c-4-10.1-14-14.4-21.7-11.3-7.6 3-12 13-8 23a6 6 0 0 0 0 .1 4 4 0 0 1-2.3 5.3 4 4 0 0 1-5.2-2.3 6 6 0 0 0 0-.1c-5.5-13.8.5-28.7 12.6-33.5 2.6-1 5.4-1.5 8.1-1.5zm39 63.9a34 34 0 0 0-12.4 2.3c-18.6 7.4-27 29.6-19.4 49a16 16 0 0 0 20.9 9.2 16.1 16.1 0 0 0 8.9-21v.1c-2.2-5.5 0-7 1.3-7.5s4-1 6.2 4.6v-.1a16 16 0 1 0 29.6-11.8 38.8 38.8 0 0 0-35-24.8zm.1 12h1.2c9.5.5 18.7 7 22.8 17.3.3.8.4 1.6.2 2.3-.4 2.4-1.8 3.1-3.6 3.3-1.7.2-3.2-.3-4-2.6-4-10.2-14.1-14.4-21.8-11.4-7.6 3-12 13-8 23.1a4 4 0 0 1-2.2 5.3 4 4 0 0 1-5.3-2.3c-5.5-13.9.5-28.8 12.6-33.5 2.6-1 5.4-1.5 8.1-1.5zm17 75.6c-4.1 0-8.3.8-12.4 2.4-18.6 7.4-27 29.6-19.4 49a16 16 0 0 0 20.9 9.2 16.1 16.1 0 0 0 8.9-21c-2.2-5.4 0-7 1.3-7.4 1.3-.5 4-1 6.1 4.5a16 16 0 0 0 30.7-2.8c.6-3 .2-6.1-1-9a38.8 38.8 0 0 0-35-24.9zm.1 12h1.2a27 27 0 0 1 22.8 17.4c.3.8.4 1.6.2 2.3-.4 2.4-1.8 3.1-3.6 3.3-1.7.1-3.2-.3-4-2.6-4-10.2-14.1-14.4-21.8-11.4-7.6 3-12 13-8 23a6 6 0 0 0 0 .2 4 4 0 0 1-2.2 5.2 4 4 0 0 1-5.3-2.3c-5.5-13.9.5-28.8 12.6-33.5 2.6-1 5.4-1.6 8.1-1.6zm-11 70.4c-4.2 0-8.4.7-12.5 2.3-18.6 7.4-27 29.6-19.3 49a16 16 0 0 0 20.8 9.2 16.1 16.1 0 0 0 9-21v.1c-2.2-5.5 0-7 1.3-7.5s4-1 6.1 4.6v-.1a16 16 0 0 0 16.4 10.2 16 16 0 0 0 13.3-22 38.8 38.8 0 0 0-35.1-24.8zm.1 12h1.2c9.4.5 18.6 7 22.7 17.3.3.8.4 1.6.3 2.3-.5 2.4-1.8 3.1-3.6 3.3-1.8.2-3.2-.3-4.1-2.6-4-10.2-14-14.4-21.7-11.4-7.6 3-12 13-8 23.1a4 4 0 0 1-2.3 5.3 4 4 0 0 1-5.2-2.3c-5.5-13.9.5-28.8 12.6-33.5 2.6-1 5.3-1.5 8.1-1.5zm-35.9 63.3c-4.2 0-8.4.7-12.5 2.3a36 36 0 0 0-22.2 32.9c0 .7 0 1.3.2 2l11.8-1.7a24 24 0 0 1 14.6-22c10.6-4.2 23.2.5 29.8 11.2l11.1-3.4c0-1-.4-2-1-2.9a38.2 38.2 0 0 0-31.8-18.4z"/></symbol><path id="i" d="M-82.4-130.4H82.4v260.8H-82.4z"/></defs><rect width="239" height="335" x="-119.5" y="-167.5" fill="#fff" stroke="#000" rx="12" ry="12"/><use xlink:href="#b" width="164.8" height="260.8" x="-82.4" y="-130.4"/><use xlink:href="#b" width="164.8" height="260.8" x="-82.4" y="-130.4" transform="rotate(180)"/><use xlink:href="#c" width="164.8" height="260.8" x="-82.4" y="-130.4"/><use xlink:href="#c" width="164.8" height="260.8" x="-82.4" y="-130.4" transform="rotate(180)"/><use xlink:href="#d" width="164.8" height="260.8" x="-82.4" y="-130.4"/><use xlink:href="#d" width="164.8" height="260.8" x="-82.4" y="-130.4" transform="rotate(180)"/><use xlink:href="#e" width="164.8" height="260.8" x="-82.4" y="-130.4"/><use xlink:href="#e" width="164.8" height="260.8" x="-82.4" y="-130.4" transform="rotate(180)"/><use xlink:href="#f" width="164.8" height="260.8" x="-82.4" y="-130.4"/><use xlink:href="#f" width="164.8" height="260.8" x="-82.4" y="-130.4" transform="rotate(180)"/><use xlink:href="#g" width="164.8" height="260.8" x="-82.4" y="-130.4"/><use xlink:href="#g" width="164.8" height="260.8" x="-82.4" y="-130.4" transform="rotate(180)"/><use xlink:href="#h" width="32" height="32" x="-114.4" y="-156"/><use xlink:href="#a" width="26.8" height="26.8" x="-111.8" y="-119"/><use xlink:href="#a" width="55.7" height="55.7" x="-91.8" y="-132.2"/><g transform="rotate(180)"><use xlink:href="#h" width="32" height="32" x="-114.4" y="-156"/><use xlink:href="#a" width="26.8" height="26.8" x="-111.8" y="-119"/><use xlink:href="#a" width="55.7" height="55.7" x="-91.8" y="-132.2"/></g><use xlink:href="#i" fill="none" stroke="#44F"/></svg>