<svg xmlns="http://www.w3.org/2000/svg" xmlns:xlink="http://www.w3.org/1999/xlink" width="240" height="336" class="card" preserveAspectRatio="none" viewBox="-120 -168 240 336"><defs><symbol id="h" preserveAspectRatio="xMinYMid" viewBox="-500 -500 1000 1000"><path fill="none" stroke="red" stroke-linecap="square" stroke-miterlimit="1.5" stroke-width="80" d="M-260 100c300 0 220 360 520 360M-175 0v-285a175 175 0 0 1 350 0v570a175 175 0 0 1-350 0Z"/></symbol><symbol id="a" preserveAspectRatio="xMinYMid" viewBox="-600 -600 1200 1200"><path fill="red" d="M-400 0C-350 0 0-450 0-500 0-450 350 0 400 0 350 0 0 450 0 500 0 450-350 0-400 0Z"/></symbol><symbol id="g" preserveAspectRatio="none" viewBox="0 0 1300 2000"><path fill="none" stroke="#44F" stroke-linecap="round" stroke-linejoin="round" stroke-width="3" d="M1200 695c4.4 6.2 7 12.7 5 20m-.7 5c4.4 6.2 7 12.7 5 20m6.9 3c4.4 6.1 7 12.7 5 20M1195 650c1 15 40.2 0 35-5M550 455c15.3-7.6 30.6-14.3 45-10m-50-175c-8.3 10.5-24 13-40 15m140-10c16.7 2.2 19.9-1.8 25-5m-225-45c25 0 48.6-42.4 90 0m68 3.1c12-3.1 44.5-50.6 82-8.1m-157.5 4.2c1.6 4 2.5 8.5 2.5 13.3 0 15.3-9 27.6-20 27.6s-20-12.3-20-27.6c0-4.5.8-8.7 2.2-12.5m181.4-5c1 3 1.4 6.5 1.4 10 0 15.2-9 27.5-20 27.5s-20-12.3-20-27.5c0-1.3 0-2.6.2-3.8m139 362.7c16.8-3.3 33.9-7.2 51.2-11.6m-222.5 30.9c14.5-.3 29-1 43.8-2m-127.6 0c14 1 28.3 1.7 42.6 2m-128.4-11.7c14.1 2.2 28.3 4.2 42.6 5.8M343 578c15.5 3.9 31.2 7.4 46.9 10.6M256.4 553c14 4.6 28 9 42 13m470.3 14a1080 1080 0 0 0 49.4-11m-217.3 29.4c14-.3 28.2-.9 42.5-1.8m-124.5-.2a920 920 0 0 0 41.7 2m-126.3-11.7c13.9 2.2 27.9 4.1 42 5.8m-130.8-24c15.3 3.7 30.6 7.2 46 10.4m-131.7-35.3c13.8 4.5 27.7 8.8 41.5 12.9m53.9-26.7a1080 1080 0 0 1-42.7-11.7m124.8 28.8a969.2 969.2 0 0 1-39.6-7.4m120 17a882 882 0 0 1-40.2-3.9m114.8 6.2c-12.3.2-24.4 0-36.5-.3m191.3-15a971 971 0 0 1-39.8 6.4m28.7-24.6a991 991 0 0 0 38.6-7.7m-186.7 21.6c11.7-.1 23.6-.4 35.5-1M517 536.7c12 1 24 1.6 36.1 2m-114.6-11.5c13 2.1 26.1 4 39.3 5.6m-118-22.2c13.5 3.4 27 6.5 40.7 9.4m-120.9-32.9c12.7 4.2 25.4 8.2 38.2 12m51.7-27.2c-13.6-3.5-27-7.2-40.6-11.2m112.8 26.7c-11.7-2-23.4-4.3-35-6.8m109.1 16.2a739 739 0 0 1-36.8-3.9m93 6.4c-8 0-15.9-.3-23.7-.6M714 488.4a889.3 889.3 0 0 1-33.3 4.7m82.7 77.6c15.6-3 31.5-6.5 47.6-10.4m-212.3 28.1a914 914 0 0 0 41.4-1.7m-121.5-.4c13.5 1 27 1.6 40.8 2M435 576.7c13.7 2.2 27.6 4 41.5 5.7m-128.7-23.7c15 3.7 30 7.2 45.2 10.3m-130-35c13.7 4.5 27.3 8.8 41 12.8m48.7-7.5c-14.4-3.6-28.8-7.5-43.1-11.7m86.4 21.7c-14.5-3-29-6.3-43.3-10m83.8 17.5c-13.6-2.3-27-4.8-40.5-7.5m122 17.1a899 899 0 0 1-41-4m117.3 6.2c-12.6.2-25 .1-37.4-.2m195.5-16a983.6 983.6 0 0 1-40.8 6.8m18.8-43.2c12.1-2.1 24.3-4.5 36.7-7.1m-181.4 20.3a790 790 0 0 0 34.2-1m-103.1-1.5a834 834 0 0 0 35.2 2m-112.7-11.5c13 2.2 25.9 4 38.9 5.7m-116-22c13.3 3.4 26.6 6.4 40 9.3M283 477.7c12.5 4.1 25 8 37.6 11.8M273 505.8a1458 1458 0 0 1-38-13m58-43.4c-9.3-3-18.6-6.2-28-9.5m4.7 75.3c-13.6-4.4-27-9-40.6-14m60.6-42.3a1106 1106 0 0 1-29-10M367 481.5c-13.6-3.4-27.2-7.2-40.9-11.2m114.7 27c-12-2-23.8-4.3-35.7-6.8m111 16.3c-12.6-1-25-2.3-37.4-3.9m102.5 6.4a834 834 0 0 1-31.7-.6M684.4 603c14.8-1.6 29.6-3.6 44.7-6m-48.4-3.7c14.5-1.5 29.2-3.4 44-5.7m-58.9-32.8c-12 1.2-24 2-35.8 2.7m28.4-21.8c13.2-1.2 26.5-2.7 40-4.5m-55-34.2c-11.3.8-22.5 1.5-33.6 1.9m67.2 84.8c14.3-1.5 28.7-3.3 43.3-5.5m-50.8-13.7a908.1 908.1 0 0 1-36.2 2.8m21.4-41.3c13-1.1 26-2.6 39.2-4.3m-46.7-15a803 803 0 0 1-34 2m106.2-11c-11.6 1.9-23 3.6-34.4 5m133.7 24.9c-10 2.5-19.7 4.9-29.4 7.1m-28.6-55-15.7 3.2m83.3 52.5c-10.7 2.8-21.3 5.4-31.8 7.9m-26-55.5-18.1 3.8m-552.2 44.9 14.2 4.4m-6.6-12.5 9.7 3m-2.7-11.3 5.8 1.8M0 686l164.6-234.3M0 651.3 145 445M0 616.6l125.6-178.8m696-37.8a899 899 0 0 1 23.2 148.6m-32-28.4-4-29.8a747 747 0 0 0-21.1-105.1M892.5 588l-.8-14a1035 1035 0 0 0-19.4-152m-33.6-14.6a960 960 0 0 1 22.1 154M796 507.2l-2-14.9a716.2 716.2 0 0 0-24-115m-36.7-15.9c12.1 34 21.7 72.4 28.7 118.3m42.5-87.3A857 857 0 0 1 828.6 535"/><use xlink:href="#a" width="100" height="100" stroke="#44F" stroke-linecap="round" stroke-linejoin="round" stroke-width="72" transform="translate(600 951.4)"/><use xlink:href="#a" width="100" height="100" stroke="#44F" stroke-linecap="round" stroke-linejoin="round" stroke-width="72" transform="translate(530 956.4)"/><use xlink:href="#a" width="100" height="100" stroke="#44F" stroke-linecap="round" stroke-linejoin="round" stroke-width="72" transform="translate(460 961.4)"/></symbol><symbol id="f" preserveAspectRatio="none" viewBox="0 0 1300 2000"><path fill="none" stroke="#44F" stroke-linecap="round" stroke-linejoin="round" stroke-width="6" d="M485 934.4c143.2 31.8 266.4 13.8 371.4-22m-371.7-8.8c157.1 36.8 286.8 11.1 397.6-32.6M508 679.9l87 180.4M755.6 848 674 679m218.4 178.6A223.1 223.1 0 0 1 860 740c0-54.6 18.4-104 48-139.3m189.7 662c-24-245-111.1-277.3-205.4-405.1l133-160m274.7 226L660.4 396.7m-339 221.7L.9 939.2M321 618.6A359.4 359.4 0 0 1 485 920c0 84-28.9 161.2-77.3 222.4M166 568.4c222.8 85.2 456 122.6 742 32.2m-233.9 78c66.8-5.9 136.1-18.5 208.5-39m-507.7 21.6c43.5 8.7 88 15 133.5 18.5m-371-90.4c41.7 16.4 84 31.3 126.9 44.2m615.9-55.8c-264.4 79-479.5 46.2-688.9-32M838 543c-234.3 63.5-424.9 35.5-615-33.5m586.4 10c-215.4 54-390.8 28.3-568.5-35.4m539.5 11.5C583.1 541 422 516.9 256.2 457.9m285 30.7c-93.5-4.6-181.6-25.8-271.9-57.8m481.6 40.7a854 854 0 0 1-149.8 17.8m-73.7 162 101.5 210.4m96.4-7.4L627.7 652m-66.2.8L662 861.4m32-2.8-99.3-205.8M475.9 839.5C636.4 883.2 759.1 857 871.1 811M482 872c160.4 40.2 287.9 12.7 400-33.3M0 715.8 503 0M307.8 277.9C288.7 469.6 187 581.9 63.7 625.5m418.6 339A700.4 700.4 0 0 0 650 980.6m-165.8-36.1A682.2 682.2 0 0 0 650 960.7m-166.6-6.2A691.8 691.8 0 0 0 650 970.6m-169 3.9a711 711 0 0 0 169.1 16m0 28.9a716.4 716.4 0 0 0-189.7 31.3m18.9-66.4a721 721 0 0 0 170.8 16.3m0-1.2a733.2 733.2 0 0 0-181.5 28m181.5 12a701.3 701.3 0 0 0-200.4 35.6m200.4-45.6a708.4 708.4 0 0 0-194.7 33.3m194.7-53.3a724.9 724.9 0 0 0-185.4 29.5m12.7-44.8c16.7 3.6 33.2 6.6 49.4 9m.6 0c-19 3.7-37.5 8-55.5 13m508.8-264.6a117 117 0 0 1-.6-11.5 101 101 0 0 1 20-62.3m-66.2 130A169.4 169.4 0 0 1 920 740c0-41.1 14.2-77 34-100.8M912.9 833a195.9 195.9 0 0 1-22.8-93 188 188 0 0 1 41-120m193.8 615.2c-13.6-111.3-42-181-78.5-235.6-35-52.5-75.1-90-115.6-141.3l98.9-118.8m.1.3L1300 962.4m-234.6 332.2-21-13.7A238.4 238.4 0 0 1 935 1080c0-47.2 13.3-90.3 36.6-127.1m72.1 363.4-15.6-10.3a268.6 268.6 0 0 1-76.9-376.7m49.2 430.3-5.1-3.3a329.2 329.2 0 0 1-84-474.2m170.1 277.8a65 70 0 0 1-61.4-69.9 65 70 0 0 1 17.3-47.5m58.6-287.6c3-15.5 13.4-62.4 34.1-74.9 25.8-15.6 34.7-11.7 62-30.7 31.6-22 61.2.2 20 25-34.5 20.8-32 15.7-47 20.7 15 35 10 60-10 70m75-82.4c44-16 67.9 3.1 10 22.4-82.9 27.6-70.7-.3-10-22.4v0m1.7-28.2c39.6-13 59 5.4 5.1 24-28.2 9.8-45 12.6-52.4 11.2m52.3 16.4c42.5-16 65.5 3.1 9.6 22.4-80 27.6-68.3-.3-9.6-22.4v0m10 23.8c38.2-14.2 57.6 6 7.3 22.8-72 24-60.2-3.3-7.4-22.8v0m-3.8 46.3c9.2-9.4 15.7-18.4 17.2-25.6m-79.8 74.4a397.9 397.9 0 0 0 50.8-37.6m-13-25.6c13.9 28.3 34.3 51.3 14.6 106.4m12.4 9.6c12.7-33.1 12.8-58.5 6.8-78.8-4.7-16-12-28.1-18-39.4M1160 520c-15-55-85 15-30 30-55 15 15 85 30 30 15 55 85-15 30-30 55-15-15-85-30-30v0m16.2 30a16.2 16.3 0 0 1-16.2 16.3 16.2 16.3 0 0 1-16.2-16.3 16.2 16.3 0 0 1 16.2-16.3 16.2 16.3 0 0 1 16.2 16.3v0m-43.7-49.7c-36.3-73.7 91.3-73.7 55 0m22.2 22.2c73.7-36.3 73.7 91.3 0 55m-22.2 22.2c36.3 73.7-91.3 73.7-55 0m-22.2-22.2c-73.7 36.3-73.7-91.3 0-55M1130 550h-45m5 0a5 5 0 0 1-5 5 5 5 0 0 1-5-5 5 5 0 0 1 5-5 5 5 0 0 1 5 5v0m70-30v-45m0 5a5 5 0 0 1-5-5 5 5 0 0 1 5-5 5 5 0 0 1 5 5 5 5 0 0 1-5 5v0m30 70h45m-5 0a5 5 0 0 1 5-5 5 5 0 0 1 5 5 5 5 0 0 1-5 5 5 5 0 0 1-5-5v0m-70 30v45m0-5a5 5 0 0 1 5 5 5 5 0 0 1-5 5 5 5 0 0 1-5-5 5 5 0 0 1 5-5v0m11.5-81.5L1185 525m5 0a5 5 0 0 1-5 5 5 5 0 0 1-5-5 5 5 0 0 1 5-5 5 5 0 0 1 5 5v0m-18.5 36.5L1185 575m0 5a5 5 0 0 1-5-5 5 5 0 0 1 5-5 5 5 0 0 1 5 5 5 5 0 0 1-5 5v0m-36.5-41.5L1135 525m-5 0a5 5 0 0 0 5 5 5 5 0 0 0 5-5 5 5 0 0 0-5-5 5 5 0 0 0-5 5v0m18.5 36.5L1135 575m0 5a5 5 0 0 0 5-5 5 5 0 0 0-5-5 5 5 0 0 0-5 5 5 5 0 0 0 5 5v0m35.2 73.6 3.9 6.5M1186 645l3.6 6m-50 23.8A188.9 188.9 0 0 0 1035 650m104.6 24.7c-45.8-40.3-92-69-139.6-19.7 39.7 5 54.8 44.3 138 20.6m82-35.6c16.7-23.2 35.5-41.5 65-35-3.7 22.4-25.7 34.3-50 45M661 .2c123.2 169.2 234.4 279.3 247 600.5M642.3 25.5C760.6 186.7 859.8 286 876.7 574.9m-194-343.7c47.2 70.4 80.5 143.3 96.4 263.2m-99.6-212.1a526.7 526.7 0 0 1 65 183.7M0 586.2 411.9 0m221.6 0C646.4 36.8 690 163 690 180c0 20-10 60-10 70s0 80-10 120-60 130-90 130-70.4-34.6-100-30c-70.9 11-142.7-126.6-130-130 0 0-5.3 10.8-10 10-17.9-2.9-28.8-31.8-34.6-54m-141.2 56.5C130.5 313.8 71.4 310.3 10 310c24.7-11.3 55.3-13.8 70-40 19.5 12.8 44.3 11.4 70.4 6.4m-32.5 46.2L344.6 0M117.9 322.6v0m-67.7-11.4 4.4-1.8a83.5 83.5 0 0 0 30-20.3c17.1 6.8 35.6 6.8 53.8 4.5M90 90c50 50-6.8 124.4 29.8 149.4 50.5 34.4 76-28 47.6-46.8-26-17.2-48.2 19.1-27.4 27.4 13.5 5.4 20 0 20-10M90 90c56.2 42.4 109.5-27.5 141.7 5 36.7 37.2-12 74-32.5 52.5-22.3-23.5 11.2-52.6 23.5-31 8 14-.2 20-9.9 16.8M190 220c17-29-18.5-48.2-40-70 27.1 10.6 55.1 33.9 80 10m40.1-54c-4.4-39.5-30.9-72-53.5-106m65.7 88.6c-8-33.7-29.1-62-47.6-88.7m84 132.8L310 85l45-5-5-50 44.3-5M274.2 196l-9.2-46 47.6-8.6m-78.2 111.1L225 210l45.8-9.2m-71.4 101.6L190 265l42.3-9.4m-68.1 97L150 310l47.4-4.7m-33.2 47.2v0M413.9 127C495 107 535.7 55.3 571.7 0m-54.1 0c-16.4 23.4-33.2 43-55.5 58.1m73.6-58C511 36.5 485 66.8 443 85.6M553.8.1C522.7 46.9 489 87.4 427.4 107.5m243.3 3c-42.5-27.2-70-67.7-95-110.5m52.8 0c3.4 5.5 7 10.8 10.5 15.9M610.8 0c12.8 21 26 40 42 56.1M593.2.2c19.6 33 40.4 62.8 69.3 85.4M340 265c10 55-15 45 0 25m85-90c32.6-21.8 65.3-43.3 130 0-2.1-1 2.4 5.3.4 4-35.4-24-79.6-35.8-130.4-4v0m180-5c31.4-37.5 60-20 85-10-25-5-60-20-85 15v-5 0m0 0c-10 90 21 95.6 20 150 0 10-30 5-30 20m-35-45c-21.3.1-52.2 34.5-10 35 7.2 0 17.3-10.4 22-10 38.7 2.6-.8 5.2-12 5m-35 40v10l5-5-5-5v0m105 0v10l-5-5 5-5v0m-5 5c-5 0-25-5-30-5s-10 5-15 5-15-5-20-5c0 0 5 0 0 0s-20 5-30 5m30 20c5 15 40 15 40 0M435 245c28.5 10 49.3-25 75-25 30 0 44.7 33.1 50 30m-95-10c22.4 55 85 0 95 10m125-25c-32.6-22.6-65 15-80 20 15 0 65 35 77.8-13.8M349.2 341.5h-.3m1.8 11-8.6-2.8m68.6 91a1112 1112 0 0 1-130.3-37.9m38.6-71.2a1528 1528 0 0 1-16-5.6m28.7 20.4a1437 1437 0 0 1-32-11m55.8 29a1312 1312 0 0 1-58.4-19.3m64.7 31.6c-22-6.5-44.3-13.8-67-21.8m74.4 34.3c-25.3-7.1-50.8-15.4-76.9-24.6m85.2 37.2c-28.9-7.8-58-17-87.8-27.5m97.2 40.3a1170 1170 0 0 1-100.1-30.7m111.1 43.6c-37.7-9-75.5-20.5-114.2-34m437 53.2a830.8 830.8 0 0 1-93.5 11.4m41.8-54-12.4 1.4m23 7.2c-9.5 1.3-18.9 2.5-28.2 3.4m38.6 5.2c-15 2.2-29.5 4-44 5.3m54.5 3.2a810.9 810.9 0 0 1-60.4 7.4m70.4 1.1a821 821 0 0 1-76.6 9.3M210.6 552.8l15-46.6m70.8-66.2-45 126.8M331.9 451l-37.5 129M372 462.2l-32.4 129.9m68.8-121.4-20.7 132.4m44.4 8.2c4.3-44 6.4-90 10.6-134m33 139.7 3.7-134.1m40.3 138-4-134.2m48 136.1-16-131.7m58.6 131.7-26.8-123m72.4 120.7L606.5 489M690 617.2l-50.3-130m96 123.8-59.3-127.4m106 118.9-74-123.4m128 110.8-98.8-116M246 365.8a788 788 0 0 1-6.8 121m21.9-142.5c1.2 36.5-2 76.3-6.9 117.3M276 323c1.2 32.6-1.2 67.8-5.1 104.1m-41.4-38a764 764 0 0 1-6.4 120.4m-8.5-99.1c1.5 36.5-1.5 76.2-6.3 117.2m-8.6-96c1.3 34.8-1.5 72.5-5.8 111.3m-9.2-90c1.2 32.5-1.2 67.5-5.1 103.6m-9.9-82.2c1 29.7-1 61.5-4.3 94.4m-10.8-72.9c1.1 26.4-.2 54.5-2.8 83.5m-12.3-62c1 22.7.4 46.5-1.4 71.2m-13.6-49.9c.9 18.8.5 38.5-.7 58.8m-17.7-32.6c.4 13.8.3 28-.4 42.6M91 586c.3 9.2.3 18.6 0 28.2m200-312.5c1 24.3-.1 50-2.3 76.5m809 884.5c-24-245-111.1-277.3-205.4-405.1l133-160m8.7 435.8-58.1 42.5a20 20 0 1 0 28 28.6l48.1-54.2m-35.3-141-31-22.7A20 20 0 1 0 962 1019l64.8 40m0 0-59.6-27.6a20 20 0 1 0-11.4 38.3l64.4 14.7m0 0-61.2-4.6a20 20 0 1 0 2.9 39.9l60.5-10.7m0 0-61.3 16a20 20 0 1 0 15.7 36.8l57.2-28.3m18 17-46.8 73.9a20 20 0 1 0 36.4 16.7l29.2-82.7m0 0-25.1 104.8a20 20 0 1 0 39.7 4.7l6.3-54M1145 955c10 35-35 60-45-10-10 70-55 45-45 10-35 10-60-35 10-45-70-10-45-55-10-45-10-35 35-60 45 10 10-70 55-45 45-10 35-10 60 35-10 45 70 10 45 55 10 45v0m125 136.4c-10-70-55-45-45-10-35-10-60 35 10 45m-44.5-27.4c-19.9-7-37.3-16.3-51.4-29.1-25.4-23.1-41.4-57.9-41-114.6m-18.2 32.1c5.2 43.8 21.5 75.2 45.7 97.3 27.7 25.2 64.3 37.8 104.3 45.1m53.7-53.3c-6.9-37.4-17.9-72.7-39-101.5a149 149 0 0 0-75.2-53.5m7.7 24a125.2 125.2 0 0 1 51.3 41.4 200 200 0 0 1 30.7 71M936.4 865.4c3 3.3 6 6.3 9.2 9.3 25 22.7 57.2 35.1 92.5 42.8m-13.3-24a160.6 160.6 0 0 1-65.7-33.6 112.5 112.5 0 0 1-15.4-17.2m77.6-93.2c10.7 7.8 19.6 17 27.1 27.4a180.8 180.8 0 0 1 25.9 53.6m28.4 31.2c-6.3-32.3-16-63-32.8-88.9M1030 825a15 15 0 0 1-15 15 15 15 0 0 1-15-15 15 15 0 0 1 15-15 15 15 0 0 1 15 15v0m160 195a15 15 0 0 1-15 15 15 15 0 0 1-15-15 15 15 0 0 1 15-15 15 15 0 0 1 15 15v0m-30 130a15 15 0 0 1-15 15 15 15 0 0 1-15-15 15 15 0 0 1 15-15 15 15 0 0 1 15 15v0m70.9-24.3-3.3 3.7m40.8-46.5-37.5 42.8m51-58-13.5 15.2m31.6-36-18.2 20.7m-71 58.2-87.4 99.5m176.6-201-22.3 25.3m-83 71.8-74.1 84.4m136.4-155.4-2.1 2.5m45.1-51.4-27.2 31M1138 1163.2l-20.7 23.5m62-70.5-22 25.1m67-76.4-13.6 15.5m41.1-46.8L1240 1047m60-68.3-33 37.6m-137 133.1-16.3 18.6m51-58-22 25.1m103.1-117.5-67.3 76.6m118.3-134.6-36.5 41.6M1151 1103l-41.3 47m129-147-74.2 84.6m120.7-137.4-32.6 37m-114.4 107.6-33 37.5m125.2-142.5-79 89.8m122.2-139-29.6 33.7m-117.5 111-26.3 30m71-80.8-31.5 35.9m81.3-92.6-32.1 36.5m73.1-83.2-27.7 31.6m-118.4 112-21 23.9m65.6-74.7-31.3 35.7m81.3-92.6-33.5 38.2m73.4-83.6-26.8 30.5m-117 110.6-17.6 20m109.7-125-78.6 89.5M1238.8 912l-27 30.8m-113.5 106.4-15.5 17.7m103-117.2-73.3 83.4m114.8-130.6-28.3 32.2m-107.6 99.7L1076 1052m55.4-63-24.9 28.3m54-61.4-15 17m70.3-80-30.6 34.8m-99.3 90.3-17.1 19.5m47-53.4-13.8 15.6m68.4-77.8-.2.2m34-38.7-33.8 38.5m-88.5 78-20.7 23.6m46-52.4-8 9m93.4-106.2-36.2 41.1m-85.3 74.4L1053 1010m45.2-51.5-1.3 1.4m5-5.6-3.7 4.2m43.8-50-2 2.3m41-46.6-6.1 7m-116.5 109.9-13.8 15.7m124.8-142.1-8.3 9.4m-107.3 99.5-18.1 20.6m122.1-139-11.4 13M1040.5 956l-14 16m119.7-136.3-3.8 4.3m-116.2 109.6L1017 960m44.5-50.7-1.4 1.6m42.2-48-3.8 4.3m36-41-4 4.6M1021.6 932l-14.2 16.2m23.6-26.8-9.4 10.6m13.4-15.2-4 4.6m92-104.8-24.2 27.6m-80 68.4-21.2 24m113.8-129.5-17.2 19.6m-91.1 81-15.4 17.5m33.6-38.3-3.7 4.2m36.5-41.6-12.5 14.3m31.7-36-2.5 2.8m29-33-11.2 12.8m-100.4 91.4-10.5 12m89.7-102.1-65.1 74.2m86-97.9-6.2 7M974.3 895l-6.5 7.4m92.7-105.6L988 879.4m88.8-101-2 2.3M961.4 886.9l-3.6 4m47.8-54.3-31 35.2m78-88.7-27.3 31m-75.9 63.7-1.4 1.6m53.4-60.8-38.8 44.2m44.3-50.5-5.5 6.3m42.2-48-36.7 41.7m-68.4 55.2-.1.2m94.9-108-81.6 92.8M264.3 633.3 0 897.6"/></symbol><symbol id="e" preserveAspectRatio="none" viewBox="0 0 1300 2000"><path d="m1025.5 697.6-25.3-20.3a101.5 101.5 0 0 0-19.5 74zm-91.7 110.1A169.4 169.4 0 0 1 920 740c0-41.1 14.2-77 34-100.8l-23-19.3A187.8 187.8 0 0 0 890 740a196 196 0 0 0 22.8 93m-30.3-193.4A1134 1134 0 0 1 674 679l81.6 169-30.3 6.4L628 652c88.3-4 181-20 280-51.3M595 860.3l-87-180.5c-45.3-3.4-89.8-9.8-133.2-18.4a379 379 0 0 0-53.4-42.8 1076 1076 0 0 0 205.7 32.7l102.1 210.5c-11 0-22.6-.5-34.4-1.5zM882.3 871c-110.8 43.7-240.5 69.4-397.6 32.6l-2.7-31.5c160.4 40.2 287.9 12.7 400-33.3l10.3 18.8zm-883 69.6 322-322.1A1412.7 1412.7 0 0 1 166 568.3c-8.8 7.2-18 14-28.2 20.6 41.1 17 83.4 31.8 126.3 44.5L-.3 898m319-765.2L310 85l45-5-5-50 44.3-5M274.2 196l-9.2-46 47.6-8.6m-78.2 111.1L225 210l45.8-9.2m-71.4 101.6L190 265l42.3-9.4m-68.1 97L150 310l47.4-4.7m463.2 91.3c4.4-10.1 7.6-19.2 9.4-26.6 6-24 8.4-59 9.4-86.4 3.7 4.8 7.1 11 10.4 17.1a489.7 489.7 0 0 1 53 164z"/></symbol><symbol id="d" preserveAspectRatio="none" viewBox="0 0 1300 2000"><path fill="#44F" d="m664.8 217.7-17.8 3a37.9 37.9 0 0 0-2.8 15c0 13 5.6 23.6 12.5 23.6s12.5-10.6 12.5-23.6c0-7.2-1.7-13.6-4.4-18zm-152.3.5a12.5 23.6 0 0 0-12.5 23.6 12.5 23.6 0 0 0 12.5 23.7 12.5 23.6 0 0 0 12.5-23.7 12.5 23.6 0 0 0-12.5-23.6ZM283.7 393.4l-3.3 9.4a1112 1112 0 0 0 130.3 37.9L398 427.6c-37.7-9-75.5-20.6-114.2-34.2zm426.8 44.9a821 821 0 0 1-76.6 9.3l-6.7 10.5c30.2-2 61.3-5.7 93.5-11.4zm-573 151c-23.2 15-48 27-73.8 36L0 715.8v181.8l264.2-264.2a1438 1438 0 0 1-126.7-44.2ZM908 600.7A216.5 216.5 0 0 0 860 740c0 44.2 12 85 32.4 117.6l132.8-160.2Zm-346.1 52 99.9 208.5c11.2-.6 22.4-1.6 32.8-2.8l-100-205.7H562zm-187.2 8.5c43.5 8.7 88 15 133.5 18.5zm220.2 16a10 10 0 0 1 10 10 10 10 0 0 1-10 10 10 10 0 0 1-10-10 10 10 0 0 1 10-10zm22.4 46.7a10 10 0 0 1 10 10 10 10 0 0 1-10 10 10 10 0 0 1-10-10 10 10 0 0 1 10-10zm22.5 46.6a10 10 0 0 1 10 10 10 10 0 0 1-10 10 10 10 0 0 1-10-10 10 10 0 0 1 10-10zm22.4 46.7a10 10 0 0 1 10 10 10 10 0 0 1-10 10 10 10 0 0 1-10-10 10 10 0 0 1 10-10zM918 891.1a7.5 7.5 0 0 0-7.5 7.5 7.5 7.5 0 0 0 7.5 7.5 7.5 7.5 0 0 0 7.5-7.5 7.5 7.5 0 0 0-7.5-7.5zm17.2 19.9-37.4 9.4-5.1 10.2L905 961l-34 17.6-3 10.3 18.1 32-29.5 24-1 10.7 25 29.2-23.8 34.5 1.6 10.2L890 1154l-15.4 37.4 4 9.7 36 16-5.5 41.4 6 8.3 38.7 7 3 40.2 6.8 6.9 47.5 4.4-2.7 25.5 16.8-16 1.6-15.5-6.8-8.2-48.7-4.6-3-39.6-6.2-6.8-37.2-6.8 5.3-39.9-4.4-7.8-34.6-15.2 14.8-36-2.3-8.8-30.4-23.6 23-33.4-.5-9.1-23.7-27.8 28.5-23.2 1.8-9.5-17.4-30.7 33.1-17.2 3.5-9.5-11.8-28.7 33.4-8.5c1.2-.3 2.3-.8 3.2-1.6zm-50 37a7.5 7.5 0 0 0-7.5 7.4 7.5 7.5 0 0 0 7.5 7.5 7.5 7.5 0 0 0 7.5-7.5 7.5 7.5 0 0 0-7.5-7.5zm-19.3 62.1a7.5 7.5 0 0 0-7.5 7.5 7.5 7.5 0 0 0 7.5 7.5 7.5 7.5 0 0 0 7.5-7.5 7.5 7.5 0 0 0-7.5-7.5zm-5.6 67.4a7.5 7.5 0 0 0-7.5 7.5 7.5 7.5 0 0 0 7.5 7.5 7.5 7.5 0 0 0 7.5-7.5 7.5 7.5 0 0 0-7.5-7.5zm9.9 73.9a7.5 7.5 0 0 0-7.5 7.5 7.5 7.5 0 0 0 7.5 7.5 7.5 7.5 0 0 0 7.5-7.5 7.5 7.5 0 0 0-7.5-7.5zm27 69.7a7.5 7.5 0 0 0-7.4 7.5 7.5 7.5 0 0 0 7.5 7.5 7.5 7.5 0 0 0 7.5-7.5 7.5 7.5 0 0 0-7.5-7.5zm41.7 59a7.5 7.5 0 0 0-7.5 7.4 7.5 7.5 0 0 0 7.5 7.5 7.5 7.5 0 0 0 7.5-7.5 7.5 7.5 0 0 0-7.5-7.5zm58.1 52a7.5 7.5 0 0 0-7.5 7.6 7.5 7.5 0 0 0 7.5 7.5 7.5 7.5 0 0 0 7.5-7.5 7.5 7.5 0 0 0-7.5-7.5z"/></symbol><symbol id="c" preserveAspectRatio="none" viewBox="0 0 1300 2000"><path fill="red" d="M411.9 0 0 586.2v129.6L503 0Zm230.5 25.8C660.1 77.2 690 165.8 690 180c0 13-4.3 34.6-7.2 51 47.1 70.6 80.4 143.5 96.3 263.4l97.6 80.5C859.8 286 760.7 186.7 642.4 25.8ZM1160 445c-22.8 0-45.6 18.4-27.5 55.2 10.8-3.2 22.4 1 27.5 19.8 5.1-18.8 16.7-23 27.5-19.8 18-36.8-4.7-55.2-27.5-55.2Zm-73.9 71c-48.4-.4-40.3 93.1 24.1 61.5-3.2-10.8 1-22.4 19.8-27.5-18.8-5.1-23-16.7-19.8-27.5a56.4 56.4 0 0 0-24-6.5zm147.8 0c-7 0-15 2-24.1 6.5 3.2 10.8-1 22.4-19.8 27.5 18.8 5.1 23 16.7 19.8 27.5 64.4 31.6 72.5-62 24-61.5zm-73.9 17.7a16.2 16.3 0 0 0-16.2 16.3 16.2 16.3 0 0 0 16.2 16.3 16.2 16.3 0 0 0 16.2-16.3 16.2 16.3 0 0 0-16.2-16.3Zm0 46.3c-5.1 18.8-16.7 23-27.5 19.8-36.1 73.6 91.1 73.6 55 0-10.8 3.2-22.4-1-27.5-19.8Zm-277.8 60.6c-72 19.6-141.4 32.2-208.2 38.3l81.2 169.3c40.2-8.8 78.6-22 115.7-37.7A230.1 230.1 0 0 1 860 740c0-35.9 8-69.5 22.2-99.4zm-507.4 20.7A359 359 0 0 1 476 839.9c41.5 11 80.5 17.6 118.2 20.4l-86.1-180.5a1101 1101 0 0 1-133.3-18.5zM1100 885a25 25 0 0 0-25 25 25 25 0 0 0 25 25 25 25 0 0 0 25-25 25 25 0 0 0-25-25zm-62.4 157.7a70.6 70.6 0 0 0-17.6 47.3c0 37.2 27 67.8 61.4 69.8a432.1 432.1 0 0 0-43.8-117z"/></symbol><symbol id="b" preserveAspectRatio="none" viewBox="0 0 1300 2000"><path fill="#FC4" d="M216.6 0c22.6 33.8 49.2 66.4 53.9 105.5l-25.4 36-4-4c6.4-11.3 6-26.8-9.4-42.5-32.2-32.5-85.5 37.4-141.7-5 50 50-6.8 124.4 29.8 149.4 25.3 17.2 44.4 10.2 53.5-3.6l3.4 3.1-26.6 37.9c-25.8 4.6-50.6 6-70.1-6.8-14.7 26.2-45.3 28.7-70 40 61.4.3 120.5 3.8 154.3 42.3L412 0H216.6zm416.9 0 8.8 25.5C760.6 186.7 859.8 286 876.7 574.9l31.3 25.8C895.4 279.4 784 169.3 660.8 0h-27.3zm49.3 231.2-3.3 51a526.7 526.7 0 0 1 65 183.7l34.6 28.5c-15.9-119.9-49.2-192.8-96.3-263.2zM280.4 402.8l-11.1 28c90.3 32 178.4 53.2 271.2 57.4-21.4-9.8-42.8-21-60.5-18.2-24.3 3.8-48.7-10-69.5-29.5-43-9.3-86-22.1-130-37.7zm-11.1 28A363.7 363.7 0 0 1 166.5 568c116.1 44.8 235.2 76.3 363.2 83.3h-2.3l101.5 210.4 96-7.4c-73.6 12.4-154.8 10.9-249-14.8l6.1 32.6c160.3 40.2 287.9 12.7 400-33.3l-11-28c-46 19-94 34.7-145.7 43.5L627.7 652h-4.2A1084 1084 0 0 0 908 600.6L751 471.4l-30.2-24.8a726.3 726.3 0 0 1-93.2 10.8 178.8 178.8 0 0 1-25.6 31c40.7-.5 83.4-4.8 128.1-13A816.5 816.5 0 0 1 601.4 489c-7.5 6.8-15 11-21.4 11-11.8 0-25.1-5.3-38.8-11.5-93.5-4.5-181.6-25.7-272-57.6zm869 68.5c-22.8.7-47.8 40-8.3 50.7-55 15 15 85 30 30 15 55 85-15 30-30 55-15-15-85-30-30-4.2-15.5-12.8-21-21.7-20.7zm136.1 104.4c-23.6-.5-39.8 16-54.4 36.3l15 10c24.3-10.7 46.3-22.6 50-45-3.7-.8-7.2-1.2-10.6-1.3zM1053 628.9c-17.5 0-35.1 7.6-53 26.1 39.7 5 54.8 44.3 138 20.6l1.6-1c-28.6-25.1-57.4-45.8-86.6-45.7zm-27.9 68.4L892.3 857.6c20 27.1 39.7 50 58.6 71.4a270 270 0 0 0 77.2 377l15.6 10.3 54-53.6a781.1 781.1 0 0 0-7-53.9c-4 1.1-8.1 1.3-12.2 1-62.5-3.7-108.5-58.4-108.5-119.8 0-29.3 10.1-57.7 29.4-80.1a70 70 0 0 1 10.5-10c42.2 57.3 74.7 127.6 88 262.4l170.7-170.9 15-14.9 16.4-16.5-16.4 16.4c-6.9-37.4-18-72.6-39-101.4a147.5 147.5 0 0 0-74.7-53.2c-6-4.4-15.8-8.5-30-11a40 40 0 0 1-39.1 39.2c11.4 63.7 54 39.1 44.2 5 14.5 4.1 27.3-1.1 32.2-9.5 22.2 10 38.6 24.1 51.2 41.4 14.6 19.7 24 44 30.3 70.3-17-23.3-41.3-2.5-33.7 24.2-18.7-5.3-34.6 5-34.5 17.5a146.3 146.3 0 0 1-51.4-29c-25.4-23.1-41.4-57.9-41.2-113.8l1.3-6.1a40 40 0 0 1-39.2-40 40 40 0 0 1 40-40 40 40 0 0 1 40 39.2c63.7-11.4 39.1-54 5-44.2 9.1-32-27.7-55.6-42-4.7-6.6-31-16.2-61.5-33-87.5l230 189.6v-38.9l-274.9-226.2zm-3.7 52.2c10.6 7.9 19.5 17 27 27.4a165.5 165.5 0 0 1 25.2 53.5c-13.2-.5-24 15.6-18.6 34.6-24.1-6.9-43.5 12.4-30.3 28.4a159 159 0 0 1-65.6-33.5 112.5 112.5 0 0 1-15.4-17.1l77.7-93.3zm212.4 10-15.7 2.2c13.8 28.3 34.2 51.3 14.5 106.4l12.4 9.6c12.7-33.1 12.8-58.5 6.8-78.8-4.7-16-12-28.1-18-39.4zM1015 810a15 15 0 1 0 0 30 15 15 0 0 0 0-30zm-78.4 55.6c2.8 3.2 5.9 6.2 9 9 25 22.8 57.2 35.2 92 43-33.9 16-11.7 45.7 17.4 37.4-6.5 22.7 10.2 41.2 25.2 32.3 4.9 43.9 21.2 75.3 45.4 97.4 27.7 25.2 64.3 37.8 104.3 45.1l36.3-36-141.4 141.4c-13.6-111.3-42-181-78.5-235.6-33.3-50-71.3-86.4-109.7-134zm-54.3 5.4c-110.8 43.7-240.5 69.4-397.6 32.6l.3 30.8c143.2 31.8 266.4 13.8 371.4-22l26-41.4zm292.7 134a15 15 0 0 0-15 15 15 15 0 0 0 15 15 15 15 0 0 0 15-15 15 15 0 0 0-15-15zm-30 130a15 15 0 1 0 0 30 15 15 0 0 0 0-30z"/></symbol><path id="i" d="M-82.4-130.4H82.4v260.8H-82.4z"/></defs><rect width="239" height="335" x="-119.5" y="-167.5" fill="#fff" stroke="#000" rx="12" ry="12"/><use xlink:href="#b" width="164.8" height="260.8" x="-82.4" y="-130.4"/><use xlink:href="#b" width="164.8" height="260.8" x="-82.4" y="-130.4" transform="rotate(180)"/><use xlink:href="#c" width="164.8" height="260.8" x="-82.4" y="-130.4"/><use xlink:href="#c" width="164.8" height="260.8" x="-82.4" y="-130.4" transform="rotate(180)"/><use xlink:href="#d" width="164.8" height="260.8" x="-82.4" y="-130.4"/><use xlink:href="#d" width="164.8" height="260.8" x="-82.4" y="-130.4" transform="rotate(180)"/><use xlink:href="#e" width="164.8" height="260.8" x="-82.4" y="-130.4"/><use xlink:href="#e" width="164.8" height="260.8" x="-82.4" y="-130.4" transform="rotate(180)"/><use xlink:href="#f" width="164.8" height="260.8" x="-82.4" y="-130.4"/><use xlink:href="#f" width="164.8" height="260.8" x="-82.4" y="-130.4" transform="rotate(180)"/><use xlink:href="#g" width="164.8" height="260.8" x="-82.4" y="-130.4"/><use xlink:href="#g" width="164.8" height="260.8" x="-82.4" y="-130.4" transform="rotate(180)"/><use xlink:href="#h" width="32" height="32" x="-114.4" y="-156"/><use xlink:href="#a" width="26.8" height="26.8" x="-111.8" y="-119"/><use xlink:href="#a" width="55.7" height="55.7" x="34" y="-132.2"/><g transform="rotate(180)"><use xlink:href="#h" width="32" height="32" x="-114.4" y="-156"/><use xlink:href="#a" width="26.8" height="26.8" x="-111.8" y="-119"/><use xlink:href="#a" width="55.7" height="55.7" x="34" y="-132.2"/></g><use xlink:href="#i" fill="none" stroke="#44F"/></svg>