<svg xmlns="http://www.w3.org/2000/svg" xmlns:xlink="http://www.w3.org/1999/xlink" width="240" height="336" class="card" preserveAspectRatio="none" viewBox="-120 -168 240 336"><defs><symbol id="h" preserveAspectRatio="xMinYMid" viewBox="-500 -500 1000 1000"><path fill="none" stroke="red" stroke-linecap="square" stroke-miterlimit="1.5" stroke-width="80" d="M-260 100c300 0 220 360 520 360M-175 0v-285a175 175 0 0 1 350 0v570a175 175 0 0 1-350 0Z"/></symbol><symbol id="a" preserveAspectRatio="xMinYMid" viewBox="-600 -600 1200 1200"><path fill="red" d="M0-300c0-100 100-200 200-200s200 100 200 250C400 0 0 400 0 500 0 400-400 0-400-250c0-150 100-250 200-250S0-400 0-300Z"/></symbol><symbol id="g" preserveAspectRatio="none" viewBox="0 0 1300 2000"><path fill="none" stroke="#44F" stroke-linecap="round" stroke-linejoin="round" stroke-width="3" d="M1197.9 650c10 3 25.5-8.8 25.5-8.8m-6.2 23.8c12.8 5 12.8 20 12.8 20m-11.2 8.4c10.4 9.1 5.2 23.2 5.2 23.2m-4 13.4c9.4 10.1 2.8 23.6 2.8 23.6m-7.4 5c9.3 10.2 2.6 23.6 2.6 23.6m22-137.2c5 2.4 8.8 5.5 10 10m-7 30.8c4.2 3.6 7 7.5 7 12.2m-7.1 24c3.7 4 5.9 8.4 5.2 13m-7 24.4c2 5.2 2.4 10 0 14.1M595 405c12.7-6 25.9-7.3 40 0M495 165c20-20 45-20 60-5m-35 70c20 5 40-15 40-15m90-50c30-15 60 0 75 15v0m-55 50c35 0 55-20 55-20m-183.5-37.7a30 30 0 0 1 2.4 12c0 13-7.8 23.6-17.5 23.6-9.6 0-17.5-10.6-17.5-23.6 0-5 1.1-9.5 3-13.2m181 0c3 4.3 4.8 10 4.8 16.4 0 13-7.8 23.6-17.5 23.6-9.6 0-17.5-10.6-17.5-23.6a29 29 0 0 1 4-14.9"/><use xlink:href="#a" width="75" height="75" transform="rotate(30 -1675.2 2423.7)"/><use xlink:href="#a" width="75" height="75" transform="rotate(15 -3471.3 4392.8)"/><use xlink:href="#a" width="75" height="75" transform="rotate(3 -17229.3 20239.6)"/><use xlink:href="#a" width="75" height="75" transform="translate(1020.4 777)"/><use xlink:href="#a" width="75" height="75" transform="rotate(10 -3314.1 6448)"/></symbol><symbol id="f" preserveAspectRatio="none" viewBox="0 0 1300 2000"><path fill="none" stroke="#44F" stroke-linecap="round" stroke-linejoin="round" stroke-width="6" d="M545.8 382.4 0 698.4M210 967 0 1161.5m911.9-6c99.4-194.1 70.8-455.5 120-552.1M388.5 843.9c63.5 17.8 102.7 91.8 88.7 171.9-14.9 84.8-83.8 144.3-154 132.8-3.6-.6-7.1-1.3-10.5-2.2m597.3 65.2 24.2-44.7c54.8-107.1 71.6-230.6 83-336.7 5.8-53 10.1-101.8 16.6-141.4 5.9-22.7 8.5-47.9 17.9-69m67.8 45.3c-10 28.2-15 61.7-19.9 99.2-7.3 57.2-12.2 123.8-22.2 192.2-19.1 132.1-56.7 268.7-159.9 356.4M378.1 657.7A822.1 822.1 0 0 1 388.4 844M158 1322.2c46.1-143 3.6-495.2 220.7-664.3l11-8.6m866 92.5 44.4 22.9M750.7 123c68.4 306.5 222 452.1 391 555.1M283.4 534.6c211 146.2 474 157.4 717.8 40.6m-741.7-26.9a691.3 691.3 0 0 0 324.3 126m222-8.4a842.2 842.2 0 0 0 216-72.9m-40-36.2c-230.8 107.5-475.5 97-675-36.5M1101 972.8l199-184.3M895.2 670l4.2 196.8M825 687.4a858.5 858.5 0 0 0 168.4-53.7m-758-72A716.8 716.8 0 0 0 565.2 697m429-64.6c-15.8 55.6-19.4 128-28.3 207.8l-1.2 9.9M714.8 652.8l-4.7 290.8M680.7 654l14 284m120-298.7c-34.7 96.2-45 214-49.3 315.8M575 648.3c29.4 82.4 45.9 177.7 53.6 263.7m162.3 37.6c3.5-90 10.5-178 34.7-262.5m-39-43c-32 95.3-42 210.6-46.2 308m-86-31.1c-6.8-88.6-22.2-182.8-52-269.7m-37.5 46.5c19.2 63.6 32.2 140 38.8 206.9M676 0l364 600 50-30L746 0m206.3 341.3c48.6-25.4 87.1-58 142.7-36.3-29.7-93.6-66.3-185.7 11.6-305m-110 316.6L798 0m190.4 303.8-43.7 25.5m34.4-41L936 313.7m33.5-40.4-43.1 25.2m33.4-40.4-43.3 25.3m34-40.6-30.3 17.6m20.5-32.8-22.5 13.1M1040 145c-45 15-83.6-37.4-115-15-35 25 5.6 69.7 25 60 20-10 15-40-5-40s-10 15-10 15m105-20c-35.2 31.8-8.6 91.2-43.6 107.5-39 18-57.9-39.3-40-51.4 18.6-12.4 42.3 6.7 32.4 24-9.8 17.5-18 1.4-18 1.4m-43.4-20c26.7-8.2 51.7-24.3 77.6-36.5m-50 25c22.6-17.7 26-20.2 30-35m-30 35c17.8-3.5 40-2.7 50 5m-41.8 63.6a92.3 92.3 0 0 0 81.8-8.6c10.2 20.3 32 34 50 50m-121-24.5a180 180 0 0 0 66-.5c9 8.9 24.6 14.4 40 20M821 36.7c12.5 2.7 23 6.6 54-1.7 7.9 4.2 17.7 7 35 5-2.7 8.2-7.1 13.5-5 30a324.7 324.7 0 0 0-26 58.7m18.7 30.7c4.7-23.8 2-48.2 32.3-69.4 1.6-29.3 7-59.5 13.8-90M421.1 454.3c169.1 93.5 326.4 63 482.2 15.8m-33-47.5c-135 40-258 61.8-392.7-1.2m664.2 257L1160 660c5-5 27.8 2.1 39.4-13.5 16.8-22.6 34.8-5.7 17.5 13.3-14.3 15.7-36.9 27.4-36.9 27.4 10.5 34.9 6 67.3-10 97.8m60-140c40-50 60.5-13.6 25 20-39.9 37.7-63.6 28.3-25-20v0m5.5 35c52.2-37.1 61.9 3.5 18.6 26-48.7 25.4-69 9.9-18.6-26v0m.2 35.4c54.3-29.7 58.2 11.9 14.3 28.4-49.4 18.6-66.7.4-14.3-28.4v0m-.4 37.1c55-12.6 48.8 25.7 6 29-48.2 4-59.2-16.8-6-29v0m4.9 29.4c-3.4 19.3-21.5 42.7-35.2 48.1-18.5 7.3-62.3 13.9-87-6.6M586.6 977.7c7 1.8 14.2 4 21.7 6.4m-128.5-5.3c5.1-1.7 10.2-3.1 15.4-4.3m346-44c-31 15.4-48.7 22.6-66.2 24.2-18.4 1.7-44.4-1.3-95.5-23.4-56.2-24.4-104.6-36.5-149.6-36.1a233.6 233.6 0 0 0-68 10.5m34.7 53.1c-6.1 1.3-12.1 2.8-18 4.6m136.7 7.3c-11.6-4-22.5-7-33-9.5m65 21.5-7.3-2.9m106 34a309.3 309.3 0 0 1-77.5-22m152 13.5a162.3 162.3 0 0 1-47.5 9.6m-248.5-74.6a190 190 0 0 0-48 8m173.3 19.3a351.2 351.2 0 0 0-94.7-26.2M740 997.7a296 296 0 0 1-58-16.8m140.1 7.8a155 155 0 0 1-43 10.8m-259-74a202.8 202.8 0 0 0-46.8 8.2M825.5 971c-17.4 7.5-32.1 12-47.7 13.5-24.9 2.2-56.5-2.6-110.2-25.8-41-17.7-76-28.1-108-32m362.8 206.7c-1.3-.6-2.7-1.1-4.1-1.5-48.8-13.6-83-73.8-70.9-143.5 13-73.8 71.3-121.3 125.4-112.4 2.8.4 5.4 1 8 1.7 2 .5 3.8.8 5.6 1M955 1040c-19.3 0-35-18-35-40s15.7-40 35-40c6.6 0 12.8 2 18 5.7m-10.5 49.1a13.5 13.5 0 0 1-7.5 2.3c-8.3 0-15-7.6-15-17.1 0-9.5 6.7-17.1 15-17.1 5.3 0 9.9 3 12.6 7.7m-26.8-27.2L920 915l-32.7-5 2.7 40-35 15 15 40-23.2 30 33.2 20-10 40h40l5 35m5-215 20-35 35 20-12.6 60.7M975 900l10.3-10.3M910 1095l29.3-59.5M880 1055l46.2-32.4M870 1005l50.1-2.8M890 950l36.3 26.5M905 935l27.7 34.2M950 910l2.9 49.5M880 980l41.2 10.4M875 1030l46.9-16.7M900 1070l32.5-39.5M915 1130l11.1-4.4m8.9-35.6 11.8-51M217.6 729.2a13.8 15 45 0 1-20.3 1 13.8 15 45 0 1 .8-20.4 13.8 15 45 0 1 20.4-.9 13.8 15 45 0 1-1 20.3v0m2.3 16.3c4.3 3 7.2 8.2 6.7 19.5m7.2-33.9c3.4 4 9 6.4 20.5 5.1M181 707c-3-4.2-8.2-7.2-19.5-6.7m34-7.2c-4-3.3-6.5-9-5.2-20.5m10 67.5a46.4 46.4 0 0 0-14.7 27.7m1.7-40.6a46.4 46.4 0 0 1-27.7 14.7m69-30a46.4 46.4 0 0 1 27.7-14.8m-40.7 1.8a46.4 46.4 0 0 0 14.8-27.7M213.2 753c.4 28 7 7 31.8 46 7-7.1 17.7-24.8 10.6-31.9 7 7.1 24.7-3.5 31.8-10.6-38.9-24.7-18-31.3-46-31.8m-67.1-10.6c-28-.5-7-7-46-31.8 7-7 24.8-17.7 31.8-10.6-7-7.1 3.6-24.8 10.6-31.8 24.8 38.8 31.4 18 31.9 46m4 60.6c-15.7 41.1-14 14.2-71.2 84.3a30.5 30.5 0 0 1 1.8-40.7 30.5 30.5 0 0 1-40.7 1.8c70.1-57.2 43.2-55.5 84.3-71.3m54.2-2.4c41-15.8 14.1-14.1 84.2-71.3a30.5 30.5 0 0 0-40.6 1.8 30.5 30.5 0 0 0 1.7-40.7c-57.1 70.2-55.4 43.2-71.3 84.3M0 908.1a13.8 15 45 0 1 18.5.7 13.8 15 45 0 1-1 20.3 13.8 15 45 0 1-17.5 3m19.8 13.3c4.3 3 7.2 8.2 6.7 19.5m7.2-33.9c3.4 4 9 6.4 20.5 5.1m-54 4-.2.1m28.5-28.5A46.4 46.4 0 0 1 56.2 897m-40.7 1.8A46.4 46.4 0 0 0 30.3 871m-17.1 82c.4 28 7 7 31.8 46 7-7.1 17.7-24.8 10.6-31.9 7 7.1 24.7-3.5 31.8-10.6-38.9-24.7-18-31.3-46-31.8M0 870.7c1.7 2.4 2.4 6.4 2.6 15.1m4 60.7a155 155 0 0 1-6.5 15.2M35 918.2c41-15.8 14.1-14.1 84.2-71.3a30.5 30.5 0 0 0-40.6 1.8 30.5 30.5 0 0 0 1.7-40.7C23.2 878.2 25 851.2 9 892.3m13-24.7c.7-3.5 1.7-7.3 3-11.3a183.6 183.6 0 0 1 45.5-70.2c23-23 48.7-38.8 70.2-45.6 3.8-1.2 7.4-2 10.7-2.7m38 38.1c-.6 3.4-1.5 6.9-2.7 10.7a183.6 183.6 0 0 1-45.5 70.2c-23 23-48.8 38.8-70.3 45.6-3.4 1-6.7 1.9-9.8 2.5m1.7 29.8c6-1 12-2.4 18-4.3a208.2 208.2 0 0 0 81.6-52.4 208.2 208.2 0 0 0 52.4-81.6c2.6-8.1 4.3-16.3 5-24.3m-64.3-64.7c-8.1.7-16.4 2.4-24.6 5A208.2 208.2 0 0 0 49.3 765c-23 23-39.9 48.2-49.3 72.7m263.4-101.3a144 144 0 0 0 15.4-3.8 179 179 0 0 0 45.6-22.7m-79-141.1a206.7 206.7 0 0 0-50.6 79.8c-1.6 5.3-3 10.6-3.9 15.8M220 670c.6-3.6 1.6-7.5 3-11.7a183.6 183.6 0 0 1 47.4-72.1m89 49.5a219.5 219.5 0 0 1-20.2 23.1c-23 23-48.8 38.8-70.3 45.6-3.5 1-6.8 2-10 2.6M.2 1030.8a168 168 0 0 0 16.7-36.4 113 113 0 0 0 4.6-20.2m31.5 92.3 27.2 20.9m-78-60 29 22.3m7.5 27.3 28.8 22.1M0 1047.3l24.3 18.7M0 1068.8l54.6 42M0 1090.5l42 32.2M0 1112l29.2 22.5m-29.2-1 15 11.6m1.5-149.6 89 68.4M10 1012l82.8 63.7M74.4 932.3 169 1005m-85.8-44.4 73 56.2m-90-47.7 77.4 59.4M56 982.8l74.8 57.5M47 997.4l71 54.7m-97-74.8 19.7 15.2M178 861.2l49.3 37.9m-91-70 17.7 13.6m-78.7-60.5 56.4 43.3M0 724.2l50.7 39m116 110.8 55.7 42.8M62.9 794.1l79.7 61.3M0 745.8l38.8 29.8m115.4 110.3 63.6 49m-106-81.6 18.1 14m-43.3-33.4 8.3 6.4m-43-33 17.7 13.6M0 767.3 28 789m113 108.2 72.6 55.9m-115-88.5L116 878m-74-57 16.4 12.7M0 788.8l18.2 14m161.2 145.6 27.7 21.3m-80.4-61.9L158 932m-72-55.5c5 4 10.2 7.9 15.3 11.8m-67.8-52.1 12.8 9.8M0 810.4l9.2 7m156.3 141.8 29 22.3m-83.2-64 37.3 28.7M74.1 889l10.9 8.4M26.3 852l7.1 5.5m60.2 67.9 88.1 67.7M63 902l3 2.3m151.9-120 40.3 31m-197.5-152 66 50.7m86.6 88.2 37.8 29.2m-67-51.6 3.9 3m-52.6-40.5 8 6.1m-98.6-75.8 63.7 49m97.7 96.7 38.4 29.6M171 791.2l10.8 8.2m-63.6-48.9 13.3 10.3m-102.7-79 63.5 48.8m105.4 102.6 40.7 31.3m-79.4-61 14.5 11.1m-71.3-54.9 16.8 13M12.8 691l64.3 49.5m111.4 107.2 44 34m-84.8-65.4 16.7 12.8m-40.7-31.3 6.1 4.8M88 770.4l18 13.8M0 702.7l63.5 48.8m213 13 5.7 4.5M108.7 635.5l44.5 34.3m105.3 102.5 15.3 11.7M92.7 644.8l42 32.2m117.8 112.2 13.3 10.2M76.8 654l70.5 54.3m133.2-26.8 14.7 11.3m-65.8-50.6 11.4 8.8m-68.2-52.5 32.5 25m99.5 98 6.3 5m-41.6-32 8.6 6.6m-55.3-42.5 5 3.7m-71-54.5 41.5 31.9m89.4 90.3 13.4 10.3M140.6 617l51.9 39.9m74.3 78.7 24.5 18.8M124.6 626.3l36.2 27.8m125.8-32.5 50.6 39m-79.3-61 18 13.7m-55.4-42.5L234 581m71.8 76.8 18.8 14.5m-77.4-59.6 17.6 13.6M204.5 580l19 14.6m69.3 74.9 17.5 13.4m-72.8-56 15.7 12m-64.7-49.6 25.2 19.3m56.1-21.4 79.3 61m-112.6-86.7 8.9 6.9m388.1-53.8v84.3c0 30 40 40 40 0v-84.3m-34.6.2c19.6 54.5 14.6 94 14.6 94m17-94c-17 35.9-17 94-17 94m22.2-94.3 7 83.6c2.6 29.9 43.3 36.4 40-3.4l-7.1-83m-34.4 2.6c24 52.4 22.3 92 22.3 92m8.7-94.3c-13.5 37.2-8.7 94.3-8.7 94.3m17.1-95.2 6.3 82.7c2.3 30 43 36.9 39.9-3l-6.5-85.3m-34 5.1c23.2 52.4 21.3 91.7 21.3 91.7m10.3-96.5c-14.8 37-10.3 96.5-10.3 96.5m13.8-96.1 13.3 84c4.6 29.6 45.7 33.2 39.5-6.3l-13.7-86.4m-34.2 7.9c28.4 51.2 29.7 91.5 29.7 91.5m3.1-99.2c-12.8 38-3.1 99.2-3.1 99.2m6-97.8 18.2 83c6.4 29.4 47.6 30.6 39-8.5L840.5 488m-33.6 10c31.3 49.4 35 89.6 35 89.6m-2.6-99.6c-10.8 38.7 2.5 99.6 2.5 99.6m3.2-99.3 25.4 81.1c9 28.7 50.2 26.2 38.2-12L883.1 476m-33.3 10.8c35.5 46.5 42.7 86.2 42.7 86.2m-11.8-96.4c-6 39.4 11.8 96.4 11.8 96.4m.6-99.9C927.3 517.5 935 555 935 555m-48.1-80 26 77c9.5 28.3 50.6 25 37.9-12.9l-6.8-19.9m-22.6-25.9A334.2 334.2 0 0 0 935 555m-345.5-44.2-8 82.3c-2.9 29.9 36 43.7 39.8 3.9l8-82.7m-34-2.7c13.7 55.3 5.2 93.4 5.2 93.4m25.2-91c-19.7 34.3-25.2 91-25.2 91m-56-102.5-8 83.2c-3 29.9 35.9 43.7 39.8 3.9L584 510m-33.8-6.2c13.8 55.5 5.2 93.8 5.2 93.8m23.9-88.4c-18.6 34.5-23.9 88.4-23.9 88.4m-52-106.9-21 80.1c-7.6 29 28.6 48.9 38.7 10.2l20.8-79.2m-32.8-9.2c4.6 56.7-9.9 93-9.9 93m38.7-84.8c-24.5 30.8-38.7 84.8-38.7 84.8m-30.6-108.1-30.3 74.3c-11.3 27.8 22 52.2 37 15.1l30.7-75.3M474.8 480c-3.2 55.4-21.7 88.5-21.7 88.5m48.8-78.5c-28 27.5-48.8 78.5-48.8 78.5m-20-107.9-40 75c-14.1 26.5 16.5 54.1 35.3 18.8l41-76.7M437.5 463c-8.2 58-31.5 90.8-31.5 90.8m61.8-76.8C435 499.8 406 553.9 406 553.9m-51-61-8.6 10.2c-19.3 23 4.9 56.3 30.6 25.7l57-67.7m-42.5 11c-17.7 34.3-36.2 51.5-36.2 51.5m78-63c-37.4 14.8-78 63-78 63m-69.5 8.7c72-217 142-384.2 209-473.5M323 511c58.6-174.4 116-315.1 171.4-406.6M385 475.9c38.3-111.1 76-207.3 112.9-284.3m-75 261.6A2989.7 2989.7 0 0 1 504 243.5M294.4 507.2l25.7 5.9m-20.6-20.9 40.5 9.3m-35.4-24.3L360 490m-50.3-27.8 70.2 16.2m-65-31.1 85 19.6m-79.6-34.5 99.5 23m-94.1-38L427.2 441m-96.1-38.3L432.6 426m-96-38.3L437.8 411M355 375l88.6 20.4M375 365l73.5 17M405 355l49.4 11.4M495 0v160c0 15 15 135 20 155s55 140 110 140 105-55 105-55m88.7-44.6c-18.7 34.5-48.7 66-74.2 97.6m14.5-53.8c-15.6 19.9-32.9 39.1-48.3 58.4m78.9-79.4c-18.5 26.8-41.9 52-62.2 77.4m-22.2-27.4c-9.1 10.7-18.1 21.4-26.5 32m11-27c43.8-10.8 110.2-61 137.7-85.2m5.3 9.2c-18.1 32.6-46 62.6-70.6 92.5m77.6-79.2c-16.9 26.2-39.2 51-59.6 75.6m66.2-63.3c-14.4 20.3-31.6 39.8-47.7 59.2m54.3-47.8c-11.2 14.6-23.5 28.9-35.4 43m41.8-32a1432 1432 0 0 1-22.3 26.7m-107.2-15.2c-12 14.3-24.2 28.4-35.3 42.6m-36.7-10.4-9.6 12m34-23.2a881 881 0 0 0-19 23m-53-8.5-4.8 5.9m17.6-3.2-3.7 4.5m19.6-5.7-5.3 6.6m-51.9-28-15.9 19m24.4-11.3c-4 4.7-7.8 9.4-11.6 14.1m21-7.4-7.7 9.5M559.4 405c-10 12.3-20.4 24.5-30.5 36.6m37.6-27C558 425 549.3 435 541 445.2m32.9-21.3L553 448.5m-32.7-51c-8.3 10.5-17 21-25.8 31.3m51.3-45.4c-12.2 17.1-26.3 33.6-40.1 50m46.9-38.9c-11.3 14.6-23.5 28.9-35.4 43m434.5-96.4h1M819 329.9c20.9 12 50.8 29.6 82.5 42.2M808 305.2c19.4 11.2 47.3 27.8 77.6 40.6m-87.2-64.4c17.8 10.3 43.3 25.5 71.3 38m-80.1-61.3c16.2 9.3 38.7 22.7 63.7 34.5m-71.8-57.4c14.5 8.2 33.8 19.7 55.4 30.4m-62.7-53c12.5 7.2 28.5 16.7 46.4 25.9m-53-48c10.1 5.9 22.4 13.1 36.1 20.4M761 168.5c7.7 4.4 16.5 9.6 26.1 14.9m44.1 171.8c22.3 12.8 53.5 30.9 86.2 42.9m-72.2-16.6a508.3 508.3 0 0 0 87.8 42.3m-71.4-14.6a449 449 0 0 0 86.8 40m-68.8-11.5a395.7 395.7 0 0 0 84 36.6m-62.5-6.4c23.6 12.5 50.8 25 77.6 31.3m-51.8.7a289 289 0 0 0 66.8 24m-37.7 8.5a239 239 0 0 0 52.5 15.8m-22.3 14.5a235 235 0 0 0 38 11.3m202.5-143.6c10-3.7 28.2-25.4 48.2-25.4-20 0-38.3-21.7-48.2-25.4-11-4.1-26.8.4-41.8 10.4 10-15 14.5-30.9 10.4-41.8-3.7-10-25.4-28.2-25.4-48.2 0 20-21.7 38.3-25.4 48.2-4.1 11 .4 26.8 10.4 41.8-15-10-30.9-14.5-41.8-10.4-10 3.7-28.2 25.4-48.2 25.4 20 0 38.3 21.7 48.2 25.4 11 4.1 26.8-.4 41.8-10.4-10 15-14.5 30.9-10.4 41.8 3.7 10 25.4 28.2 25.4 48.2 0-20 21.7-38.3 25.4-48.2 4.1-11-.4-26.8-10.4-41.8 15 10 30.9 14.5 41.8 10.4v0m-124.5-45.3c-20.5-26 19.6-68.2 47.6-46.8m90 49.9c27.7-26.6-19.4-76.2-48.4-46.7m-88.2 82.2c-23 26 19 70.6 47.4 47.4m89.1-49.4c28 26.6-19.3 76.4-48.4 46.8M1155 390l-35-35m65 35 35-35m-65 65-35 35m65-35 35 35m-59.6 31.4c3.8 80.8 35.1 104.7 35 162m-19.8-157.7c4.3 71.5 30.5 97.5 34.3 145.3m-14.9 9c-10.2-37.4-63-86.3-115-60 46-3.6 39.7 80.6 115 60v0m.4 3.1c-17.5-27.4-38.9-38-60.4-48.1m75 30c-9.7-63.4 2.7-107 55-115-35.6 31.8 7 101.2-55 115v0m0 0c5-32 12.8-59.3 25-80M623 0c18.2 57 55.4 84.5 107.5 89.3M640.7 0c16.1 35 41.5 56 74.7 64.9M663.9.4c9.3 15 20.9 26.9 34.4 35.5m-203 66.2C564.8 63 570 31.8 578.6 0M495 78.3c46.2-29 57.5-53.9 64.5-78.3M495 48.3c23.5-17.2 35.3-33 42.4-48.3M605 330s-5-20-15-20-20-4-20-19c0-10 23.7-81.5 15-141-27.2-19.3-56-29.6-90-10 1.7-.4 3.5.2 5.1-.4 29.9-9.6 58.2-9.2 84.9 10.4m35 0c36-42.8 75.4-22.4 115 0-37.6-16.5-75-35-109.5.2-1.1 1.2-4.2-1.4-5.5-.2v0m10 120c30.4-1 25 35 10 35-6.6 0-13.4-8.2-18.7-8.6C605 295 605 305 625 300m-50 50v10l5-5-5-5v0m95-5v10l-5-5 5-5m-90 10c12 6.3 14.5-4.8 20-5 5 0 10.7 4.7 15.7 4.7s12.8-6.2 17.8-6.2c17.8 11 19.3 2 31.5 1.5m-70 25c13 15.6 28.6 10.9 45 0-13.5 8-29 5.2-45 0v0m-95-190a29 29 0 0 1 25.4-17.1C544.9 168 560 190 575 190m-77.2 1.6c3.3 9.6 14.7 13 27.2 13.4 21.5 1 35-10 50-15m55 0c22-.8 30.6-17.6 45-20 30-5 50 20 65 20m-90-5c-5 15 17 25 30 25 19.2.1 45-20 60-20M283.4 534.6c211 146.2 474 157.4 717.8 40.6M180 945a15 15 0 0 1-15 15 15 15 0 0 1-15-15 15 15 0 0 1 15-15 15 15 0 0 1 15 15v0m0 0a15 15 0 0 1-15 15 15 15 0 0 1-15-15 15 15 0 0 1 15-15 15 15 0 0 1 15 15v0M53.4 1062.4a15 15 0 0 1-15 15 15 15 0 0 1-15-15 15 15 0 0 1 15-15 15 15 0 0 1 15 15v0m1042.6-59.6 204-189M540 1005c-36.8 22.2-13.1-13.8-10-30-16.2 3.1-52.2 26.8-30-10l-3.5-6.2c-14.3-27.7 18.3-6.7 33.5-3.8-3.1-16.2-26.8-52.2 10-30 36.8-22.2 13.1 13.8 10 30 15.6-3 49.5-25 32.3 6a122 122 0 0 1-2.3 4c22.2 36.8-13.8 13.1-30 10 3.1 16.2 26.8 52.2-10 30v0m90 29.6c-43 .9-4.4-18.5 6.3-31-15.5-5.4-58.6-2.9-21-23.6-.8-43 18.6-4.4 31 6.3 5.5-15.5 3-58.6 23.7-21 43-.8 4.4 18.6-6.3 31 15.5 5.5 58.6 3 21 23.7.8 43-18.6 4.4-31-6.3-5.5 15.5-3 58.6-23.7 21v0m540-647.2a18 18 0 0 1 17.5 17.5 18 18 0 0 1-17.5 17.5 18 18 0 0 1-17.5-17.5 18 18 0 0 1 17.5-17.5v0"/></symbol><symbol id="e" preserveAspectRatio="none" viewBox="0 0 1300 2000"><path d="m676 0 364 600 50-30L746 0ZM504.2 244c-26.8 60.5-54 131-80.9 209.2l122.2-71A340.6 340.6 0 0 1 515 315a1026 1026 0 0 1-10.9-71zM259.5 548.3l-24 13.5A722.5 722.5 0 0 0 565 697.3c19 64 32 140.4 38.5 207.4 7.8 2 15.9 4.3 24.6 7a1132.4 1132.4 0 0 0-44.4-237.5 690.4 690.4 0 0 1-324.2-125.9Zm762.3 44.7A822.3 822.3 0 0 1 806 665.4c-27.7 90.5-36.6 196.9-41 289.7 3.3 0 6.8-.1 10-.4 5-.5 10-1.4 15.5-4 3.8-91.1 10.8-179.2 34.7-263.5A822 822 0 0 0 993.8 633c-15.4 54.9-19 127.2-28 207a67 67 0 0 1-1.5 10c4 .3 8.3.7 12.6 1.4l11.5 2c13.4-106.2 18-200.1 43.5-250z"/></symbol><symbol id="d" preserveAspectRatio="none" viewBox="0 0 1300 2000"><path fill="#44F" d="M526.4 166.7a12.5 20 0 0 0-12.5 20 12.5 20 0 0 0 12.5 20.1 12.5 20 0 0 0 12.5-20 12.5 20 0 0 0-12.5-20.1zm152.4 2.5a12.5 20 0 0 0-12.5 20 12.5 20 0 0 0 12.5 20.1 12.5 20 0 0 0 12.5-20 12.5 20 0 0 0-12.5-20.1zM478.6 423.9l-9.7 2.5 1.2 4.8 11.6 46.2 36.5-19 14.4 33.7 35.8-20.4L591 506l33-27.2 26.4 31.5 29.8-30.6 30.5 27.6 24-31 29.2 26.3 25.2-39 37.7 23.4 20.2-35.4 38.2 19.3 6.6-15.5-6.7-10-5 11.8-37-18.8-19.9 34.6-37.2-23-24.1 37.4-28.6-25.8-24 31-29.5-26.8-28.8 29.6-25.7-30.6-32 26.4-21.7-32.9-34.2 19.6-14.2-33.4-34.9 18.1-8.4-33.8zm-57.3 30.4-114.5 66.3c199.5 133.2 444.2 143.7 674.1 36a684 684 0 0 1-77.5-86.3l-16.3 4.8 57 44.1 6.7 20c12.7 37.8-28.4 41.1-38 12.7L887 475.2l-3.9 1.1 25.5 81.3c12 38.1-29.2 40.6-38.2 12L845 488.3l31.4-10.1c-12 3.4-24 6.6-35.9 9.8l18.7 85.5c8.6 39-32.6 37.9-39 8.6l-18.2-83 33.5-9.9c-11.6 3-23.3 5.8-35 8.4l13.7 86.2c6.2 39.5-34.9 35.9-39.5 6.2l-13.3-84 21.4-4.7c-7.5 1.5-15 3-22.5 4.2l6.5 85.2c3 39.9-37.6 33-39.9 3l-6.2-82.5-5.1.5 7 82.9c3.4 39.8-37.3 33.3-39.8 3.4l-7.1-83.4-2.2.1v84c0 40-40 30-40 0v-84.1l-4.2-.2-8 82.5c-3.8 39.8-42.7 26-39.8-3.9l8-82.3a467 467 0 0 1-5.5-.7l-7.7 79.5c-4 39.8-42.7 26-39.8-3.9l8-83.2-2.6-.6-20.8 79c-10.1 38.8-46.3 19-38.7-10l15.7-59.9-22.7 56c-15.1 37-48.4 12.6-37-15.2l27.2-67-37.2 69.7c-18.8 35.3-49.4 7.7-35.3-18.8l37.8-70.9-53.9 64c-25.7 30.6-49.9-2.8-30.6-25.7l8.6-10.2 77.6-31.2.5-1 1 .4.3.2c-4.4-2.2-8.7-4.6-13.1-7zM993.8 633c-33 14.8-66 26.9-98.8 36.9l4.7 196.8a118.8 118.8 0 0 1 65-16.7l1.2-10c9-79.8 12.5-152.1 28-207zm-207.2 11.2c-23.7 4-47.6 6.9-71.6 8.6 47.2 3.2 63.2 22.5 7 27.5 38.8 5 44.2 19.5-7 24.7 40 4 53.5 23.4-1.5 32.6 34.8 4.9 43.1 22.5-.6 27.4v7.2c32 6.5 40.4 19.5-.5 22.6l-.1 8c30.5 5.1 37.4 16.4-.4 21.4v4.5c25.3 5.1 30.4 14.8-.4 19.8l-.1 5.1c25.8 5.1 31.2 15-.4 20v5c26.3 5 31.8 15-.4 20.1v.8c21 5 24.9 13.5-.4 18.4v1.5c21.5 5.1 25.4 13.6-.4 18.6v5.3c11.7 4.1 22 7 30.7 8.8 4-97.4 14-212.7 46.1-308zm-184.5 7.1c30 86.9 45.4 181.1 52 269.6 8 3 16.7 6.6 25.4 10.4l15 6.4-.9-17c-41-2.6-48-16.7-1-22.7l-.2-3.4c-42-2.4-49.3-16.9-1.1-22.8v-1c-44.1-2-52-17.2-1.2-23.1l-.2-3c-45-2-53-17.3-1.1-23.2v-1.3c-47.5-1.8-56.3-19.8-1.3-26.3l-.1-1.6c-51.2-1.1-61-20.5-1.3-26.7l-.1-2.4c-50-1.4-59.5-20.3-1.3-26.6l-.1-1.6c-56.1-.1-67.6-23-1.5-29.3v-.4c-63.9 1.8-77.9-24.1-1.4-29.8v-.8c-56.5 2.4-77.7-12.6-39.3-20.7-13.5-.5-27-1.3-40.3-2.7zm653.6 90.5a4682.6 4682.6 0 0 0 44.3 22.8zm18.6 9.7-2.2-1.2-2.9 2.4c14 7.3 1.9 26.5-28 28.9-.6 0-1.3 0-1.5.2-2.9 19.4-21 42.8-34.7 48.2-18.5 7.3-62.3 13.9-86.9-7-4.8 46-9.7 97-17.4 149.5L1300 788.2v-23.3c-8.5-4.6-17-9-25.7-13.4z"/></symbol><symbol id="c" preserveAspectRatio="none" viewBox="0 0 1300 2000"><path fill="red" d="m746 0 206.1 341.3c15.3-7.9 29.4-16.5 44-24.3L798 0Zm129 35c-31 8.3-41.5 4.4-54 1.7l58 92c7-19.4 14.2-38.9 26-58.7-2.1-16.5 2.3-21.8 5-30-17.3 2-27.1-.8-35-5zm165 245a180 180 0 0 1-66 .5l23.2 36c26.2-13.8 51.9-23.2 82.6-16.4-15.2-5.7-30.9-11.2-39.8-20.1Zm130 20c0 14.5-11.3 28-19.6 38.2-28.5-21.3-68.6 21-47.7 47.4-9.8 8.2-23.3 19.4-37.7 19.4 14.3 0 27.7 11 38 18.7-22.6 26 19.2 70.6 47.5 47.3 7.4 10 19.5 24 19.5 39 0-16.2 14.1-31.2 21.5-41.6 29 29.7 76.2-20.1 48.3-46.7 9.8-7.5 22.2-16.7 35.2-16.7-12.8 0-25-8.9-34.8-16.6 27.4-26.8-19.7-76.4-48.9-47.1-7.6-10.6-21.3-25.4-21.3-41.3Zm0 37a3 3 0 0 1 3 3v22.6a43 43 0 0 1 39.4 39.4h27.6a3 3 0 1 1 0 6h-27.6a43 43 0 0 1-39.4 39.4V475a3 3 0 1 1-6 0v-27.6a43 43 0 0 1-39.4-39.4H1100a3 3 0 1 1 0-6h27.6a43 43 0 0 1 39.4-39.4V340a3 3 0 0 1 3-3zm-692.2 84.5-56.7 33c169.1 93.3 326.4 62.8 482 15.5a716.2 716.2 0 0 1-32.5-46.6l-.4-.8c-135 40-257.9 61.8-392.4-1.1zm-87.2 228.1-12.5 8.1A824.5 824.5 0 0 1 388.4 844c31.3 8.7 56.6 31 73.1 61.4 15.6-4.1 31.8-7.6 49.3-9.2 6.3-.5 12.7-.9 19.1-1 23.5-.1 48 3 73.8 9.6-6.7-67-19.7-143.3-38.7-207.4a736.4 736.4 0 0 1-174.4-47.7Zm504.8 20.2-70.2 17.4c-24 84.3-30.9 172.4-34.7 263.6 13-2.4 28.4-9.2 50.6-20.2v-.6c14.3-27.1 34.6-49 58.2-63zM208.7 705a13.8 15 45 0 0-10.6 4.7 13.8 15 45 0 0-.8 20.3 13.8 15 45 0 0 20.3-.9 13.8 15 45 0 0 .9-20.3 13.8 15 45 0 0-9.8-3.8zm1047 36.8 44.3 22.9v-.1zM8.7 905a13.8 15 45 0 0-8.7 3.1v24a13.8 15 45 0 0 17.6-3 13.8 15 45 0 0 .9-20.3 13.8 15 45 0 0-9.8-3.8ZM540 955a10 10 0 0 0-10 10 10 10 0 0 0 10 10 10 10 0 0 0 10-10 10 10 0 0 0-10-10zm110 35a10 10 0 0 0-10 10 10 10 0 0 0 10 10 10 10 0 0 0 10-10 10 10 0 0 0-10-10z"/></symbol><symbol id="b" preserveAspectRatio="none" viewBox="0 0 1300 2000"><path fill="#FC4" d="m798.1 0 198 317c30.5-16.1 60.7-26.9 98.9-12-29.8-93.7-66.3-185.7 11.7-305ZM495 59c-67 89-137.2 256.3-209.2 473.6l15.6-9-18 10.9a666 666 0 0 0 291.5 113.7c29.4 82.5 45.9 177.7 53.1 263.5a545.2 545.2 0 0 1 51.5 19.5c42.5 18.4 67.7 23.5 85.8 23.8 4.5-101.7 14.7-219.6 49.4-315.8h-2.1a819.4 819.4 0 0 0 188.6-64l-19.5-18.5C751 664.3 506.4 653.8 307 520.4l116.4-67.3A2623.3 2623.3 0 0 1 504 243.9c-4.6-36.9-9-75.9-9-83.9Zm770 456c-52.3 8-64.7 51.6-55 115 62-13.8 19.4-83.2 55-115zM245.5 568.7a206.7 206.7 0 0 0-50.7 79.8c-1.6 5.3-3 10.6-3.9 15.5a95 95 0 0 1-20.2-24.1c-7 7-17.6 24.7-10.6 31.8-7-7.1-24.7 3.5-31.8 10.6 19 12 23.7 19.8 27 24.9-8 .9-16.2 2.6-24.5 5.2A208.2 208.2 0 0 0 49.3 765c-23 23-39.8 48.2-49.3 72.6v38.6a42.5 42.5 0 0 1 39.7 11.5 44.7 44.7 0 0 1-.9 62.7A46.2 46.2 0 0 1 0 963.2v67.8a150.9 150.9 0 0 0 21.7-57.3c5.2 2.8 12.6 8.4 23.3 25.3 7-7.1 17.7-24.8 10.6-31.9 7 7.1 24.7-3.5 31.8-10.6a77.5 77.5 0 0 1-24.8-21.8 114 114 0 0 0 18.2-4.3 208.2 208.2 0 0 0 81.6-52.4 208.2 208.2 0 0 0 52.4-81.6 112 112 0 0 0 5-24.5c4.8 3 12.7 7.3 25.2 27 7-7 17.7-24.7 10.6-31.8 7 7.1 24.7-3.5 31.8-10.6a87.3 87.3 0 0 1-24-20.3c5.1-.8 10.3-2.1 15.4-3.7 15-4.8 30.3-12.4 45.4-22.5-155.4 181.2-124.4 482.7-166.2 612.2 0 0 17.1 27.8 22.3 13.2 10-28.3 15.2-62 20-99.7 7.4-57.2 12.3-123.8 22.3-192.2 19.1-132.1 56.7-268.7 159.9-356.4l-3.8-29.2 11-8.6-30.4-13.6a219.5 219.5 0 0 1-20.1 23.1c-23 23-48.8 38.8-70.3 45.6-3.5 1-6.8 2-9.8 2 9.7-9.2 12.9-21 60.1-59.5a30.5 30.5 0 0 0-40.6 1.8 30.5 30.5 0 0 0 1.7-40.7c-39.7 48.8-51 50.6-59.9 61.5.2-3.1 1.2-7 2.5-11.2a183.6 183.6 0 0 1 47.5-72.1zm866 8.8a67 67 0 0 0-31.5 7.5c46-3.6 39.7 80.6 115 60-8.1-29.8-43.3-67-83.6-67.5zm-79.6 25.9c-25.5 50-30.1 144.1-42.5 250.3h-2a108 108 0 0 0-10.5-2.3c-70.3-11.5-139.2 48-154 132.8-14.1 80.1 25.1 154.1 88.8 171.6a650.5 650.5 0 0 0 .2-.3l-2 56 24.3-44.6c54.8-107.1 71.6-230.6 83-336.7 5.8-53 10.1-101.8 16.6-141.4 5.9-22.7 8.5-47.9 17.9-69zm-822 71.8c10.7 0 21.4 4 29.8 12.4a44.7 44.7 0 0 1-.9 62.7 44.7 44.7 0 0 1-62.8 1 44.7 44.7 0 0 1 1-62.8 46.2 46.2 0 0 1 32.9-13.3zM151.6 738c-7.2 8.6-16.3 22.2-55.1 53.9a30.5 30.5 0 0 0 40.7-1.8 30.5 30.5 0 0 0-1.8 40.7c31.7-39 45.3-48 54-55.1-.6 3.6-1.5 7.1-2.7 10.9a183.6 183.6 0 0 1-45.5 70.2c-23 23-48.8 38.8-70.3 45.5-3.4 1.1-6.7 2-9.9 2.2 8.4-8.8 13.9-21.4 58.2-57.6a30.5 30.5 0 0 0-40.6 1.8 30.5 30.5 0 0 0 1.7-40.7c-37.6 46.2-49.7 50.3-58.2 59.5.6-3.4 1.6-7.2 2.8-11.2a183.6 183.6 0 0 1 45.6-70.2c23-23 48.7-38.8 70.2-45.6 3.8-1.2 7.4-2 10.9-2.5zM1300 788.5l-199 184.3-5 30 204-189ZM165 930a15 15 0 0 0-15 15 15 15 0 0 0 15 15 15 15 0 0 0 15-15 15 15 0 0 0-15-15zM38.4 1047.4a15 15 0 0 0-15 15 15 15 0 0 0 15 15 15 15 0 0 0 15-15 15 15 0 0 0-15-15z"/></symbol><path id="i" d="M-82.4-130.4H82.4v260.8H-82.4z"/></defs><rect width="239" height="335" x="-119.5" y="-167.5" fill="#fff" stroke="#000" rx="12" ry="12"/><use xlink:href="#b" width="164.8" height="260.8" x="-82.4" y="-130.4"/><use xlink:href="#b" width="164.8" height="260.8" x="-82.4" y="-130.4" transform="rotate(180)"/><use xlink:href="#c" width="164.8" height="260.8" x="-82.4" y="-130.4"/><use xlink:href="#c" width="164.8" height="260.8" x="-82.4" y="-130.4" transform="rotate(180)"/><use xlink:href="#d" width="164.8" height="260.8" x="-82.4" y="-130.4"/><use xlink:href="#d" width="164.8" height="260.8" x="-82.4" y="-130.4" transform="rotate(180)"/><use xlink:href="#e" width="164.8" height="260.8" x="-82.4" y="-130.4"/><use xlink:href="#e" width="164.8" height="260.8" x="-82.4" y="-130.4" transform="rotate(180)"/><use xlink:href="#f" width="164.8" height="260.8" x="-82.4" y="-130.4"/><use xlink:href="#f" width="164.8" height="260.8" x="-82.4" y="-130.4" transform="rotate(180)"/><use xlink:href="#g" width="164.8" height="260.8" x="-82.4" y="-130.4"/><use xlink:href="#g" width="164.8" height="260.8" x="-82.4" y="-130.4" transform="rotate(180)"/><use xlink:href="#h" width="32" height="32" x="-114.4" y="-156"/><use xlink:href="#a" width="26.8" height="26.8" x="-111.8" y="-119"/><use xlink:href="#a" width="55.7" height="55.7" x="-89.7" y="-132.2"/><g transform="rotate(180)"><use xlink:href="#h" width="32" height="32" x="-114.4" y="-156"/><use xlink:href="#a" width="26.8" height="26.8" x="-111.8" y="-119"/><use xlink:href="#a" width="55.7" height="55.7" x="-89.7" y="-132.2"/></g><use xlink:href="#i" fill="none" stroke="#44F"/></svg>