<svg xmlns="http://www.w3.org/2000/svg" xmlns:xlink="http://www.w3.org/1999/xlink" width="240" height="336" class="card" preserveAspectRatio="none" viewBox="-120 -168 240 336"><defs><symbol id="h" preserveAspectRatio="xMinYMid" viewBox="-500 -500 1000 1000"><path fill="none" stroke="#000" stroke-linecap="square" stroke-miterlimit="1.5" stroke-width="80" d="M-260 100c300 0 220 360 520 360M-175 0v-285a175 175 0 0 1 350 0v570a175 175 0 0 1-350 0Z"/></symbol><symbol id="a" preserveAspectRatio="xMinYMid" viewBox="-600 -600 1200 1200"><path d="M0-500c100 250 355 400 355 685a150 150 0 0 1-300 0 10 10 0 0 0-20 0c0 200 50 215 95 315h-260c45-100 95-115 95-315a10 10 0 0 0-20 0 150 150 0 0 1-300 0c0-285 255-435 355-685Z"/></symbol><symbol id="g" preserveAspectRatio="none" viewBox="0 0 1300 2000"><path fill="none" stroke="#44F" stroke-linecap="round" stroke-linejoin="round" stroke-width="3" d="m986.6 811.2 17.5 26.8m3.6 5.5 14.3 21.9m-28.5-64.5a569.9 569.9 0 0 0 40.7 58m3.6 4.5 18.4 22.5m3.6 4.2 14.8 17.6m-72.3-116.4c25.6 42.9 56.3 78 86.5 113.7m-77.5-122.8c26.6 45 58.7 81.2 90.2 118.6m-83.3-125.4c27.2 45.1 60 81.6 91.8 119.6M92 409c5.3 34.5 12.4 70 18 99.6 5.6 29.7 9.6 54.9 9.5 62.5a62.7 62.7 0 0 1-7.4 32.2c-4.7 7.2-10.8 11.7-27.1 11.7s-22.4-4.5-27.1-11.7m37.3-91.9c2.8 14.7 5.2 28.3 6.8 39a237 237 0 0 1 2.5 20.6c-.1 11.4-3 21.3-4.8 24-1.6 2.4-2 2.7-3.4 3.4-1.3.6-4.5 1.6-11.3 1.6m14.2 41.9C113.5 645.8 120 654 120 660c0 3.9-2.1 8.2-8.2 12.5A48 48 0 0 1 85 680a48 48 0 0 1-26.8-7.5m41.3 34.3a23.3 23.3 0 0 1 16 12c3 5.5 4.5 13.2 4.5 21.2 0 15.2-2.7 36.8-6.4 58.1m-10.7-137.8a36.3 36.3 0 0 1-36.1-.1m35.5 65.8a34 34 0 0 1 2.7 14c0 13.4-2.6 34.7-6.2 55.5m628-427.2c-87 19.4-152.1 27.7-202 29.3m190.8-41a1187.6 1187.6 0 0 1-161.4 25M703 344.3a1251 1251 0 0 1-127.7 20.5m115.5-33c-38.3 7.7-72 13-101.5 16.5m90.8-29.4c-30 5.8-57 10.1-81.5 13.2m71.6-26.3c-23.3 4.3-44.8 7.8-64.6 10.4m54-23.5c-18 3.3-35 6-50.8 8M390 380c12-14 27.2-12.7 45 0m5-185c10 15 30 15 45 15m-175-5c50 25 60-30 70-30m-30-13c1.2 3.2 1.8 6.8 1.8 10.6 0 13-7.6 23.6-17 23.6-9.3 0-16.9-10.5-16.9-23.6 0-5.8 1.5-11 4-15.2m166.7-3.8c1.9 3.8 3 8.5 3 13.5 0 13-7.6 23.6-17 23.6-9.3 0-16.9-10.6-16.9-23.6 0-4 .7-7.9 2-11.2"/><use xlink:href="#a" width="90" height="90" transform="rotate(-40 1896 -1090) skewX(2)"/><use xlink:href="#a" width="90" height="90" transform="matrix(.8 -.6 .6 .7 1130.6 1037.6)"/><use xlink:href="#a" width="90" height="90" transform="matrix(.8 -.6 .7 .7 1049 1063.3)"/><use xlink:href="#a" width="90" height="90" transform="matrix(.8 -.6 .6 .7 958.6 941.6)"/><use xlink:href="#a" width="90" height="90" transform="matrix(.8 -.6 .6 .7 854.6 845.6)"/><use xlink:href="#a" width="90" height="90" transform="matrix(.8 -.6 .6 .7 833.6 720.6)"/></symbol><symbol id="f" preserveAspectRatio="none" viewBox="0 0 1300 2000"><path fill="none" stroke="#44F" stroke-linecap="round" stroke-linejoin="round" stroke-width="6" d="M435 885a57.5 75 0 0 1-57.5 75 57.5 75 0 0 1-57.5-75 57.5 75 0 0 1 57.5-75 57.5 75 0 0 1 57.5 75v0m-18 55h459m-567.7 0H337m2.5 30h562M131.8 543.2 351 374.6M0 644.6l44.8-34.5m1093.4 55c-60.2-38-118-78.5-172.9-122.6m243.3 165.4a2389 2389 0 0 1-60-36.1M557.7 0l407.8 542.6m334.3 517.2c-68.4 39.2-116.7 76.5-164.3 131.8-44.9-77.9-93.9-130.6-160.2-192.7-76-71.2-114.2-131.6-129.3-180.4-15.1-48.9-9-86.6 8-121 28.2-57.7 91.4-102.4 139-133.9M499.7 0c99.1 212.5 198.8 423.8 390.6 444m-526 368.4c-44.2-126.9-35.8-269.7-43-408.1 76.8 39.8 163.4 77.4 458 5.7-134.7 123.2-277.6 232.2-386.8 402M356 456a369.9 369.9 0 0 0 110 25.2c51.3 4 115.6.5 200.6-14.4C568 554 468.2 644.4 384.4 765.7c-25-94.9-24.8-201-28.4-309.6v0m511.3-15.7c-147.7 133.7-306.9 290.2-431.2 439M223.9 473c-.9 183 38 343.4 98.1 466M191.5 496.7c2 151 30.4 286.4 75.6 398.8m162.4 44A5236 5236 0 0 1 900 454.8M470.4 940C595.6 787 764 621 919 481.4M525 940l160-185h120.4M568 940l132-152.5h106.8M611.5 939.4 714.7 820H812M654.4 939.4l75.2-86.9h93.9m-126.1 86.9 47-54.4h95m-99.3 54.7 19.2-22.2H860m46.4-288 157.4 127.2M871.9 617.8 1043.2 757M459.6 481.3C415 573.5 406.5 669.6 385 765M303.7 0c-44.6 162.8-165 327-94.3 483.5m30.7-25.2c-53-160.4 25.4-275.4 60-399.3m505.7 271a506.7 506.7 0 0 1 46.2-17M0 902.7c71.8-42.6 117-82 169.9-152.7 50 100 99.9 155.2 177 227.4 281.6 263.6 94.1 409.6-13 480.5m43.6-615.4c4.4 0 9.3 2 14.9 9.2a56.2 56.2 0 0 1 10.1 33.3c0 14-4.6 26-10.1 33.3-5.6 7.2-10.5 9.2-14.9 9.2s-9.3-2-14.9-9.2a56.2 56.2 0 0 1-10.1-33.3c0-14 4.6-26 10.1-33.3 5.6-7.2 10.5-9.2 14.9-9.2v0M1130 765a239.2 239.2 0 0 1 30 90c47.2 18.3 82.9 51.8 115 90 2.3-37-4.3-71.4-30-100 23.3-5 40-20 50-45-14.5-24.4-36-32.7-60-35 44.9-32.2 30.3-71.3 20-110-33 38.7-63.9 78-125 110v0m170-59.2-34.3 2.9m34.3 221.9-26.2-11.7m-81-82.5c37.6 20.4 54.5 59.5 65.2 89M1183 785c26.5-.8 48.4-6.1 77 15.1-14.6 19.5-30.1 29.7-67.2 34.6m41.8-155.4c-2 40.3-12.8 83.2-52.2 104.5m-20-38.3c26.5 39.9 36 80.9 27 123.5M1130 765s-82.2-15-95-5c-12.8 10-33 31.3-40 40-32 39.5 3.6 49.7 20 30m35-30c-59.3 25.5-64.2 120.6 20 25m-28.8 28.5c-15 32.3.8 60.3 58.5-5.2m-37.5 34.3c-21.2 38.7 41.6 35.5 97.8-27.6m-96.7-99.2c33.5-37.6 66.2-76.8 96.4-120.7m-81.2 122.6a1173 1173 0 0 0 93.2-117.8M1085 735c-5-58-25.4-90-80-65 38.5 16.7 38.6 74.2 80 65v0m-80-65c37.8-6.3 56.1 40.8 80 65m15-2.7c35-15 50.7-47 67.3-5-32.3-2-62.3 45-67.3 5v0m0 .5c26.4 8.3 52.5-23.9 67.3-5.5M1155 585c-75 45-75-100 0-55-45-75 100-75 55 0 75-45 75 100 0 55 45 75-100 75-55 0v0m87.5-27.5c-60 0-60 0-60-60 0 60 0 60-60 60 60 0 60 0 60 60 0-60 0-60 60-60v0M1123 521.3a191.7 191.7 0 0 0-5.5-28.8c8.6 2.5 18.7 4.3 29.5 5.5m-.2 119a174 174 0 0 0-29.3 5.5 184 184 0 0 0 5.5-29.1m119-.4c1.2 10.8 3 21 5.5 29.5-8.4-2.4-18.3-4.2-28.9-5.5m0-119c10.6-1.3 20.5-3 28.9-5.5-2.4 8.5-4.2 18.4-5.5 29M358 386.3c-4.8-2.3-9.6-4.7-14.3-7.2M748 384c-125.6 29.2-209.2 36.6-268.3 33.2M356 456a369.9 369.9 0 0 0 110 25.2c51.3 4 115.6.5 200.6-14.4C568 554 468.2 644.3 384.2 765.7c-25-94.8-24.7-201-28.2-309.6v0M85 135c10.8 31.1 5 90 35 90 65 0 20-95-35-145-55 50-100 145-35 145 30 0 24.2-58.9 35-90v0M40 285s0-10 10-10c12.9 0 15 45-10 45-35 0-30-70 5-70 30 0 40 50 40 50s10-50 40-50c35 0 40 70 5 70-25 0-22.9-45-10-45 10 0 10 10 10 10m-10-10c-55 2.7 15 250 14.5 296.3-.3 29.4-9.5 58.7-49.5 58.7s-49.2-29.3-49.5-58.7C35 525 105 277.7 50 275m20-10v-56.7m30 56.9v-56.5m3.2 418.7c18.6 5 31.8 17.8 31.8 32.6 0 19.3-22.4 35-50 35s-50-15.7-50-35c0-14.8 13.2-27.5 31.8-32.6m-.9 65C41.7 699.7 35 720.8 35 740c0 36.2 13.1 96.1 20.4 126.3m73-65.6A384 384 0 0 0 135 740c0-19.4-6.8-40.7-31.5-47.7M257 885h6.4M0 885h28.7m216.9-15h11.9M0 870h51m182.7-15h18.5M0 855h52.5M223 840h24M0 840h49.3m163.5-15h29.9M0 825h46.4m156.8-15h34.5M0 810h43.5m151-15h38.9m-104 0h5.3M0 795h40.6m145.5-15h43m-97.3 0h14.5M0 780h38.3m140-15H225m-91.2 0h24.7M10 765h26.3m98.4-15h86.5M10 750h24.5M135 735h83m-203 0h20.1m97.6-15H205m-190 0h22.8M155 705h45m125-195a175 175 0 0 0-45.4-47.2c-21.7-15.7-32 9.7-23.9 22.7M325 540a292.6 292.6 0 0 0-62.3-51.8c-20.4-11.8-26.5 15-9.5 28m73.4 56.3a270.9 270.9 0 0 0-62.2-51.8c-33-18-43.8 14.2-2.8 31.8m68 79.6a270.9 270.9 0 0 0-62.2-51.8c-30.8-16.8-37.6 16.9-5 35.8m65.7-18.4a382.1 382.1 0 0 0-50.8-39.5c-22-15-34.1 4.4-22.8 17.2m77.7 84a392.1 392.1 0 0 0-49.6-38.4c-24-16.2-36.2 12.3-19.2 25.3m72 40.3a385.2 385.2 0 0 0-58-36.3c-31.2-16.2-36.9 20.5-3.3 37.2m65.3 22.4c-45.6-38.6-98.2-25.3-54.4 5.1m60.6 28.9c-49.8-42.3-140.2-42.3-51.5 5.5m65 48c-62.8-40-141.7-29.4-43.8 10.7m40.9 7.6c-43.5-18.1-92.8.2-44 13.7m23.6 4.2c-36.5-11.4-56 9.4-11.4 20.2m-.8-386.4a183.6 183.6 0 0 0-25.8-22.4c-17.5-12.7-26.7.3-25.1 12.5m49.5-29.3-4.1-3c-19.4-14-28.6 3.5-24.2 16.4m57.6 327.7c-41.8-32.6-87.1-23-57.8 2.6M396.5 805c97.6 1 66 25.6 21.2 25.7m-7.5-45c31.9-11.9 60.6-9.2 75-1.6 16.8 8.8 14 24.2-26.2 30.3m-28.5-56.7c58.6-11 103.7 14 55.5 26.2m-34.4-54.3c67.4-18 125.5 10.7 49.4 33.7m-31.8-55.7c69.2-23.5 135.4 4.5 67.1 28.2m-39.3-60c50.5-8 88.7 9.6 55.6 28M514 656.6c77.2-20 158 17.2 48.7 27.7m-11.9-66c57.2-5 100 18 40.2 35M569 601c75.2-19.8 151.8 14.6 51.2 34.4m-23.3-61.1c55.7-7.7 102.5 11.7 64.3 28.7m-40.4-50.8c71.6-16.5 140.7 14.6 53.5 34m-13.5-70.5c57.1-4.6 99 18.8 36.5 35.8m-12.8-56.8c73.9-17 144.9 16.9 43.7 36m-5.3-69.8c57.8-5.5 101.7 17.7 42 34.8m-16.4-57.8c68-12 127.6 17.4 43.8 36m-146.6-200c-5.1 11.7-10 23.5-35.6 21.2-14.4 81.3-73.8 98.4-130 120 0 0-19.4 15.6-29.4 15.6-15 0-25.6-5.6-30.6-5.6s-10 5-25 5-30-25-40-50c-30-40-55-96-55-125 0-20 5-150 5-155 0-3-5.7-42.4-10.1-72m328 212.3c-6.3 10.3-13.7 24.4-7.9 24.7 2.7.1 7-10.4 10.2-20m279 249.8 50.5 54.2M890 508.2l48.7 52.2m-63.4-39.3 48 51.4M861.7 535l46.2 49.4M847 548l46 49.2m-60.2-35.9 35.3 37.9m-49.4-24.5 24 25.8m-38.8-13 17.8 19m-31.6-5.3 8.9 9.6M482.8 925h55.4m-42.3-15h55m-42.7-15H564m-42.7-15h55.5m-42.3-15h55.4m-37-20H585m205-25v32.5M765 820v32.5M740 820v32.5m-36.7-19.2 22.5 22.5m-41.7-1.7 23.4 23.4m-41.6-1.6 22.8 22.8m-40.5-.5 22.6 22.6m-41.6-1.6L650 940m141.3-629.2a549 549 0 0 1 48.1-16.7m-63.2-3.7c15.8-6.4 32.2-12 48.7-16.9m-64-3a560.3 560.3 0 0 1 49.7-17.2m-64-1a539 539 0 0 1 50.7-18m-58.2-5.1a544 544 0 0 1 35.9-12.6m-48.5-8.4c8.5-3.2 17.1-6.3 25.8-9.2m-40.6-10.7c5.4-2 10.8-4 16.4-5.8m172.3-88c-51.9 19.8-103.7-24.7-139-.9-46.4 31.4-6.4 91.4 28 71.6C821 146.8 790 105 775 115c-9.3 6.2-14.9 18.3-10 25 6.2 8.5 10.5 9.6 20 5m116.5-47.9c-39.7 38.4-22.2 104-58.8 125.4-48.3 28.4-85.2-33.5-52.5-56 30.2-20.8 54.6 25.3 39 34.6-9.5 5.7-22.8 5.5-26.8-1.8-5-9.2-4.1-13.6 4.1-20.2m-41.5.9 90-60m-10 40c-10-10-45.5-11.4-55 5 22-11 34.8-24.8 25-45m-20 110c25 30 50 20 75 10 24 32.8 64.7 38.7 105 45M725 130c-10-20 15-45 30-55-5.9-23 2.7-49 11.6-75M700 90c10-25 25-25 25-25-8.5-38.2 3.3-47.9 8.2-65M428 0c17 51.7 55.3 78.4 111.3 84M446.7 0c16 38.8 45.3 61.7 86.4 70.7M461.2 0c14 27.4 35.7 45.7 64.4 55.7M477 .1C487.4 16.5 501 29 517.6 38M371.3 0c-15 40.2-30.4 80-66.6 100.3M355.7 0c-12.4 31.8-26.6 61.8-53 80.3M339.6 0c-9.9 23.2-21.7 44.5-39.9 59.9M325.2 0a132 132 0 0 1-29 38.4M305 120c41.1-25 61.6-14.3 80 0 20 55-15 110-14.4 151.7.2 15.5 11.7 13.4 19.4 13.3 5 0 15 10 15 10M305 125c29.6-21 55.5-17.5 80-5m45 125c20 0 20 30 5 30-40 5-40-10-5 0m-65 40v10l5-5-5-5v0m90 5 5-5v10l-5-5v0m-85 0s5 5 10 5 5.2-4 12.3-4.5c7.7-.5 7.7 4.5 12.7 4.5 5 0 15-10 20-10s15 5 20 5h10m-65 20c3 28.5 45.6 8.7 45 5-5 5-44.8 31.9-45-5v0m40-205c51.5-36.7 85.9-16.2 120 5-35.4-26-85-45-120-5v0m110 25c-15 0-36.5-25.4-56.4-23.5C453.8 139.2 445 175 430 180c18-21.4 33.8-28.2 48-28 29.3.3 37 33 72 23m-120 5c15-10 32.8 10 45.2 10 28.9-.3 44.3-15 54.8-15m-150 0c-20 0-30.9-19.2-47-20.3-12.4-.8-29.2 12.6-29.2 17.6 0 7 11.2 20.7 22.7 23.3 16.4 3.6 36.3-20.3 53.5-20.6v0m-75-10c22.6-42.8 65-9.5 65-5m450 105c15 15 35 10 45 5a135 135 0 0 0 62.7 23.2m-75.8 19.1A861 861 0 0 1 975 285C924.9 188.2 899.9 94.2 874.1 0M852 312.3A861 861 0 0 1 975 285C924.9 188.2 899.9 94.2 874.1 0m-23 312L635.3 0m292.3 293.3A135.4 135.4 0 0 1 865 270c-10 5-30 10-45-5"/></symbol><symbol id="e" preserveAspectRatio="none" viewBox="0 0 1300 2000"><path d="M499.7 0C598.8 212.4 698.5 423.8 891 444.2L557.5 0ZM299.9 59.9c-34.4 123-112.8 238-59.8 398.4l109.8-85.4C322.2 333.6 300 282.3 300 255c0-20 5-150 5-155 0-2-2.4-19.3-5.1-40.1zm600 395a5236 5236 0 0 0-470.4 484.6l40.9.5C595.6 787 764 621 919 481.4Zm65.8 87.4c-28.9 19.2-64.1 44.1-94 75.5l25.6 20c30.2-29.8 66-54.5 95.6-74a482.3 482.3 0 0 1-27.2-21.5zM685 755 525.1 939.9l44.9.1 129.9-152.5h106.8L805 755Z"/></symbol><symbol id="d" preserveAspectRatio="none" viewBox="0 0 1300 2000"><path fill="#44F" d="M472.5 150a12.5 20 0 0 0-12.5 20 12.5 20 0 0 0 12.5 20 12.5 20 0 0 0 12.5-20 12.5 20 0 0 0-12.5-20zm-140 5a12.5 20 0 0 0-12.5 20 12.5 20 0 0 0 12.5 20 12.5 20 0 0 0 12.5-20 12.5 20 0 0 0-12.5-20zM356 456.1c3.5 108.6 3.2 214.8 28.2 309.6C468.3 644.3 568 554 666.6 467c-85 14.9-149.3 18.5-200.6 14.4A371.8 371.8 0 0 1 356 456zm43 23c22.5 0 52.4 2.3 83.4 6.2 65.8 8.3 118.2 21.7 117 29.9-1 8.2-56.2 5-122-3.2-65.7-8.3-117.1-18.6-116-26.8.5-4 14-6.3 37.5-6.1zm718.5 13.4c2.4 8.4 4.2 18.2 5.5 28.8v.4c7.4-1.4 16.4 0 27.2 5.6l-21.3-21.2a1.5 1.5 0 0 1 1-2.6 1.5 1.5 0 0 1 1.2.4l21.2 21.3a43 43 0 0 1-5.6-27.2 187 187 0 0 1-29.2-5.5zm130 0c-8.4 2.4-18.3 4.2-29 5.5h-.2a43 43 0 0 1-5.6 27.2l21.2-21.3a1.5 1.5 0 0 1 1-.4 1.5 1.5 0 0 1 1.2 2.6l-21.3 21.2a43 43 0 0 1 27.2-5.6v-.2c1.3-10.6 3-20.5 5.5-29zm-853.6 15.3c20.4 0 47.4 2.3 75.4 6.2 59.4 8.3 106.7 21.7 105.7 29.9s-50 8.1-109.3-.2C406.3 535.5 359 522.1 360 514c.5-4 12.7-6.2 33.9-6.1zm7.7 34.6c15 0 32.6.9 50.5 2.6 51.5 5 94 14.8 93.7 23-.4 8.3-42.4 10.9-93.9 5.8-51.5-5-93-15.8-92.6-24 .2-5.1 15.5-7.2 42.3-7.4zm590.8 21.1a693.5 693.5 0 0 0-85.8 65.9l156.7 126.4c5.9-6.6 11.8-13.3 17.6-20.1-37.3 4.6-38.7-49.6-75.9-65.7 53.5-24.5 74.2 5.7 79.7 61.4 18.2-21.2 36.2-43.1 53.4-66.2a1834 1834 0 0 1-145.7-101.7zm92.3 167.9-3.8 4.3 4.1-.7-.3-3.6zm-21.4 24.4 1.3 1c28.2 1.4 65.4 8.2 65.4 8.2a315 315 0 0 0 78-57.4 2206 2206 0 0 1-59.1-35.7 1178.1 1178.1 0 0 1-48.1 60c34.4-15 50-46.3 66.5-4.6-32.2-2-62 44.6-67.2 5.5l-21.6 24.9zM399.9 575c12.1 0 26.2.8 40.6 2.6 41.4 5 74.8 15.8 74.5 24-.3 8.3-34 10.9-75.5 5.8-41.4-5-74.8-15.8-74.5-24 .2-5.1 13.3-8.3 34.9-8.4zm814.9 12.7 21.3 21.2a1.5 1.5 0 1 1-2.2 2.2l-21.2-21.3a43 43 0 0 1 5.6 27.2h.3c10.6 1.3 20.5 3.1 28.9 5.5a187 187 0 0 1-5.5-29.2 43 43 0 0 1-27.2-5.6zm-64.6 0a43 43 0 0 1-27.2 5.6c-1.2 10.8-3 20.7-5.5 29.2a187 187 0 0 1 29.2-5.5 43 43 0 0 1 5.6-27.2l-21.2 21.3a1.5 1.5 0 1 1-2.2-2.2zM400 608.2c7.7 0 16.3.6 25 1.8 30.5 4.1 55.2 16.7 55.2 25s-24.6 11.6-55.1 7.4c-30.5-4.1-55.3-14.2-55.3-22.4 0-5.6 11.6-11.7 30.2-11.8zm2.9 36.3c4 0 8 .2 12.1.5 25 2.1 44.8 7 45.4 15 .7 8-19.1 12.7-44.2 10.6-25.1-2.2-46-10.3-46.6-18.3-.5-6.4 13.8-7.7 33.3-7.8zm-6.4 30.8c1.6 0 3.1 0 4.7.2 15.2 1.1 28.1 7.4 28.8 14 .6 6.6-11.2 11-26.4 9.8-15.3-1.1-28.2-7.4-28.8-14-.6-5.8 8.6-10 21.7-10zm-2.7 30.5 3 .1c9.6 1 17.8 5.9 18.2 11.1.4 5.3-7 8.8-16.7 7.9-9.7-1-17.9-6-18.3-11.2-.3-4.6 5.5-8 13.8-8zm906.2 0-34.3 2.9c.2 20-6.8 39.1-30.7 56.3 24 2.3 45.5 10.6 60 35-10 25-26.6 40-50 45 19.7 22 28.2 47.2 30 74.5l25 11zM1132.7 770l.7 1.4-.7-1.4zm3 6c.2 0 .2.3.3.4l-.2-.5zm2.8 5.4.6 1.4-.6-1.4zm2.4 5.3.5 1.2-.5-1.2zm2.6 6 .6 1.5-.6-1.5zm2 5.1.7 1.5-.6-1.5zm2.4 6.2.6 1.6-.6-1.6zm1.7 5 .7 1.8-.7-1.8zm2 6.2.6 1.9-.5-1.9zm1.5 5zm-775.6 22.3c-4.4 0-9.3 2-14.9 9.2a56.2 56.2 0 0 0-10.1 33.3c0 14 4.6 26 10.1 33.3 5.6 7.2 10.5 9.2 14.9 9.2s9.3-2 14.9-9.2a56.2 56.2 0 0 0 10.1-33.3c0-14-4.6-26-10.1-33.3-5.6-7.2-10.5-9.2-14.9-9.2Zm-.3 4.8c3 0 6 5 6 10.7 11-.1 14.7 3.3 5.7 13 13.6 3.7 10.6 8.7 2.8 14 7.8 5.3 10.8 10.3-2.8 14 9 9.7 5.2 13.1-5.7 13 0 10-9.5 18-11.4 0-11 .1-14.7-3.3-5.7-13-13.6-3.7-10.6-8.7-2.8-14-7.8-5.3-10.8-10.3 2.8-14-9-9.7-5.2-13.1 5.7-13 .9-7.9 3.1-10.8 5.4-10.7zm352.4 5.2-75.2 87 43-.1 47-54.4H840l-15-32.5zm29.7 65-19.2 22.2 136.1.3-16.2-22.5Zm-104.1 52.4-315.8.2 7.6 7.3a796 796 0 0 1 41.9 42.1c1-4.4 6-11.1 16.1-19.5-30-25-15-35 15-15 30-20 45-10 15 15 30 25 15 35-15 15-11 7.4-20 10.7-25.6 10.6l4 4.4 256.4-.1zm-170 4.5c5.4-.2 14.6 3.1 25.8 10.6 30-20 45-10 15 15 30 25 15 35-15 15-30 20-45 10-15-15-18.8-15.6-20-25.4-10.8-25.6zm91 0c5.4-.2 14.5 3.1 25.8 10.6 30-20 45-10 15 15 30 25 15 35-15 15-30 20-45 10-15-15-18.8-15.6-20-25.4-10.8-25.6z"/></symbol><symbol id="c" preserveAspectRatio="none" viewBox="0 0 1300 2000"><path fill="red" d="M557.5 0 806 330.5l45-18.5L635.4 0Zm78 0 63.8 90.8C710 65 725 65 725 65c-8.5-38.2 3.3-47.9 8.2-65ZM820 265l31.9 47.3a823.1 823.1 0 0 1 75.8-19A135.4 135.4 0 0 1 865 270c-10 5-30 10-45-5zm99.1 216.3C764.1 621 595.6 787 470.4 940H525l160-185h120.4v-.4c6.3-102.8 97.5-170.7 160.4-212.2zm-727.4 15.5-59.9 46.4-.4.3c2 12 3.2 21.7 3 27.8-.2 23.6-6.1 47.1-30.2 55.8 17.6 5.4 30.8 18 30.8 32.9a50.3 50.3 0 0 1-30.8 32c24 7.3 30.8 28.6 30.8 48 0 16.9-2.9 39-6.2 60.2l-5.8 6.4c15.6-16.6 31-35.2 47-56.6a644.7 644.7 0 0 0 96.9 145.7c-45-112.6-73.3-248-75.2-398.9ZM44.5 610.4 0 644.6v258.2a604.8 604.8 0 0 0 55.5-36.5C48.1 836.1 35 776.3 35 740c0-19.3 6.7-40.4 30.4-47.7-18.1-5.7-30.4-18-30.4-32.3 0-14.8 13.2-27.5 32-32.5a38.4 38.4 0 0 1-22.5-17.1Zm1190.1 68.8-1 1c-20.1 23-42 45.7-71.8 65.7 27 39.4 36.6 80.4 27.7 123.2a300.6 300.6 0 0 1 67.9 55.8c-10.1-29-27-68-64.6-89.4 37-5.8 52.6-16 67.2-35.5-28.6-21.2-50.5-16-77.3-15.7 39.1-21.9 50-64.8 52-105.1zm-1123.9 140zm-5.1 5-2.3 2.3 2.3-2.2zm-5.3 5zm-6.5 6.1zm283.7 27.2a11 22.5 0 0 0-11 22.5 11 22.5 0 0 0 11 22.5 11 22.5 0 0 0 11-22.5 11 22.5 0 0 0-11-22.5zM602.7 990a10 10 0 0 0-10 10 10 10 0 0 0 10 10 10 10 0 0 0 10-10 10 10 0 0 0-10-10zM420 990a10 10 0 0 0-10 10 10 10 0 0 0 10 10 10 10 0 0 0 10-10 10 10 0 0 0-10-10zm91.1.4a10 10 0 0 0-10 10 10 10 0 0 0 10 10 10 10 0 0 0 10-10 10 10 0 0 0-10-10z"/></symbol><symbol id="b" preserveAspectRatio="none" viewBox="0 0 1300 2000"><path fill="#FC4" d="m635.4 0 216.5 312.3A861 861 0 0 1 975 285C924.9 188.2 899.9 94.2 874.1 0ZM295.5 27.3C246.3 181 142.8 335.5 209.3 483l-17.5 13.4c1.8 151.1 30.1 286.6 74.6 398.6a886.9 886.9 0 0 0 72.8 74.8l562.3.1-.4-.5-.4-.4a795.4 795.4 0 0 0 52.3 53.5c77.1 72.2 127 127.4 177 227.4 53-70.6 98.2-110.1 170-152.8v-37.6c-68.6 39.3-117 76.7-164.6 132-44.9-77.9-93.9-130.6-160.2-192.7-76-71.2-114.2-131.6-129.3-180.4-15.1-48.9-9-86.6 8-121 28.2-57.7 91.4-102.4 139-133.9L966 542.1c-69.6 46-172.9 123.6-160 244.4l-106.2 1L568 939.9H429.5A5128.6 5128.6 0 0 1 899.2 455l-9.6-11a265 265 0 0 1-80.5-21.4c-1.8 4.2-4.4 8-8 11.2-136 124.5-275.6 231.3-381.3 395.5l-27.3-17.6C501.7 642 644.5 533 779.2 409.8l17.5 6.9c-17.7-9-34.5-19.9-50.3-32.5-124.7 29-208.2 36.5-267.2 32 0 0-19.3 14.6-29.3 14.6-15 0-25.6-5.6-30.6-5.6s-10 5-25 5-30-25-40-50l-4.3-5.8-39.2 30.2 10.5-.5c7.2 138.4-1.2 281.2 43 408.1L337 830a32.7 32.7 0 0 1-3.2-7c-45.5-130.2-38.4-270.3-44.1-401.9L220 474.9l20.2-16.6c-53-160.4 25.4-275.4 60-399.3ZM85 80C30 130-15 225 50 225c9.3 0 15.2-5.7 19.6-15.6v54.8C63 255.8 55.1 250 45 250c-35 0-40 70-5 70 24.5 0 23-43 10.8-45 53.5 5.2-15.8 250.2-15.3 296.3.3 24.4 6.6 48.7 31.5 56.2-18.8 5-32 17.7-32 32.5 0 14.3 12.3 26.6 30.4 32.3C41.7 699.6 35 720.7 35 740c0 36.2 13.1 96.1 20.5 126.3a472.5 472.5 0 0 0 73.3-66A433 433 0 0 0 135 740c0-19.4-6.8-40.7-30.8-48a50.3 50.3 0 0 0 30.8-32c0-14.8-13.2-27.5-30.8-32.9 24-8.7 30-32.2 30.3-55.8.5-46-68.8-291.1-15.3-296.2C107 276.9 105.5 320 130 320c35 0 30-70-5-70-10.8 0-19 6.5-25 15l.3-55.7c4.2 9.7 10.1 15.7 19.7 15.7 65 0 20-95-35-145Zm641.5 287.8c-86.6 19.9-151.8 28.2-200.8 29.3-14.2 6.3-30.1 11.9-45.8 19 59 4.4 142.6-3 267.2-32.1a209.7 209.7 0 0 1-20.6-16.2zM356 456.1a369.9 369.9 0 0 0 110 25.2c51.3 4 115.6.5 200.6-14.4C568 554 468.2 644.3 384.2 765.7c-25-94.8-24.7-201-28.2-309.6Zm826.5 17.6c-24 0-48 17.4-29.9 52a45 42.5 0 0 1 29.9-10.7 45 42.5 0 0 1 29.9 10.8c18.2-34.7-5.9-52-29.9-52Zm-54.7 47.5c-45.2.8-37.6 97.8 22.8 66.2a45 42.5 0 0 1-13.1-29.9 45 42.5 0 0 1 13.1-30 48.2 48.2 0 0 0-22.8-6.3zm109.4 0a48.2 48.2 0 0 0-22.8 6.4 45 42.5 0 0 1 13.1 29.9 45 42.5 0 0 1-13.1 30c60.4 31.5 68-65.5 22.8-66.3zm-24.8 68a45 42.5 0 0 1-29.9 10.8 45 42.5 0 0 1-29.9-10.8c-12 22.9-5.6 38.2 7 46-23.7 34.5-49 66-75 96.2-5.4-55.7-26.1-86-79.6-61.4 37.2 16.1 38.6 70.3 76 65.7l-17.7 20.1 15.2 1.9 21.6-24.9c5.2 39.1 35-7.5 67.2-5.5-16.5-41.7-32-10.5-66.5 4.7a1078 1078 0 0 0 70.8-92c26.6 6.1 61.7-10.8 40.8-50.8zM1255 655c-33 38.7-63.9 78-125 110a239.2 239.2 0 0 1 30 90c47.2 18.3 82.9 51.8 115 90 2.3-37-4.3-71.4-30-100 23.3-5 40-20 50-45-14.5-24.4-36-32.7-60-35 44.9-32.2 30.3-71.3 20-110zM811.9 817.8c10.8 41.7 35.3 88 78.6 139.4-5-5.8-9.7-11.6-14.3-17.2l-286.4-.1 64.6-.5 75.2-86.9 93.9-.3a264 264 0 0 1-11.6-34.4zm-434.4 24.7c4.4 0 9.3 2 14.9 9.2a56.2 56.2 0 0 1 10.1 33.3c0 14-4.6 26-10.1 33.3-5.6 7.2-10.5 9.2-14.9 9.2s-9.3-2-14.9-9.2a56.2 56.2 0 0 1-10.1-33.3c0-14 4.6-26 10.1-33.3 5.6-7.2 10.5-9.2 14.9-9.2Z"/></symbol><path id="i" d="M-82.4-130.4H82.4v260.8H-82.4z"/></defs><rect width="239" height="335" x="-119.5" y="-167.5" fill="#fff" stroke="#000" rx="12" ry="12"/><use xlink:href="#b" width="164.8" height="260.8" x="-82.4" y="-130.4"/><use xlink:href="#b" width="164.8" height="260.8" x="-82.4" y="-130.4" transform="rotate(180)"/><use xlink:href="#c" width="164.8" height="260.8" x="-82.4" y="-130.4"/><use xlink:href="#c" width="164.8" height="260.8" x="-82.4" y="-130.4" transform="rotate(180)"/><use xlink:href="#d" width="164.8" height="260.8" x="-82.4" y="-130.4"/><use xlink:href="#d" width="164.8" height="260.8" x="-82.4" y="-130.4" transform="rotate(180)"/><use xlink:href="#e" width="164.8" height="260.8" x="-82.4" y="-130.4"/><use xlink:href="#e" width="164.8" height="260.8" x="-82.4" y="-130.4" transform="rotate(180)"/><use xlink:href="#f" width="164.8" height="260.8" x="-82.4" y="-130.4"/><use xlink:href="#f" width="164.8" height="260.8" x="-82.4" y="-130.4" transform="rotate(180)"/><use xlink:href="#g" width="164.8" height="260.8" x="-82.4" y="-130.4"/><use xlink:href="#g" width="164.8" height="260.8" x="-82.4" y="-130.4" transform="rotate(180)"/><use xlink:href="#h" width="32" height="32" x="-114.4" y="-156"/><use xlink:href="#a" width="26.8" height="26.8" x="-111.8" y="-119"/><use xlink:href="#a" width="55.7" height="55.7" x="36.1" y="-132.2"/><g transform="rotate(180)"><use xlink:href="#h" width="32" height="32" x="-114.4" y="-156"/><use xlink:href="#a" width="26.8" height="26.8" x="-111.8" y="-119"/><use xlink:href="#a" width="55.7" height="55.7" x="36.1" y="-132.2"/></g><use xlink:href="#i" fill="none" stroke="#44F"/></svg>