<?xml version="1.0" encoding="UTF-8" standalone="no"?>
<svg xmlns="http://www.w3.org/2000/svg" xmlns:xlink="http://www.w3.org/1999/xlink" class="card" face="TC" height="3.5in" preserveAspectRatio="none" viewBox="-120 -168 240 336" width="2.5in">
<rect width="239" height="335" x="-119.5" y="-167.5" rx="12" ry="12" fill="white" stroke="black"></rect>
<use xlink:href="#0-black" height="32" width="32" x="-114.4" y="-156"></use>
<use xlink:href="#symbol-clubs" height="26.769" width="26.769" x="-111.784" y="-119"></use>
<use xlink:href="#symbol-clubs" height="70" width="70" x="-87.501" y="-135.588"></use>
<use xlink:href="#symbol-clubs" height="70" width="70" x="17.501" y="-135.588"></use>
<use xlink:href="#symbol-clubs" height="70" width="70" x="-87.501" y="-68.529"></use>
<use xlink:href="#symbol-clubs" height="70" width="70" x="17.501" y="-68.529"></use>
<use xlink:href="#symbol-clubs" height="70" width="70" x="-35" y="-102.058"></use>
<g transform="rotate(180)"><use xlink:href="#0-black" height="32" width="32" x="-114.4" y="-156"></use><use xlink:href="#symbol-clubs" height="26.769" width="26.769" x="-111.784" y="-119"></use><use xlink:href="#symbol-clubs" height="70" width="70" x="-87.501" y="-135.588"></use><use xlink:href="#symbol-clubs" height="70" width="70" x="17.501" y="-135.588"></use><use xlink:href="#symbol-clubs" height="70" width="70" x="-87.501" y="-68.529"></use><use xlink:href="#symbol-clubs" height="70" width="70" x="17.501" y="-68.529"></use><use xlink:href="#symbol-clubs" height="70" width="70" x="-35" y="-102.058"></use></g>
</svg>
