<svg xmlns="http://www.w3.org/2000/svg" xmlns:xlink="http://www.w3.org/1999/xlink" width="240" height="336" class="card" preserveAspectRatio="none" viewBox="-120 -168 240 336">
<defs>
<symbol id="h" preserveAspectRatio="xMinYMid" viewBox="-500 -500 1000 1000">
<path fill="none" stroke="red" stroke-linecap="square" stroke-miterlimit="1.5" stroke-width="80" d="M50-460h200m-100 0v710a100 100 0 0 1-400 0v-30"/>
</symbol>
<symbol id="a" preserveAspectRatio="xMinYMid" viewBox="-600 -600 1200 1200">
<path fill="red" d="M-400 0C-350 0 0-450 0-500 0-450 350 0 400 0 350 0 0 450 0 500 0 450-350 0-400 0Z"/>
</symbol>
<symbol id="g" preserveAspectRatio="none" viewBox="0 0 1300 2000">
<path fill="none" stroke="#44F" stroke-linecap="round" stroke-linejoin="round" stroke-width="3" d="M85 590c-4.7 8.7-5.2 17.1 0 25m3.7 6.9c-4.7 8.7-5.2 17 0 25m0 10c-4.7 8.7-5.2 17 0 25m0 5c-4.7 8.7-5.2 17 0 25M130 510c0 25 10 30 10 30m-89 57.5a13.8 13.8 0 0 0 0 10m0 23a13.8 13.8 0 0 0 0 10m0 24.5a13.8 13.8 0 0 0 0 10m0 25a13.8 13.8 0 0 0 0 10m0-13.8a13.8 13.8 0 0 0 0 10M725 500c25-10 40-10 50-5m-70-240c-30-20-61-7.3-90 15m170 5c24.5-30.3 50.9-36 70-25m-162.5 8.6a23 23 0 0 1 9.7 18.9c0 12.4-9.5 22.5-21.1 22.5-11.7 0-21.1-10-21.1-22.5 0-3.3.7-6.4 1.8-9.2m191.3-6.6c7 3.4 11.9 11.5 11.9 20.8 0 12.4-8.7 22.5-19.3 22.5-10.7 0-19.4-10-19.4-22.5 0-3.8.8-7.4 2.3-10.6m6.4 45.4c11.3 4 26.1-.3 27-2.3M518 509.8c39.5 23.6 86.5 45.3 132 45.2m-124.6-56.7c40 24 88 46.8 134.6 46.7"/>
<use xlink:href="#a" width="200" height="200" stroke="#44F" stroke-linecap="round" stroke-linejoin="round" stroke-width="36" transform="translate(550 902.8)"/>
<use xlink:href="#a" width="50" height="50" transform="rotate(-26 1757.7 -1602.2)"/>
<use xlink:href="#a" width="50" height="50" transform="rotate(-22 2042.5 -1842)"/>
<use xlink:href="#a" width="50" height="50" transform="rotate(-14 3010.8 -2918.4)"/>
<use xlink:href="#a" width="50" height="50" transform="rotate(-6 6552.8 -6827)"/>
<use xlink:href="#a" width="50" height="50" transform="translate(681 630.7)"/>
<use xlink:href="#a" width="50" height="50" transform="translate(633.3 626.7)"/>
<use xlink:href="#a" width="50" height="50" transform="rotate(10 -3326.6 3775.6)"/>
<use xlink:href="#a" width="50" height="50" transform="rotate(15 -2083.6 2438)"/>
</symbol>
<symbol id="f" preserveAspectRatio="none" viewBox="0 0 1300 2000">
<path fill="none" stroke="#44F" stroke-linecap="round" stroke-linejoin="round" stroke-width="6" d="M100 710v900L0 1710M100 678.1v14m0-47v17.2m0-52.5v14.8m0-227.2v197.2M0 0l100 100v196.6m.2 910.7c108 79.3 171.7 190.7 199.4 315.9m-92.3-978c238 301.6 196.4 620.5 53.4 860.4m97.5-239 295.5-300.1m-288.4-325L774.9 1003M650 870.2V1005m-15-119.5v235.3m-15-220.1v203.2m-15-188V1087m-15-155.8v139m-15-123.8v106.8m-15-91.6v74.7M545 977v42.5m-15-27.3v10.4M408 544.7l388 436.9m-351.5-441L817 960.2m-448.1 150.5 263.9-268m-278.2-9.9L496.1 689M344.5 798 475 665.3M144.4 587l117.7-78.4m678-48.1 259.7 70.4M882 524.5a281.7 281.7 0 0 1-141 63.7c-77.2 11.6-165.2-6.4-258.7-56.4m-29.3 6.6c103.5 59.8 203 82.8 291 69.6 86.5-13 161.6-61.3 217.2-141.8m-110.8 57.6A260.2 260.2 0 0 1 738 568.5c-68.3 10.2-147.2-4.3-232.4-47.2M557.4 668c141.5 33.7 280.1 12 377-68.8m-3.5-65L948 808.6m2.8-296.4L965.6 750m-364.5-33.2c123.7 18 244.3-4 337-70m-178 70.1c7.9 24.8 23.6 70.3 39.9 93.1 19.7 27.5 61 70.5 77.7 87.6m-90.9-185.3c8.3 25.5 23 66.5 38.2 87.7a692.1 692.1 0 0 0 51.7 60.5M813.1 706c8.4 25.6 22.4 63.8 36.9 84 10.8 15.2 28.3 35 44.5 52.7m-55.9-145c8.5 25.6 22.3 62.5 36.4 82.3a732.3 732.3 0 0 0 55.8 64.8M154 662.3c156 227.7 133.9 446.2 39 633.2m1007-580a444 444 0 0 1-117-171.4 532 532 0 0 1-16.4-49.7M1198.8 754c-86.1-70-139.2-162.6-165.5-268m111.3 30c3.5 27 30.4 77.5 55 106.1M80 240 0 160m0-40 80 80m0 80L0 200m80 355L0 475m0-40 80 80m0 355L0 790m0-40 80 80m0 80L0 830m80 355-80-80m0-40 80 80m0 80-80-80m80 355-80-80m0-40 80 80m0 80-80-80m80-744.2V1580l-80 80M80 404.2V587M0 50l80 80v171m512.7 581.8-100-110c-20-30 10-60 40-40l100 110m-94.2 95.6L440 830c-20-30 10-60 40-40l98.2 108m-89.3 90.8L390 880c-20-30 10-60 40-40l98.6 108.5M366.1 884c4.5.9 9.2 2.8 13.9 5.9l98.9 108.8m-39.6 40.4-63-69.2m.6 21.5 52.3 57.6m-39.9 40.2-15.6-17.2M517 711.8a47.4 47.4 0 0 0-7.1 0 41.4 41.4 0 0 0-26.6 11.6 44.4 44.4 0 0 0-8.3 47.7c-6-1.9-12-2.5-17.8-2.1a41.4 41.4 0 0 0-26.6 11.6 43.2 43.2 0 0 0-10.8 39.2c-4.2-.9-8.5-1.1-12.6-.8a41.4 41.4 0 0 0-26.6 11.6 43.2 43.2 0 0 0-10.9 39l-.8-.2a15 15 0 0 0-5.5-.2m548.1-45L860.2 879m-11.3-152.7a1153 1153 0 0 0 91-47.5M860.2 753a1168 1168 0 0 0 81.8-41.8m-68 67.4c23.4-10.8 46.7-22.5 70-35.2M892.4 802c18-8.3 35.8-17.2 53.6-26.6m-33.6 49.3a1200 1200 0 0 0 35.6-17.5m-28 48.3 18.8-8.9M848 724.1l42-34.1-50.3 10.6m20 51.2L905 715l-52.7 11.1m21.3 51.7L920 740l-52.7 11.1m24 49.5L935 765l-52.7 11.1m64.6 14.6L897.3 801m13 21.2 36.7-29.9m-2.4 28-27.3 5.7m4.6 28 18.2-14.8m-143.4-28.5L735 805l50-20m31.7 50.8L755 830l46-18.4m35.7 49.2L775 855l46.3-18.5m35.4 49.3L795 880l48-19.2m22.5 49.4L810 905l50-20m-88.1-133.8c-45.7 6.4-87.5 11.3-128.3 13.2m128.1-13.6L710 745l50-20m24.5 56.7c-37.6 5.9-76 10.1-115.8 12.3M784 780.6l-59-5.6 48.7-19.5m26.8 55.2c-34.2 5.5-69.1 9.7-105 12.2h-.4m125.5 12.8c-33.7 5.4-68.1 9.6-103.5 12.1m125.4 12.6a1174 1174 0 0 1-103.3 12.3M865 885c-33.8 5.6-68.3 9.9-103.8 12.5m103 15c-26.6 4-53.6 7.3-81.2 9.5m49.5 22.2c-9 1-18.3 1.9-27.5 2.6m40.6-15.3L830 930l27.6-11M137.8 705.5c129 202.3 110.4 391 29 558.6M144.7 587C356 850.9 332 1113.9 217.5 1328.5m23.2 37c127.6-228.2 159.3-517.7-65-799.2m-31 20.8C356.2 851 332.2 1114 218 1329m-42-762.8c224 281.6 192.3 571.1 64.8 798.8M100 710s9.3 15 24.3 10.1c15.4-5 32.2-55 30.7-80.1-1.5-25-15-65-15-70s2-14.7 2-34.7c0-30-32-45.3-34.2-2.5-.6 12.4 2.2 17.2 7.2 32.2m0 0c-.7 4.6-10 15-10 20 0 20 8.3 22.8 8.3 22.8M0 602.5A52.5 17.5 0 0 1 52.5 585a52.5 17.5 0 0 1 52.5 17.5A52.5 17.5 0 0 1 52.5 620 52.5 17.5 0 0 1 0 602.5M0 635s0 0 0 0c0-7.3 14-13.5 33.7-16.1m40.1-.3C95 621 110 627.4 110 635c0 9.7-24.6 17.5-55 17.5S0 644.7 0 635m0 35a52.5 17.5 0 0 1 52.5-17.5A52.5 17.5 0 0 1 105 670a52.5 17.5 0 0 1-52.5 17.5A52.5 17.5 0 0 1 0 670m81.2 14.8c14.2 3 23.8 8.7 23.8 15.2 0 9.7-21.3 17.5-47.5 17.5S10 709.7 10 700c0-5.9 7.8-11 19.9-14.2m41.5-99.4L0 515m0-205.1c97.6-3.3 187-31.3 265-94.9C242.6 309 186.5 390.5.2 424M0 330c80.5-2.7 157-22 226-63.3a195.5 195.5 0 0 1-46.3 61.6c-36 32.3-91.5 59.2-179.3 75.4m403.5-206c-67.5 142-56.4 233-83.8 267.3-20 25-55 30-55 0 0-35 34.9-14.6 35-10m120.1-260.3C351 338.3 360.6 429.1 335 465c-25 35-70 30-70 0m171.4-272.9c-70.6 145-61.3 236.3-86.4 272.9-65 95-110 35-110 0 0-75 90-50 85-10m127.7-265.5C380.3 336 385 425.1 365 465c-20 40-77.6 65.6-94.6 48.7m198.4-326.4C395.3 335 400 425 380 465s-64.5 68.1-85 55m189.9-334.9C410.2 334 413.9 422.8 398 465c-15 40-64 80.6-88.1 60m191-342.1c-75.7 150.3-68.2 241.7-84.9 283.8-21.1 53.3-54.5 86-82.2 66m183.2-352c-77 151.6-70 244-83.8 287.4-13.3 41.9-48.2 87.4-77.5 69.5M533 179c-78 152.6-70 245.3-80 290-8.1 36-38.5 92-74.5 71.4m170.2-363.1C470.2 331 487 428.9 472.5 472.4c-12.5 37.6-39.3 81-68.3 71.3m160.5-368.1c-79.7 154.6-60.4 249.2-68 294.6-6.7 39.8-36.1 76.5-68.2 69.7M580 175c-80 155-52.5 250.8-63 295.7-7 29.3-28.2 68.3-57.6 65.6M595 175c-80 155-40.2 258.6-57.4 301.4-15 37.2-34.5 50.4-51.9 52m387.2-363c5.6 19.8 17.1 62 17.1 69.6 0 10-10 40-10 55s-10 70-20 95-45 90-50 100-9.8 39.6-24.8 44.6S735 550 720 540c-15-10-20-15-30-15s-30 5-45 0-85-15-90-30c-4.4-13.2-10-20-12.4-37.8M600 250c38.3-16.4 66.2-53.3 135-10v0l-5 5c-36.1-35.3-82.5-18.2-130 5v0m285-10c-35-15-45-30-95 5v0c30-15 66.7-25.6 95-5v0m-95 5c-5.6 2.8-7.3 21.1-5 30 2.5 9.7 15 50 15 60s9 52.2 9 57.2c0 10-19 17.8-34 17.8m-35-40c-20.8 1.7-37.9 39 9.3 31.4 30-5 10.7-11.4-19.3-1.4m-35 40v15l10-10-10-5v0m110-5-5 10-10-5 15-5v0m-105 10c15 0 30-10 35-10s15 10 20 10 15-10 20-10 10 5 15 5m-55 30c10 10.8 40 15 40-10M595 285c35 5 80-30 120-30m-80 25c-5 15 55 25 70 15s20-5 20-5m66-4.7c20 0 52.3-22.8 70-25 17.6-2.2 20 10 20 10M790 285c20 10 33 20 52.8 20 19.7 0 37.2-15 37.2-15m2.7-123.8c34.1 55.3 16.6 119.2 17.3 178.8.9 16.3 15 10 20 5m-44.1-27.1C862.7 401.7 940 392 940 350c0-40-40-25-40-5m-5 35c0 45 20 70 35 45m-66.7-47.3C863 465.9 958 484.5 950 420c-5-40-50-20-49.4-3.3m-50.9-7.3c4 49.8 43.7 72.9 75.3 60.6 18.7-7.3 21.4-18 21.1-24.4m-109.7-10.4c8.2 42.8 66.4 69 93.6 34.8m-103-17c9.2 40.7 44.6 58.7 73.3 47.6 9.4-3.8 18-11.4 19.5-21.6m-101.3-10.3c11.1 36.7 44.5 52.5 71.8 41.9a35 35 0 0 0 18.3-13.6m-99.2-10.3c6.2 37 80 56.9 91 18.9m19.8-379.8-34.3-.8a3415 3415 0 0 0-61.8-.8c-144.7-.7-291.5 8.5-441.4 36.5l-25.7 4.8M199.5 0 390 200c167.9-31.3 332.2-38.7 495-35L1041 0M472.4 571.7c96.2 49.7 189.7 68.8 274.7 56C839 614 919.4 562 977.7 477.7l3.6-5.3"/>
</symbol>
<symbol id="e" preserveAspectRatio="none" viewBox="0 0 1300 2000">
<path d="M130 1057c-4 0-4 6 0 6h60c4 0 4-6 0-6zm-10 25c-4 0-4 6 0 6h85c4 0 4-6 0-6zm-20 27v12h118l2.3-12zm0 25v12h112.2l2.6-12zm0 25v12h104.4l3.7-12zm0 25v12h96.8l3.5-12zm17.6 37H186l4.9-12h-87.4zm29.9 25h27.8l5-12h-46.5zM885.9 125a3415 3415 0 0 0-61.8-.8c-144.7-.7-291.5 8.5-441.4 36.5l-26 4.4L390 200c167.9-31.3 332.2-38.7 495-35l35.4-38.4zm48.6 474.1c-97 80.8-235.6 102.5-377.1 68.8l43.7 48.9c123.7 18 244.3-4 337-70zM816.9 960.2 444.4 540.6l-36.4 4 387.9 437ZM496.1 689 354.5 832.8l-10-34.8L475 665.3Zm381.6 208.6a898.9 898.9 0 0 1-17.5-18.4l51.2-55.3 19.4 20.9M193 1295.5c94.9-187 117-405.5-39-633.2-5 15.6-9.5 32.5-16.2 43.3 129 202.3 110.4 391 29 558.6z"/>
</symbol>
<symbol id="d" preserveAspectRatio="none" viewBox="0 0 1300 2000">
<path fill="#44F" d="M509 758c9 0 28.3-1.2 32 4 19 27 34 54.1 62 66 5.9 2.5 10.3 21.9 2 26-38.4 19-54.2-44-64-71-7.3-20-27-16.3-31-17-6-1-3.7-8-1-8zm-52.7 57.2c9 0 28.4-1.2 32 4 19 27 34 54.2 62 66 6 2.5 10.3 22 2 26-38.4 19.1-54.1-44-64-71-7.3-20-27-16.3-31-17-6-1-3.6-8-1-8zm-50 50c9 0 28.4-1.2 32 4 19 27 34 54.2 62 66 6 2.5 10.3 22 2 26-38.4 19.1-54.1-44-64-71-7.3-20-27-16.3-31-17-6-1-3.6-8-1-8zm-35 50c7.5.1 14.9 1 17 4 19 27 34 54.2 62 66 6 2.5 10.3 22 2 26-38.4 19.1-54.1-44-64-71a23.5 23.5 0 0 0-16.2-15.6m4.2 94.5a80 80 0 0 0 24 16.1c6 2.5 10.3 22 2 26-10.8 5.4-19.9 4.2-27.5-.9M697.2 280a13.6 20 0 0 1-13.6 20 13.6 20 0 0 1-13.6-20 13.6 20 0 0 1 13.6-20 13.6 20 0 0 1 13.6 20zm162.8 4.5a12.5 20.3 0 0 1-12.5 20.3 12.5 20.3 0 0 1-12.5-20.3 12.5 20.3 0 0 1 12.5-20.3 12.5 20.3 0 0 1 12.5 20.3zm179.3 309.8a591.3 591.3 0 0 1-39-117.4l-19-4.6-3.6 5.3a399.6 399.6 0 0 1-26.9 34.7c5.1 82.8 10.4 166.9 15 237.7a888.8 888.8 0 0 1 73.5-155.7zm105.3-78.3 55.2 14.9m-55.2-15c3.5 27 30.4 77.6 55 106.2l.2-91.2M137.6 706c-4.4 7.6-8.9 12.7-13.3 14.1C109.3 725 100 710 100 710v496.9c24 18 45.8 37 66.1 57.4C248.2 1096.7 266.8 908 137.6 706zM100 1610l-110 110m364.5-887.2L496.1 689l20.9 22.8a47.4 47.4 0 0 0-7.1 0 41.4 41.4 0 0 0-26.6 11.6 44.4 44.4 0 0 0-8.3 47.7c-6-1.9-12-2.5-17.8-2.1a41.4 41.4 0 0 0-26.6 11.6 43.2 43.2 0 0 0-10.8 39.2c-4.2-.9-8.5-1.1-12.6-.8a41.4 41.4 0 0 0-26.6 11.6 43.2 43.2 0 0 0-10.9 39l-.8-.2a15 15 0 0 0-5.5-.2zM1100 520a10 10 0 0 1-10 10 10 10 0 0 1-10-10 10 10 0 0 1 10-10 10 10 0 0 1 10 10zm30 65a10 10 0 0 1-10 10 10 10 0 0 1-10-10 10 10 0 0 1 10-10 10 10 0 0 1 10 10zm45 70a10 10 0 0 1-10 10 10 10 0 0 1-10-10 10 10 0 0 1 10-10 10 10 0 0 1 10 10z"/>
</symbol>
<symbol id="c" preserveAspectRatio="none" viewBox="0 0 1300 2000">
<path fill="red" d="m199.5 0 157.7 165.6 25.5-5c150-28 296.7-37 441.4-36.4 20.6 0 41.2.3 61.8.8l34.5 1.6L1040.9 0h-90.3L877 108.7h-3.3a2998.5 2998.5 0 0 0-96.5-.6h-8L798.3 0h-102l-7.8 110.4-5.3.2c-29 1.2-58 3-87.6 5.4l-5.5.4L571 0H447.9l45.3 126.5-7.4 1a1844 1844 0 0 0-79.9 12.1l-3.5.6L292.6 0ZM308 0l99.5 127.2c23.4-4 46.7-7.5 69.5-10.6L435.2 0Zm275 0 17 103.6c26-2 51.6-3.6 77.1-4.7l7-98.9Zm227.6 0L785 96a2780.2 2780.2 0 0 1 85.7.6L936 0ZM0 50v70l80 80v-70zm0 150v109.9c27.3-1 54-3.8 80-8.9v-21Zm225.9 66.7C156.9 308 80.5 327.3 0 330v73.9c88-16.3 143.5-43.2 179.6-75.5a195.5 195.5 0 0 0 46.3-61.6zM80 404.4a601.7 601.7 0 0 1-80 19.7V435l80 80zm182 104.2-54.8 36.7c65.5 82.9 109.8 167 137 251.6l131-131.6-110-123.7c-34.4-11-70.7-12.7-103.1-33zm863.4 2.2-42.3 33.3 9.8 23.4h66.5l-40.5 50.6 14.3 21.5 61.4-10.3L1177 693l12.2 12.2 11-39.6-.7-43.4-6-7.8-60.4 10 36.7-45.8-13-26h-60.1l46.6-36.7zM0 515v87.5A52.5 17.5 0 0 1 52.5 585a52.5 17.5 0 0 1 18.7 1.2zm0 87.5V635c0-7.3 14-13.5 33.7-16.1h.3a52.5 17.5 0 0 1-34-16.4ZM0 635v35a52.5 17.5 0 0 1 52.5-17.5 52.5 17.5 0 0 1 27.5 2.6v-4.5c-7.5 1.2-16 1.9-25 1.9-30.4 0-55-7.8-55-17.5Zm0 35v80l80 80V715.4c-6.7 1.3-14.4 2.1-22.5 2.1-26.2 0-47.5-7.8-47.5-17.5 0-5.9 7.8-11 19.9-14.2A52.5 17.5 0 0 1 0 670Zm170.2-103a3 3 0 1 0 0 6h8.8a3 3 0 1 0 0-6h-.4zm-97.5 19.4a52.5 17.5 0 0 1 7.3 1.2v-1.2zm74.3.6a3 3 0 1 0 0 6h47.3a3 3 0 1 0 0-6h-.4zm15.5 20a3 3 0 1 0 0 6h46.1a3 3 0 1 0 0-6h-.3ZM80 617.4a52.5 17.5 0 0 1-6.9 1.2h.7l6.2.8zm97 9.6a3 3 0 1 0 0 6h45.2a3 3 0 1 0 0-6h-.3zm13.6 20a3 3 0 1 0 0 6h44.5a3 3 0 1 0 0-6h-.3zm12.9 20a3 3 0 1 0 0 6h43.6a3 3 0 1 0 0-6h-.2zm12 20a3 3 0 1 0 0 6H258a3 3 0 1 0 0-6zm597.6 19-26.3 6.3c8.3 25.5 23 66.5 38.2 87.7 12.7 17.8 34.4 42 52.7 61.6l16.8-18.9A622.3 622.3 0 0 1 850 790c-14.5-20.2-28.5-58.4-37-84Zm-586.3 1a3 3 0 1 0 0 6h41.6a3 3 0 1 0 0-6zm10.4 20a3 3 0 1 0 0 6h41a3 3 0 1 0 0-6zm9.5 20a3 3 0 1 0 0 6h40.5a3 3 0 1 0 0-6zm8.8 20a3 3 0 1 0 0 6h39.9a3 3 0 1 0 0-6h-.1zm8.1 20a3 3 0 1 0 0 6h39.1a3 3 0 1 0 0-6zm7.4 20a3 3 0 1 0 0 6h38.6a3 3 0 1 0 0-6zm6.5 20a3 3 0 1 0 0 6h38.2a3 3 0 1 0 0-6zM0 830v235l80 80V910Zm283.2 17a3 3 0 1 0 0 6H321a3 3 0 1 0 0-6zm5 20a3 3 0 1 0 0 6h37.5a3 3 0 1 0 0-6zm4.4 20a3 3 0 1 0 0 6h37.2a3 3 0 1 0 0-6zm3.7 20a3 3 0 1 0 0 6h37a3 3 0 1 0 0-6zm3 20a3 3 0 1 0 0 6h36.6a3 3 0 1 0 0-6zm2.2 20a3 3 0 1 0 0 6h36.4a3 3 0 1 0 0-6zm1.5 20a3 3 0 1 0 0 6h36.3a3 3 0 1 0 0-6zm.8 20a3 3 0 1 0 0 6H340a3 3 0 1 0 0-6zm.2 20a3 3 0 1 0 0 6h36a3 3 0 1 0 0-6zm-.5 20a3 3 0 1 0 0 6h36.4a3 3 0 1 0 0-6zm-1.2 20a3 3 0 1 0 0 6h36.5a3 3 0 1 0 0-6zm-1.8 20a3 3 0 1 0 0 6h36.6a3 3 0 1 0 0-6zm-2.5 20a3 3 0 1 0 0 6h36.8a3 3 0 1 0 0-6zm-3.2 20a3 3 0 1 0 0 6H332a3 3 0 1 0 0-6zm-3.8 20a3 3 0 1 0 0 6h37.4a3 3 0 1 0 0-6zM0 1145v235l80 80v-235zm286.6 2a3 3 0 1 0 0 6h37.6a3 3 0 1 0 0-6zm-5.2 20a3 3 0 1 0 0 6h38a3 3 0 1 0 0-6zm-5.7 20a3 3 0 1 0 0 6H314a3 3 0 1 0 0-6zm-6.4 20a3 3 0 1 0 0 6h39a3 3 0 1 0 0-6zm-7 20a3 3 0 1 0 0 6h39.4a3 3 0 1 0 0-6zm-7.7 20a3 3 0 1 0 0 6h39.8a3 3 0 1 0 0-6zm-8.4 20a3 3 0 1 0 0 6h40.4a3 3 0 0 0 .2-6 3 3 0 0 0-.2 0zm-9 20a3 3 0 1 0 0 6h40.9a3 3 0 1 0 0-6zm-9.6 20a3 3 0 1 0 0 6H269a3 3 0 1 0 0-6zm-9.2 20a3 3 0 1 0 0 6h41a3 3 0 1 0 0-6zm12.9 20a3 3 0 1 0 0 6H249a3 3 0 1 0 0-6zM0 1460v200l80-80v-40.8z"/>
</symbol>
<symbol id="b" preserveAspectRatio="none" viewBox="0 0 1300 2000">
<path fill="#FC4" d="M0 0v602.5A52.5 17.5 0 0 1 52.5 585a52.5 17.5 0 0 1 47.5 10V397.5c108.3-41.3 147.2-108 165-182.5a409.2 409.2 0 0 1-165 81.7V100L0 0zm0 602.5V635c0-7.3 14-13.5 33.7-16.1h.3a52.5 17.5 0 0 1-34-16.4zM0 635v35a52.5 17.5 0 0 1 52.5-17.5 52.5 17.5 0 0 1 47.5 10v-17.4a118 118 0 0 1-45 7.4c-30.4 0-55-7.8-55-17.5zm0 35v1040l100-100V707.8c-7.8 5.8-23.9 9.7-42.5 9.7-26.2 0-47.5-7.8-47.5-17.5 0-5.9 7.8-11 19.9-14.2A52.5 17.5 0 0 1 0 670zm873-504.6c5.5 19.8 17 62 17 69.6 0 10-10 40-10 55s-10 70-20 95-45 90-50.3 100.8c2.9 18.6 22 32.8 42.2 38h-1.5A260.2 260.2 0 0 1 738 568.5c-68.3 10.2-147.2-4.3-232.4-47.2l-.7.3c11.6-7.4 23-21.3 32.7-45.2C554.8 433.6 515 330 595 175c-68 0-133.6 4.2-191.2 22.6-61 128.1-57.9 214.8-77.8 256.5 4-39.1-86-64.1-86 10.9 0 20.6 15.6 49.8 43 51 65.2 21.2 130 36.7 202.7 12.3 2.4-.2 4.8-.6 7.2-1.3l-10.6 4.8c93.5 50 181.5 68 258.7 56.4 52.2-7.8 99.7-29 141-63.7h-1.7a27 27 0 0 0 20.2-19c24-28.3 34.2-44 46.8-61.8 2.8-6 4-14 2.7-23.7-5-40-50-20-49.9-4.7-3.4-10.5-5.1-22-5-35.4 19.4 7.7 44.9-5.8 44.9-29.9 0-40-40-5-40-5s16.8-123.5-17.3-178.8l-9.8-.8zm88.2 300.8C905.6 546.7 830.5 595 744 608c-88 13.2-187.5-9.8-291-69.6l-8 1.6 27.3 31.7c96.2 49.7 189.7 68.8 274.7 56A327.8 327.8 0 0 0 933.8 531l-3 3.1L948 808.7l17.6-58.7-14.8-237.6c9.4-11 18.4-22.5 26.9-34.8l3.6-5.3-20.1-6.1zm72.1 19.8c26.3 105.4 79.4 198 165.5 268l1.1-38.5c-66.3-59.9-109.4-135.2-133.3-221.1l-33.3-8.4zm-668 55.6 151 170.1a47.4 47.4 0 0 0-6.4 0 41.4 41.4 0 0 0-26.6 11.7 44.4 44.4 0 0 0-8.3 47.7c-6-1.9-12-2.5-17.8-2.1a41.4 41.4 0 0 0-26.6 11.6 43.2 43.2 0 0 0-10.8 39.2c-4.2-.9-8.5-1.1-12.6-.8a41.4 41.4 0 0 0-26.6 11.6 43.2 43.2 0 0 0-10.9 39l-.8-.2a15 15 0 0 0-5.5-.2l.3 2.2c-21.6-108-70.8-218.4-156-326.5l-63.5 41.6C148 601 154 623.8 155 640c.4 6-.3 13.4-1.4 21.8C310 890 287.9 1108.5 192.4 1294.9a515 515 0 0 1 68 110.2 833.3 833.3 0 0 0 98-240.1l-.2 1.6 295.5-300.1L775 1003l21-21.4-387.9-437-42.7-3zM100 609.9a52.5 17.5 0 0 1-26.8 8.7h.6a91.7 91.7 0 0 1 26.2 6.3v-15zm0 67.5a52.5 17.5 0 0 1-19.9 7.4h1a49.6 49.6 0 0 1 18.9 7.4v-14.8zm738.6 20.3-25.5 8.3c8.4 25.6 22.4 63.8 36.9 84 10.8 15.2 28.3 35 44.5 52.7 0 0 23-12 16.2-19.6A538.3 538.3 0 0 1 875 780c-14.1-19.8-27.9-56.7-36.4-82.3zm-51.8 14.6-26.7 4.6c7.9 24.8 23.6 70.3 39.9 93.1a772.7 772.7 0 0 0 59.8 69c7.2 7.6 17-18.5 17-18.5A682.4 682.4 0 0 1 825 800c-15.2-21.2-29.9-62.2-38.2-87.7z"/>
</symbol>
<path id="i" d="M-82.4-130.4H82.4v260.8H-82.4z"/>
</defs>
<rect width="239" height="335" x="-119.5" y="-167.5" fill="#fff" stroke="#000" rx="12" ry="12"/>
<use xlink:href="#b" width="164.8" height="260.8" x="-82.4" y="-130.4"/>
<use xlink:href="#b" width="164.8" height="260.8" x="-82.4" y="-130.4" transform="rotate(180)"/>
<use xlink:href="#c" width="164.8" height="260.8" x="-82.4" y="-130.4"/>
<use xlink:href="#c" width="164.8" height="260.8" x="-82.4" y="-130.4" transform="rotate(180)"/>
<use xlink:href="#d" width="164.8" height="260.8" x="-82.4" y="-130.4"/>
<use xlink:href="#d" width="164.8" height="260.8" x="-82.4" y="-130.4" transform="rotate(180)"/>
<use xlink:href="#e" width="164.8" height="260.8" x="-82.4" y="-130.4"/>
<use xlink:href="#e" width="164.8" height="260.8" x="-82.4" y="-130.4" transform="rotate(180)"/>
<use xlink:href="#f" width="164.8" height="260.8" x="-82.4" y="-130.4"/>
<use xlink:href="#f" width="164.8" height="260.8" x="-82.4" y="-130.4" transform="rotate(180)"/>
<use xlink:href="#g" width="164.8" height="260.8" x="-82.4" y="-130.4"/>
<use xlink:href="#g" width="164.8" height="260.8" x="-82.4" y="-130.4" transform="rotate(180)"/>
<use xlink:href="#h" width="32" height="32" x="-114.4" y="-156"/>
<use xlink:href="#a" width="26.8" height="26.8" x="-111.8" y="-119"/>
<use xlink:href="#a" width="55.7" height="55.7" x="34" y="-132.2"/>
<g transform="rotate(180)">
  <use xlink:href="#h" width="32" height="32" x="-114.4" y="-156"/>
  <use xlink:href="#a" width="26.8" height="26.8" x="-111.8" y="-119"/>
  <use xlink:href="#a" width="55.7" height="55.7" x="34" y="-132.2"/>
</g>
<use xlink:href="#i" fill="none" stroke="#44F"/>
</svg>
