<svg xmlns="http://www.w3.org/2000/svg" xmlns:xlink="http://www.w3.org/1999/xlink" width="240" height="336" class="card" preserveAspectRatio="none" viewBox="-120 -168 240 336"><defs>
<symbol id="h" preserveAspectRatio="xMinYMid" viewBox="-500 -500 1000 1000"><path fill="none" stroke="#000" stroke-linecap="square" stroke-miterlimit="1.5" stroke-width="80" d="M-260 100c300 0 220 360 520 360M-175 0v-285a175 175 0 0 1 350 0v570a175 175 0 0 1-350 0Z"/></symbol>
<symbol id="a" preserveAspectRatio="xMinYMid" viewBox="-600 -600 1200 1200"><path d="M30 150c5 235 55 250 100 350h-260c45-100 95-115 100-350a10 10 0 0 0-20 0 210 210 0 1 1-74-201 10 10 0 0 0 14-14 230 230 0 1 1 220 0 10 10 0 0 0 14 14 210 210 0 1 1-74 201 10 10 0 0 0-20 0Z"/></symbol><symbol id="g" preserveAspectRatio="none" viewBox="0 0 1300 2000"><path fill="none" stroke="#44F" stroke-linecap="round" stroke-linejoin="round" stroke-width="3" d="M1184.5 767.2c.3 15.4 12 16.5 23.9 17.3m-27 27.2c3.7 9.4 6.3 17.2 2.1 21.1m-2.7 4c3.6 9.4 6.2 17.3 2 21.2m-2 6.6c3.6 9.3 6.2 17.2 2 21.1m31-75.4c1.8 3 2.8 6.1 2.5 9.6m3.7 17.5c1.5 3.2 2 6.5 1.3 10m-2.8 20.8c1.5 3.1 2 6.4 1.3 9.9m.2-103.1c1.9 3 2.8 6.1 2.6 9.7M435 205c29.9-29.8 90-20.2 87.8-12.1M480 250c21.6 13.4 40-25 45-40m65 5c17.6-51.3 55-40 60-25m-142.6.4A27.6 27.6 0 0 1 515 210c0 13.8-9 25-20 25s-20-11.2-20-25c0-4.3.9-8.4 2.4-12m176-2.6c1 3 1.6 6.2 1.6 9.6 0 13.8-9 25-20 25s-20-11.2-20-25c0-2.2.2-4.4.7-6.5"/><use xlink:href="#a" width="90" height="90" transform="rotate(-45 1609.7 -701.1)"/><use xlink:href="#a" width="90" height="90" transform="rotate(-45 1761.2 -793.7)"/><use xlink:href="#a" width="90" height="90" transform="rotate(-45 1916.7 -878.7)"/></symbol><symbol id="f" preserveAspectRatio="none" viewBox="0 0 1300 2000"><path fill="none" stroke="#44F" stroke-linecap="round" stroke-linejoin="round" stroke-width="6" d="M1300 984.8 996.3 759M1.2 779.6A311.7 311.7 0 0 1 210 700c171.2 0 310 136.6 310 305 0 57.3-16 110.9-44 156.7M2 780l410.8 305.4M513 940h271.2m515.7 250.3L924 910.7m71.8-152.2-108.6 156M1003.7 796 924 910.5M857.2 601l138.6 157.6m-109 155.7c-85-62.8-110.3-182.3-55.1-277.8 7.5-13 16.1-25 25.7-35.8m43.6 293c-74.4-55.3-96.5-160-47.7-244.7 6-10.5 13-20.1 20.4-29m130.5 176 295.8 220M916.1 874c-64.1-48-83.7-138.3-40.9-212.4a184 184 0 0 1 15.7-22.8M995.1 760H853m95.8-55h-91.4M957 815h-89m-11.1-215h-698m682-30H205m605-60H263m532-30H284.6M642.5.2c34.3 141.4 46.3 258 152.8 479.8 17.9 37.2 38.4 77.4 62.1 121.2M836 630H179.4m510.7.3c2.3 128.3 47.8 162.2 49.8 309.4m-79.8-309.4c2.8 128.3 57.4 162.2 59.8 309.4M580.1 630c3.4 166 90.4 181.9 94.7 309.8M540.1 630.1c4 161.4 104.7 181.7 109.7 309.8M440.2 630.1c5.6 161.5 147 191 154.5 309.9M410.2 629.7c5.6 161.8 151.4 195.8 164 310.3m-56.5 25h263.7m-272.2-40h62.5m-67.1-15h62.9m-68.4-15h62.2m-61.5-15h53.4m-52.4-15h42.5m-41.5-15h30m-29-15H519m220.4 90h49m-49.6-15h53.5m-54.6-15h59.4m-60.9-15h58.6m-60.4-15h53.9M732 850h49.7m-52.5-15h46M726 820h42.7m-265 0h1.7m773 385c-50.1 43.6-116 70-188.4 70-158 0-285-125.3-285-280 0-47.5 12-92.1 33.2-131.3m377.7 295.4c-35 25.7-78 40.9-125.9 40.9-118.2 0-210-91.4-210-205 0-26.7 5-51.8 14.4-74.9m207.7 154.2c-4 .5-8 .7-12.1.7-49.2 0-81.3-31-84.7-72.6m122.9 91.3c-11.6 4-24.3 6.3-38.2 6.3-65.4 0-110-46.1-110-105 0-3.8.2-7.4.5-11m214.6 159.2A185.7 185.7 0 0 1 1090 1175c-105 0-185-80-185-180 0-21.2 3.6-41 10.3-59.4m-257.8 46.3c3.5-24.8 35.4 7 10.6 10.6 20-15 20 30 0 15 24.8 3.5-7 35.4-10.6 10.6 15 20-30 20-15 0-3.5 24.8-35.4-7-10.6-10.6-20 15-20-30 0-15-24.8-3.5 7-35.4 10.6-10.6-15-20 30-20 15 0v0m5 18.1a12.5 12.5 0 0 1-12.5 12.5 12.5 12.5 0 0 1-12.5-12.5 12.5 12.5 0 0 1 12.5-12.5 12.5 12.5 0 0 1 12.5 12.5v0M585 965v70M218.8 700.3l-40.2-70.2m-8.8 73.2-48.1-84.1M393.7 0 0 618.6m182.3-286.1C132.4 314 81.4 317.8 30 330c80.7-86.7 76.1-214.3 96.2-330m207.4 0L130 320M407.5-.4C347.7 225.9 197.3 687.9 0 664.1M438-.4C389.6 223.7 339.1 536 125.6 614.7m14.7-311 48.9 17.5M149 290l48.9 17.5m-39.3-32.6 48.9 17.5m-39.3-32.6 49 17.4m-25.8-27.7 35.4 12.6m-9.4-22 19 6.9M41.9 326.8C57.7 316 73.4 305 85 290c21.7 8.6 42.5 4.2 63.3 1.5m-75.3-25c27.7 5.5 58 4.7 88.3 3.8m-56-116.5c26 22.4-3 72.3 34.7 91.2 36 18 59-38 35-50-20-10-45 25-20 35 14.1 5.7 20.1-28.6 10-20m-59.8-56.7c33.4 11.5 60.1-41.4 96.8-19.5 34.6 20.7-.2 70.3-23.3 56.5-19.2-11.5-3.2-51.4 18.7-35.7 12.4 8.8-13.3 32.3-11.5 19.2m47-15.4c-3.7-20.7-8.8-40.4-27.9-48.4 4.2-27.9 1.4-52.3-15-70 17.4-1.6 34.5-2 55-20 28 10 52.5 3.2 77.4-2m-71.6 112.2c-5-11.3-11-22-20.8-30.2 1.5-14.3.3-26.4-5-35 8.5 1.2 21.8.6 35-10 9 7 20.6 8.6 32.7 9.4m101.8-17.5c14-4.6 26.2-13.1 38.2-22.3m-45.1 46.6a127 127 0 0 0 40-22.8M381 93.9c15.6-5.4 29.2-15.8 42.7-26.4M373 120c16.7-3.8 30.8-13.5 44.6-24M366 143c17.7-4.8 32.6-16.2 47.5-27.8m-55.9 53.2c18.8-2.6 34.4-13 49.5-24.5m-57.7 49.3c19.4-5.3 38-20.2 54-33m-62.5 57.6c20.3-4.3 39.9-19.8 56.8-33.2m-65.1 56.6c21.7-5.3 42.5-23 60.1-36.8m-68.2 59.1a293 293 0 0 0 63-37.8M314.8 289c22.1-7.6 49-25.5 65.9-38.2m-76 63.5c22.1-6.2 50.3-24.5 68.7-38M295 338c23.4-6.6 53.5-26.7 71.6-40.4M284.2 363c22.7-4.3 54-24.5 74-39.2m-84.6 63c23.4-4 56.5-25.7 76.5-40.7m-85.3 59.7c24-6.3 56.5-21 74.8-33.3M253 430.1c24.1-6 57.7-21 76.5-33.7m-89.7 59.2c21-3.6 53.8-17.2 75.8-29.9M227 478.9c22.3-4.3 56-18.6 77.1-31.5m-91.7 56.5a280.7 280.7 0 0 0 77.1-31.8m-90.4 52.7a276.1 276.1 0 0 0 79.9-36.5m-96.4 60.6c24-5.9 57.6-20.9 76.6-33.5m-95.4 58.2c19.2-4.1 45.9-15 66-26m432-353c20.6 78.5 50 167.3 105.6 285m-99.2-366.3c-3 36.7-8.2 104.4-8.2 111.7 0 15-18.2 142.5-35 155-17.9 13.3-60.7 84.8-70 90-25.8 14.6-68.6-14.7-75-20-40.5 11.4-131.5-97-100-115l-23.2-10m299-60.2a1654.6 1654.6 0 0 0 84.3 215.3m-93.8-164c16.7 48.8 38 102.6 66 163.7m23.1-9.8H708m20.6-15h-27.3m20.6-15h-27.3m20.7-15h-27m20.7-15h-27m20.7-15h-27m21-15h-26.8m20.8-15h-26.6m21.1-15h-26.8m21.3-15H653m21.2-15h-26.5m21.3-15h-20m14.9-15H651M403 403.6a443.3 443.3 0 0 1-51.9-61.7m148.4 138.2a730.9 730.9 0 0 1-55.2-39.8m30.4 39.8c-47.3-32.5-92-70.3-129.5-122.4m105.2 122.4a495.8 495.8 0 0 1-111.3-107M427 480a485.7 485.7 0 0 1-94.2-92.1m71.2 92a476.7 476.7 0 0 1-77.6-77.4m55.6 77.6c-22-18.7-43-39.5-62.3-63.4m40.7 63.2a462.4 462.4 0 0 1-47.6-49.5m27 49.7a457 457 0 0 1-34-36.2m13.6 36a452.3 452.3 0 0 1-21-22.9m1.5 23-9.2-10.3m82.6-121.2c-5.5-7.2-11-14.7-16.2-22.6M525 480c-11-7-22-14.2-32.7-21.6M400 550a69.3 69.3 0 0 1-33.8-9.2m-21.3 7c30.7 20.8 63.2 12 95.1 12.2-4.4-9.3-16-15.1-55.8-27.2m59.6-1a69.3 69.3 0 0 0-33.8 9m-21.4-7c30.8-20.7 63.2-12 95.2-12-4.4 9.2-16 15-55.9 27.1m60.9.3A69.3 69.3 0 0 1 455 540m-21.3 7c30.7 20.8 63.2 12 95.1 12.2-4.4-9.3-16-15.1-55.8-27.3m59.6-1a69.3 69.3 0 0 0-33.8 9.1m-21.4-7c30.8-20.8 63.2-12 95.2-12.1-4.4 9.3-16 15.1-55.9 27.2m54.7 3a69.3 69.3 0 0 1-33.8-9.2m-21.4 7c30.8 20.9 63.2 12 95.2 12.2-4.4-9.3-16-15.1-55.9-27.2m59.6-1a69.3 69.3 0 0 0-33.8 9M560 535c30.7-20.8 63.2-12 95.1-12.2-4.3 9.3-16 15.1-55.8 27.3m60.9.2a69.3 69.3 0 0 1-33.8-9.2m-21.4 7c30.8 20.8 63.2 12 95.2 12.2-4.4-9.3-16-15.1-55.9-27.3m59.6-1a69.3 69.3 0 0 0-33.8 9.2m-21.3-7c30.7-20.9 63.2-12 95.1-12.2-4.3 9.3-16 15.1-55.8 27.2m62 0a69.3 69.3 0 0 1-33.9-9.2m-21.3 7c30.7 20.8 63.2 12 95.1 12.1-4.3-9.3-16-15.1-55.8-27.2m59.6-1A69.3 69.3 0 0 0 760 540m-21.3-7c24.7-16.8 50.6-14.3 76.4-12.8m6.4 12c-8.3 4.5-21.7 9.2-43.5 15.9M310 550a69.3 69.3 0 0 1-33.8-9.2m-21.3 7c30.7 20.8 63.2 12 95.1 12.2-4.4-9.3-16-15.1-55.8-27.2m59.6-1a69.3 69.3 0 0 0-33.8 9m-21.4-7c30.8-20.7 63.2-12 95.2-12-4.4 9.2-16 15-55.9 27.1m-81-30.5c16.3-.6 32.7 1.7 49 1.6-4.3 9.3-16 15.1-55.8 27.2M266 530c-7.8 0-15.5 1.4-23.1 4.3M218.6 560c14.5 0 29.1-1.8 43.6-1.7-3-6.3-9.2-11-25.4-17.2m592.8 7.2a74.6 74.6 0 0 1-23.4-8.3m-21.3 7a86.9 86.9 0 0 0 51.4 13.8m145.1 451.4L930 1020c-2.2 12.5 2 18.2 5 25l50.3-16.2m4.7 11.8-46.3 21.6c1.1 12.6 6.6 17 11.3 22.8l43.3-29.9m8.3 10.3-38.5 35c5.8 11.3 12.5 13.4 19 17l31.7-40.6m15.5 10-23 43.9c9.3 8.6 16.3 8.2 23.7 9.3l15.4-46.4m14.7 4L1055 1150c11.5 5.5 18 3.1 25.4 2l2.6-52.3m19.7-.4 5.6 55c12.6 2.3 18.2-1.8 25-5L1121 1096M978.2 982l-50.6-7.5c-5.8 11.4-3.6 18-2.6 25.4h55.2M857 966.2a12.5 12.5 0 0 1-13.4 11.4 12.5 12.5 0 0 1-11.5-13.4 12.5 12.5 0 0 1 13.4-11.5 12.5 12.5 0 0 1 11.5 13.5v0m-25.9 10.5c-26 13-21.8-41.9 2-25-13-26 41.8-21.7 24.9 2 26-13 21.8 41.8-2 25 13 26-41.8 21.7-24.9-2v0m30 72.4a12.5 12.5 0 0 1-10 14.5 12.5 12.5 0 0 1-14.5-10 12.5 12.5 0 0 1 10-14.6 12.5 12.5 0 0 1 14.6 10.1v0m-22.4 16.7c-22 19.2-31.7-35-4.4-24.6-19.2-22 35-31.6 24.6-4.4 22-19.2 31.7 35 4.4 24.6 19.2 22-35 31.7-24.6 4.4v0m56.3 58.8a12.5 12.5 0 0 1-6.6 16.4 12.5 12.5 0 0 1-16.4-6.6 12.5 12.5 0 0 1 6.6-16.4 12.5 12.5 0 0 1 16.4 6.6v0m-18 21.3c-17.2 23.6-38.8-27-10-23-23.5-17 27-38.7 23-9.8 17.1-23.6 38.8 27 9.9 23 23.6 17-27 38.7-23 9.8v0m73.5 34.5a12.5 12.5 0 0 1 .6 17.7 12.5 12.5 0 0 1-17.7.6 12.5 12.5 0 0 1-.6-17.7 12.5 12.5 0 0 1 17.7-.6v0m-8 26.8c-6 28.5-46.2-9-18.2-17-28.5-6.1 9-46.3 17-18.3 6.1-28.5 46.3 9 18.3 17 28.5 6-9 46.3-17 18.3v0m77.4 7.5a12.5 12.5 0 0 1 8.4 15.5 12.5 12.5 0 0 1-15.5 8.5 12.5 12.5 0 0 1-8.4-15.6 12.5 12.5 0 0 1 15.5-8.4v0m4.8 27.5c7.3 28.3-45.4 12.6-24-7.1-28.2 7.2-12.5-45.5 7.2-24-7.2-28.2 45.5-12.5 24 7.2 28.2-7.3 12.5 45.4-7.2 24v0m82.8-17.6a12.5 12.5 0 0 1 12.9 12 12.5 12.5 0 0 1-12 13 12.5 12.5 0 0 1-13-12 12.5 12.5 0 0 1 12-13v0m13.4 24.6c15.8 24.5-39.1 26.3-25 .8-24.5 15.8-26.3-39.1-.8-25-15.8-24.5 39.1-26.3 25-.8 24.5-15.8 26.3 39.1.8 25v0m68.1-45.4a12.5 12.5 0 0 1 16.4 6.7 12.5 12.5 0 0 1-6.7 16.4 12.5 12.5 0 0 1-16.4-6.7 12.5 12.5 0 0 1 6.7-16.4v0m21.2 18.2c23.5 17.3-27.2 38.6-23 9.7-17.3 23.5-38.6-27.2-9.7-23-23.5-17.3 27.2-38.6 23-9.7 17.3-23.5 38.6 27.2 9.7 23v0m-69-118.5 18.8 36.4a30.1 30.1 0 0 0 17.5-9.5M643 0c101.8 342.3 345.9 461.6 230.7 620m216.3-15c-15-90 70-90 55 0 90-15 90 70 0 55 15 90-70 90-55 0-90 15-90-70 0-55v0m27.5-37.5c0 60 5 65 65 65-60 0-65 5-65 65 0-60-5-65-65-65 60 0 65-5 65-65v0m12.5 65a12.5 12.5 0 0 1-12.5 12.5 12.5 12.5 0 0 1-12.5-12.5 12.5 12.5 0 0 1 12.5-12.5 12.5 12.5 0 0 1 12.5 12.5v0m-68.7-28.9a99.6 99.6 0 0 1-6.3-33.6 99 99 0 0 1 33.6 6.3m57.8 0a99.6 99.6 0 0 1 33.6-6.3 99 99 0 0 1-6.3 33.6m-112.4 57.8a99.6 99.6 0 0 0-6.3 33.6 99 99 0 0 0 33.6-6.3m57.8 0a99.6 99.6 0 0 0 33.6 6.3 99 99 0 0 0-6.3-33.6m-93 160.4a40 40 0 0 1 9.3-21.8c10-10 70-40 80-40s20 15 30 15 15 25-5 25-35-10-35-10c1.7 21.6-12.9 27.1-25 35m18.1-12.8a92.6 92.6 0 0 1-6 58.2M1200 805c75-25 81.8 12 10 25-55 10-59.5-8.5-10-25v0m-1.8 26.7c70.6-19 77.6 15.3 8.6 25.4-52.9 7.7-56.9-12.5-8.6-25.4v0m1.1 28.6c71.9-9.7 74.7 25.2 5.5 26.3-53 .9-54.6-19.7-5.5-26.3v0m.6-85c3.3-3.7 7.8-7.2 13.4-10.5 45-26.2 52.1 14.3 7.6 31.6-9.1 3.6-16.1 4.3-20.9 3m-15-34.4c-18.2-39.3 35-80 50-125 8.4 53.8 13.6 106-50 125v0m0 0c17.8-26.4 30.2-56.5 45-85m-104.1 46c13.2 3.5 26.2 13 39.1 34-62.5 6.4-112.6 3.3-130-25 25.8 2.6 48.9-8.1 70.7-10.2M1165 760a219.2 219.2 0 0 0-85-17.2M666.5 134.3a120.2 120.2 0 0 1-50-31.5C597.1 82.3 582.1 50.8 575 .1M667.3 124a108.3 108.3 0 0 1-43.6-28C606.4 77.4 592.2 48.6 585.2.1m82.9 113.5a96.8 96.8 0 0 1-37-24.4c-15.5-16.6-28.9-42.9-35.8-89M662.5 89a72 72 0 0 1-16.8-13.5C633.9 63 622 41.6 615.6.3m49.7 101.3a83.7 83.7 0 0 1-27-19.2C624.9 67.8 612.3 44 605.5.2m54 74.6a64.3 64.3 0 0 1-6.4-6C643 58 632 39.1 625.7.2M511.9.2c-9.1 52.9-27.6 93.8-55 123.1a175 175 0 0 1-54 39M501.6 0c-9 50.8-26.6 89-52.1 116.4a162.5 162.5 0 0 1-44 33.2M491.7.1c-8.8 48.5-25.7 84.2-49.3 109.6a150.6 150.6 0 0 1-33.7 27M481.4 0c-8.6 46.2-24.6 79.4-46.4 102.8-7.3 7.7-15 14.3-23.2 19.9m11.4-53A182.9 182.9 0 0 0 450.8.2m20.5 0c-8.5 43.8-23.6 74.5-43.6 96-4 4.3-8.3 8.2-12.7 11.8M461 0c-8.4 42.8-23.3 71.4-42.4 91m236.6-35.3c-7-10-14.4-26.2-19.4-55.6m-234 21.5a139 139 0 0 0 36-21.6M420 180c37.9-22.8 75.4-48 120-15v5c-60-35-70-10-120 10v0m170-10v5.5c20-20.5 45.3-16.8 70-10.5-37.2-18.9-54.5-8.3-70 5v0m0 0s-5 15-5 45c0 25 20 85 20 95 0 13-12.3 22.1-20 20-4.8-1.3-20 20-20 20m-30-55c-10 0-30 35-5 35 40-15 60-5 0 0m-25 35-5 10 10-5-5-5v0m95 0-5 10-5-5 10-5v0m-90 5c10 0 20-5 30-5s15 5 20 5 10-5 15-5 10 5 15 5m-60 25c13.5 3.8 21.9 20.5 45 0m-45-200c-52.2-18-74.4 28.5-100 30 40 0 35 8.7 50 10 38.3 3.3 51-26.4 42.7-42.3M660 200c-35-30-55 20-75 15 29.2 6.6 50 30 75-5m502.7 545.6c-5-22-9.3-43.8-16.6-63.8M1185 765c-6.2-23.9-10.3-48.4-17.2-71.1m38 193c-6.1 4.5-18 6.5-27.2 7.4M582.4 665h56.4m-51 35h56m-46.5 35H652m-40.3 35h51.1m-32.5 35H674m-25 35h35m-20.4 35H691m-19 35h23M584.6 682.5h54.2a17.5 17.5 0 1 0 0-35h-56.4m9.6 70h51.8a17.5 17.5 0 1 0 0-35h-56m16.1 70h48a17.5 17.5 0 1 0 0-35h-54.6m23.4 70h42.1a17.5 17.5 0 1 0 0-35h-51m28.2 70h34a17.5 17.5 0 1 0 0-35h-43.8m26.9 70h27a17.5 17.5 0 1 0 0-35h-35m19.4 70H691a17.5 17.5 0 1 0 0-35h-27.4m10.4 70h21a17.5 17.5 0 1 0 0-35h-23.2M467.6 665h75.2m-65.3 35h71.8m-53.9 35H561m-39.8 35H578m-26.6 35h48m-19.5 35h40.9m-19.5 35H637m-23.3 35h32.8M541 647.5h-73.4a17.5 17.5 0 1 0 0 35h75.2m2.6 0h-67.9a17.5 17.5 0 1 0 0 35h71.8m5.3 0h-59.2a17.5 17.5 0 1 0 0 35H561m7.8 0h-47.6a17.5 17.5 0 1 0 0 35H578m10.4 0h-37a17.5 17.5 0 1 0 0 35h48m11 0h-30.5a17.5 17.5 0 1 0 0 35h40.9m9 0h-28.5a17.5 17.5 0 1 0 0 35H637m5.5 0h-28.8a17.5 17.5 0 1 0 0 35h32.8"/></symbol><symbol id="e" preserveAspectRatio="none" viewBox="0 0 1300 2000"><path d="M393.6 0 0 618.6V664C197.2 687.9 347.4 226.5 407.3 0Zm252.6 316.5c-6.3 30.7-13.9 58-21.2 63.5-17.9 13.3-60.7 84.8-70 90-5.4 3-11.6 4.2-18 4l1.2 6 173.7-.1a1944 1944 0 0 1-65.7-163.4ZM159 599.9a281.4 281.4 0 0 1-33.3 14.8l-4 4.5 47.6 83.8a259 259 0 0 1 49.5-2.8L179 630l656.9-.2a245 245 0 0 1 21.2-29.5zm714.7 20a196.3 196.3 0 0 0-20.4 29c-48.8 84.6-26.7 189.4 47.7 244.8l15.1-19.8c-64.2-47.8-83.7-138.1-40.9-212.2a184 184 0 0 1 15.7-22.8zM513 940a304.5 304.5 0 0 1 5.6 94.8l66.4.3-.2-70h196.7c.8-8.5 2-16.7 3.2-25z"/></symbol><symbol id="d" preserveAspectRatio="none" viewBox="0 0 1300 2000"><path fill="#44F" d="M636.6 188.8A13.4 21.2 0 0 0 623 210a13.4 21.2 0 0 0 13.5 21.2A13.4 21.2 0 0 0 650 210a13.4 21.2 0 0 0-13.4-21.2Zm-140 1.2a13.4 21.2 0 0 0-13.5 21.2 13.4 21.2 0 0 0 13.5 21.2 13.4 21.2 0 0 0 13.4-21.2 13.4 21.2 0 0 0-13.4-21.2ZM263.2 509.8c-3.3 4.4-6.7 8.6-10.2 12.8l3.9-4.2a160.5 160.5 0 0 1 12 0h2.1l3.4.2 11.5.7a1129 1129 0 0 0 6 .3l2.4.1 3.7.2h3l5 .1a19 19 0 0 1-1 1.7v.2l-1 1.4-.7.8-.7.8-.8.8a24.1 24.1 0 0 1-4.9 3.8l-2.5 1.5a68.6 68.6 0 0 1-6.3 3v.1c-6 2.6-13.9 5.5-24.1 8.8l-13.6 4.3c6.5 3.6 9.9 7 11.8 11l-10.9.3c-10.9.5-21.8 1.5-32.7 1.5l11.8-12.8a315 315 0 0 1-25.2 22.4l635.6.4-4.8-9.2h-3.5l-3-.1h-.5l-2.6-.2c-14-1-28-4.4-41.5-13.6l.7.2-1-.6c-2.1.2-4.2.8-6.4 1.5 6.6 3.6 9.9 7 11.8 11.1-31.8-.2-64.2 8.6-94.9-12l-6.8 2c6.6 3.6 10 7 11.9 11.2-31.9-.2-64.3 8.6-95-12l-5.7 1.7c6.6 3.6 10 7 11.9 11.1-28.8-.2-58 7-86-6.8a16 16 0 0 1 3.4 4.9c-31.9-.2-64.3 8.6-95-12-1.8.5-3.7 1-5.6 1.7 6.5 3.6 9.9 7 11.8 11.1-32-.2-64.4 8.6-95.1-12.2l20.2-7.7c-7.1 2.6-16 5.4-27 8.8 6.6 3.6 10 7 11.9 11.1-32-.2-64.4 8.6-95.1-12.2l39.3-15 7.7 2.3-3.3-1.2c30.8-20.8 63.2-12 95.2-12.2-2.7 5.8-8.2 10.2-21.4 15.6l11.8-4.5 7.7 2.3-3.3-1.2c30.8-20.8 63.2-12 95.2-12.2-1.8 3.8-4.9 7-10.5 10.3l7.4 2.3-3.3-1.2a86 86 0 0 1 50.1-14c15 0 30 1.9 45 1.8-2.2 4.9-6.6 8.8-16 13.2l6.8 2.2-3.3-1.3c30.7-20.8 63.2-12 95.1-12.2-1.8 3.8-4.8 7-10.4 10.3l7.3 2.3-3.2-1.2c30.7-20.9 63.2-12 95.1-12.2a23.1 23.1 0 0 1-9.7 9.9l7.7 2.4-3.2-1.3a79.4 79.4 0 0 1 5.8-3.6l.8-.4 2.8-1.5c.3 0 .5-.2.7-.3a75.2 75.2 0 0 1 5.4-2.3l.7-.3 2.9-1 .8-.2a79 79 0 0 1 2.2-.7l.8-.2 2.9-.8h.1l2.9-.6.8-.2 2.3-.4h.7l3-.5h.5a107.1 107.1 0 0 1 5.7-.6h1.2a135.8 135.8 0 0 1 14.8-.2l1.7.1a341.9 341.9 0 0 1 5.7.3c3.8.1 7.5.4 11.2.6L810 510zM525 545.6a958 958 0 0 1-8 2.4l.6.4zm530 24.4a99 99 0 0 0 6.3 33.6c7-.6 14.9-.5 23.7.7l-22-22.3a3 3 0 1 1 4.2-4.2l22.2 22.1c-1.2-8.8-1.3-16.8-.7-23.7a99.7 99.7 0 0 0-33.6-6.3Zm125 0a99.7 99.7 0 0 0-33.6 6.3c.6 7 .5 14.9-.7 23.7l22.3-22a3 3 0 1 1 4.2 4.2l-22.1 22.2c8.8-1.2 16.8-1.3 23.7-.7a99.7 99.7 0 0 0 6.3-33.6ZM121.4 619C83.2 651.6 42.7 669.1 0 664v108.8l1.2 6.8A308 308 0 0 1 169.5 703Zm963.6 41.7c-8.8 1.2-16.7 1.3-23.7.7a99.7 99.7 0 0 0-6.3 33.6 99 99 0 0 0 33.6-6.3c-.6-7-.5-14.9.7-23.7l-22.3 22c-2.8 3-7.2-1.4-4.2-4.2zm65 0 22 22.3c3 2.8-1.4 7.2-4.2 4.2l-22.2-22.1c1.2 8.8 1.3 16.8.7 23.7a99.7 99.7 0 0 0 33.6 6.3 99 99 0 0 0-6.3-33.6c-7 .6-14.9.5-23.7-.7zM1004 796l-80 114.7 376 279.7V1016z"/></symbol><symbol id="c" preserveAspectRatio="none" viewBox="0 0 1300 2000"><path fill="red" d="m333.7 0-201 316.5 15.6-25c-20.8 2.7-41.6 7-63.3-1.5-11.6 15-27.3 26-42.4 37 29.8-6 58.7-9 87.4-6.3l.2-.3c17.6 2 35 5.7 52 12.1L393.5 0Zm308.7 0c34.4 141.5 46.4 258 153 480 17.8 37.2 38.3 77.4 62 121.2l16.3 18.7C989 461.5 744.7 342.3 643 0ZM260 55a44.8 44.8 0 0 1-35 10c5.3 8.6 6.5 20.7 5 35a79.8 79.8 0 0 1 20.8 30.2l41.9-65.8c-12.1-.8-23.7-2.5-32.7-9.4Zm857.5 565a12.5 12.5 0 0 0-12.5 12.5 12.5 12.5 0 0 0 12.5 12.5 12.5 12.5 0 0 0 12.5-12.5 12.5 12.5 0 0 0-12.5-12.5zm-707.2 9.9L179 630l39.6 70.2C363.1 704 483 805.2 513 939.6l61.4.4c-12.7-114.5-158.5-148.5-164-310.1Zm425.5 0L690 630c2.5 128.5 48 162.4 50 309.7l44.8.1A307.8 307.8 0 0 1 824 838.3 215 215 0 0 1 836 630zm37.8 35.1L862 690h74.2l-22.6-25zm-19 55-2.2 25h131.9l-22-25zm.6 55 7.1 25h104l18-25zm21 55 19 25h34l17.6-25zm-31.6 122.7a12.5 12.5 0 0 0-12.5 11.5 12.5 12.5 0 0 0 11.5 13.4 12.5 12.5 0 0 0 13.4-11.4 12.5 12.5 0 0 0-11.5-13.5 12.5 12.5 0 0 0-.9 0zM650 987.5a12.5 12.5 0 0 0-12.5 12.5 12.5 12.5 0 0 0 12.5 12.5 12.5 12.5 0 0 0 12.5-12.5 12.5 12.5 0 0 0-12.5-12.5Zm355.3 15c3.4 41.5 35.5 72.5 84.7 72.5 4.2 0 8.2-.2 12-.7zm-156.1 36.3a12.5 12.5 0 0 0-2.5.2 12.5 12.5 0 0 0-10.1 14.5 12.5 12.5 0 0 0 14.5 10.1 12.5 12.5 0 0 0 10-14.5 12.5 12.5 0 0 0-12-10.3zm34.3 78.2a12.5 12.5 0 0 0-4.8 1 12.5 12.5 0 0 0-6.6 16.4 12.5 12.5 0 0 0 16.4 6.6 12.5 12.5 0 0 0 6.6-16.4 12.5 12.5 0 0 0-11.6-7.6zm58.2 60a12.5 12.5 0 0 0-8.9 4 12.5 12.5 0 0 0 .6 17.7 12.5 12.5 0 0 0 17.7-.6 12.5 12.5 0 0 0-.6-17.7 12.5 12.5 0 0 0-8.8-3.4zm252.2 26a12.5 12.5 0 0 0-4.9 1 12.5 12.5 0 0 0-6.7 16.3 12.5 12.5 0 0 0 16.4 6.7 12.5 12.5 0 0 0 6.7-16.4 12.5 12.5 0 0 0-11.5-7.6zm-177.2 11.2a12.5 12.5 0 0 0-12.2 9 12.5 12.5 0 0 0 8.4 15.5 12.5 12.5 0 0 0 15.5-8.5 12.5 12.5 0 0 0-8.4-15.5 12.5 12.5 0 0 0-3.3-.5zm90.9 10.5a12.5 12.5 0 0 0-12.1 13 12.5 12.5 0 0 0 13 12 12.5 12.5 0 0 0 12-13 12.5 12.5 0 0 0-13-12z"/></symbol><symbol id="b" preserveAspectRatio="none" viewBox="0 0 1300 2000"><path fill="#FC4" d="M126.2 0c-20 115.7-15.5 243.3-96.2 330 33.6-8 67-12.4 100-9.6L333.6 0Zm669 480-510.8.1c-33 50.8-73.7 92.5-125.2 119.7l698 .8c-23.5-43.2-44-83.4-62-120.6Zm322.3 57.5c-17 0-33.9 21-28.1 63.2a42.5 42.5 0 0 1 28.1-10.7 42.5 42.5 0 0 1 28.1 10.7c5.8-42.1-11.2-63.2-28.1-63.2Zm-260.1 63.1a219.6 219.6 0 0 0-25.7 35.8 215.3 215.3 0 0 0-7.8 202A299.9 299.9 0 0 0 780 995c0 168.4 138.8 305 310 305 80.4 0 153.7-30.1 208.8-79.6l-.7-.5 1.9-2.5v-27.1L924 910.6l80-114.7 296 220v-31.1l-304-226-105.2 150.7-.5-.5 10.7-15.3c-74.4-55.4-96.5-160.2-47.7-244.8 6-10.5 13-20.1 20.4-29zm213.2 2.6c-68.8-.5-63.8 68.2 15.1 57.4a42.5 42.5 0 0 1-10.7-28.1 42.5 42.5 0 0 1 10.7-28.1 119 119 0 0 0-15.1-1.2zm93.8 0c-4.7 0-9.7.4-15.1 1.2a42.5 42.5 0 0 1 10.7 28.1 42.5 42.5 0 0 1-10.7 28.1c78.9 10.8 84-58 15.1-57.4zm-754.2 26.5c5.6 161.8 151.4 195.8 164 310.3h20.5C587 821 445.8 791.6 440.2 630Zm130 .4c4 161.4 104.6 181.7 109.6 309.8h25c-4.3-128-91.3-143.7-94.7-309.8Zm120 .2c2.7 128.3 57.3 162.2 59.7 309.4h20c-2-147.2-47.5-181-49.8-309.4ZM1235 640c-13 39.2-55.1 75.2-53.7 109.8-4.4-19-8-38-13.5-56l-21.7-2c7.3 20 11.6 41.9 16.6 63.8l22.3 9.4c63.6-19 58.4-71.2 50-125zm-89.4 24.3a42.5 42.5 0 0 1-28.1 10.7 42.5 42.5 0 0 1-28.1-10.7c-4.6 33.6 5.2 53.8 18 60.6l-1.7-.1c-21.8 2-45 12.8-70.7 10.2 17.4 28.3 67.5 31.4 130 25-13-21-25.9-30.5-39.1-34h-.7c13.9-5.5 25.3-26 20.4-61.7zM914.8 935l280.1 208.2A185.7 185.7 0 0 1 1090 1175c-105 0-185-80-185-180 0-21.2 3.6-41 10.3-59.4zm-259.4 30H517.5a330.7 330.7 0 0 1 1 69.5l136.5.4v-2.7c-6.3 2.2-15.6 0-15.6-6.7-7 7-22-8-15-15-10 0-10-21.2 0-21.2-7-7 8-22 15-15 0-6.8 9.7-9 16-6.6zm325.1 19c-.3 3.5-.5 7.1-.5 10.9 0 58.9 44.6 105 110 105 13.9 0 26.6-2.2 38.2-6.3z"/></symbol>
<path id="i" d="M-82.4-130.4H82.4v260.8H-82.4z"/>
</defs>
<rect width="239" height="335" x="-119.5" y="-167.5" fill="#fff" stroke="#000" rx="12" ry="12"/>
<use xlink:href="#b" width="164.8" height="260.8" x="-82.4" y="-130.4"/><use xlink:href="#b" width="164.8" height="260.8" x="-82.4" y="-130.4" transform="rotate(180)"/><use xlink:href="#c" width="164.8" height="260.8" x="-82.4" y="-130.4"/><use xlink:href="#c" width="164.8" height="260.8" x="-82.4" y="-130.4" transform="rotate(180)"/><use xlink:href="#d" width="164.8" height="260.8" x="-82.4" y="-130.4"/><use xlink:href="#d" width="164.8" height="260.8" x="-82.4" y="-130.4" transform="rotate(180)"/><use xlink:href="#e" width="164.8" height="260.8" x="-82.4" y="-130.4"/><use xlink:href="#e" width="164.8" height="260.8" x="-82.4" y="-130.4" transform="rotate(180)"/><use xlink:href="#f" width="164.8" height="260.8" x="-82.4" y="-130.4"/><use xlink:href="#f" width="164.8" height="260.8" x="-82.4" y="-130.4" transform="rotate(180)"/><use xlink:href="#g" width="164.8" height="260.8" x="-82.4" y="-130.4"/><use xlink:href="#g" width="164.8" height="260.8" x="-82.4" y="-130.4" transform="rotate(180)"/><use xlink:href="#h" width="32" height="32" x="-114.4" y="-156"/><use xlink:href="#a" width="26.8" height="26.8" x="-111.8" y="-119"/><use xlink:href="#a" width="55.7" height="55.7" x="30.9" y="-132.2"/><g transform="rotate(180)"><use xlink:href="#h" width="32" height="32" x="-114.4" y="-156"/><use xlink:href="#a" width="26.8" height="26.8" x="-111.8" y="-119"/><use xlink:href="#a" width="55.7" height="55.7" x="30.9" y="-132.2"/></g><use xlink:href="#i" fill="none" stroke="#44F"/></svg>
